<svg xmlns="http://www.w3.org/2000/svg" width="813" height="458.001" viewBox="0 0 813 458.001">
  <g id="Rechteck_9" data-name="Rechteck 9" fill="#ededed" stroke-width="1">
    <rect width="813" height="458" stroke="none"/>
    <rect x="0.5" y="0.5" width="812" height="457" fill="none"/>
  </g>
  <path id="Differenzmenge_3" data-name="Differenzmenge 3" d="M-4389.521,522.5H-4539.2a273.771,273.771,0,0,1-2.8-39,272.026,272.026,0,0,1,5.485-54.415,268.549,268.549,0,0,1,15.731-50.682,270.167,270.167,0,0,1,24.894-45.862,271.862,271.862,0,0,1,32.97-39.96,271.983,271.983,0,0,1,39.959-32.969,270.124,270.124,0,0,1,45.863-24.894,268.644,268.644,0,0,1,50.682-15.732A272,272,0,0,1-4272,213.5a272.008,272.008,0,0,1,54.414,5.485,268.635,268.635,0,0,1,50.682,15.732,270.1,270.1,0,0,1,45.863,24.894A272.384,272.384,0,0,1-4088,285.9V522.5h-66.479a122.8,122.8,0,0,0,3.96-14.611A124.02,124.02,0,0,0-4148,483a124.037,124.037,0,0,0-2.519-24.889,122.5,122.5,0,0,0-7.226-23.182,123.291,123.291,0,0,0-11.433-20.979,124.481,124.481,0,0,0-15.142-18.277,124.729,124.729,0,0,0-18.352-15.081,124.106,124.106,0,0,0-21.063-11.386,123.675,123.675,0,0,0-23.275-7.2A125.366,125.366,0,0,0-4272,359.5a125.331,125.331,0,0,0-24.991,2.509,123.675,123.675,0,0,0-23.275,7.2,124.176,124.176,0,0,0-21.063,11.386,124.63,124.63,0,0,0-18.352,15.081,124.387,124.387,0,0,0-15.142,18.277,123.446,123.446,0,0,0-11.433,20.979,122.671,122.671,0,0,0-7.226,23.182A123.983,123.983,0,0,0-4396,483a123.966,123.966,0,0,0,2.518,24.889,123.08,123.08,0,0,0,3.961,14.611Z" transform="translate(4901.001 -64.5)" fill="#55fc27"/>
</svg>
