<?xml version="1.0" encoding="UTF-8"?>
<svg id="Ebene_2" data-name="Ebene 2" xmlns="http://www.w3.org/2000/svg" xmlns:xlink="http://www.w3.org/1999/xlink" viewBox="0 0 476.02 225.23">
  <defs>
    <style>
      .cls-1 {
        clip-path: url(#clippath);
      }

      .cls-2, .cls-3, .cls-4, .cls-5 {
        fill: none;
      }

      .cls-2, .cls-6 {
        stroke-width: 0px;
      }

      .cls-3 {
        stroke: #000;
        stroke-width: 5px;
      }

      .cls-3, .cls-4, .cls-5 {
        stroke-miterlimit: 10;
      }

      .cls-4 {
        stroke-width: 11px;
    animation: shift 1s linear 0s infinite;
      }


      .cls-4, .cls-5 {
        stroke: #55fc27;
        stroke-linecap: round;
      }

      .cls-5 {
        stroke-width: 6.3px;
          stroke-dasharray: 1000;
  stroke-dashoffset: 1000;
      }


.cls-5:nth-of-type(1) {
  animation: draw 0.5s linear 0s forwards;
}

.cls-5:nth-of-type(2) {
  animation: draw 0.3s linear 0.6s forwards;
}

.cls-5:nth-of-type(3) {
  animation: draw 0.3s linear 0.9s forwards;
}

.cls-5:nth-of-type(4) {
  animation: draw 0.2s linear 1.3s forwards;
}

.cls-5:nth-of-type(5) {
  animation: draw 0.2s linear 1.6s forwards;
}

.cls-5:nth-of-type(6) {
  animation: draw 0.2s linear 1.9s forwards;
}

.cls-5:nth-of-type(7) {
  animation: draw 0.2s linear 2.2s forwards;
}

.cls-5:nth-of-type(8) {
  animation: draw 0.6s linear 2.4s forwards;
}

@keyframes draw {
  to {
    stroke-dashoffset: 0;
  }
}

@keyframes shift {
  0% {
    transform: translateX(0);
  }
  100% {
     transform: translateX(4.2%);
  }
}

    </style>
    <clipPath id="clippath">
      <rect class="cls-2" x="22.97" y="195.31" width="432.53" height="28.44" rx="5.29" ry="5.29"/>
    </clipPath>
  </defs>
  <g id="Ebene_1-2" data-name="Ebene 1-2">
    <g>
      <path class="cls-6" d="m382.37,12.62c-41.97.1-76.04,34.33-75.94,76.3.1,41.97,34.33,76.04,76.3,75.94,41.97-.1,76.04-34.33,75.94-76.3S424.34,12.52,382.37,12.62h0Zm.26,109.96c-18.66.04-33.88-15.1-33.92-33.76-.04-18.66,15.1-33.88,33.76-33.92,18.66-.04,33.88,15.1,33.92,33.76.04,18.66-15.1,33.88-33.76,33.92h0Z"/>
      <path class="cls-6" d="m189.54,19.99c-7.62-8.85-20.97-9.85-29.82-2.23l-63.84,54.96c-4.66,4.02-7.35,9.87-7.35,16.02s2.68,12.01,7.35,16.02l63.84,54.96c3.99,3.44,8.9,5.12,13.78,5.12,5.94,0,11.85-2.49,16.03-7.35,7.62-8.85,6.62-22.2-2.23-29.82l-45.23-38.94,45.23-38.94c8.85-7.62,9.85-20.97,2.23-29.82v.02Z"/>
      <path class="cls-6" d="m252.45,164.85c-12.57,0-22.77-10.19-22.77-22.77v-49.71c0-12.57,10.19-22.77,22.77-22.77s22.77,10.19,22.77,22.77v49.71c0,12.57-10.19,22.77-22.77,22.77Z"/>
      <path class="cls-6" d="m43.04,107.32c-12.57,0-22.77-10.19-22.77-22.77v-49.71c0-12.57,10.19-22.76,22.77-22.76s22.77,10.19,22.77,22.77v49.71c0,12.57-10.19,22.77-22.77,22.77h0Z"/>
    </g>
  </g>
  <path class="cls-5" d="m33.25,3.15c3.64,12.33,11.63,92.58,11.58,130.42"/>
  <path class="cls-5" d="m175.36,33.8c-51.26,22.05-131.61,43.51-142.82,45.53-3.36.61,153.07,61.96,176,73.42"/>
  <path class="cls-5" d="m250.57,85.01c-.88,26.02,4.24,100.29,4.24,100.29"/>
  <path class="cls-5" d="m249.34,45.73s-2.64-13.89-3.48-16.87"/>
  <path class="cls-5" d="m265.38,33.3c-3.31,1-18.3,8.22-22.27,10.7"/>
  <path class="cls-5" d="m237.06,33.91c3.27,2.19,17.8,8.16,17.8,8.16"/>
  <path class="cls-5" d="m242.66,50.32c.6-3.35,9.34-17.34,12.98-19.68"/>
  <path class="cls-5" d="m382.55,140.4c4.31-.25,12.69-3.66,14.07-4.22,1.85-.74,11.65-6.48,12.15-6.92.88-.77,11.13-7.71,13.64-10.22,4.63-4.61,6.71-11.45,7.19-14.12.87-4.84,2.15-22.08-.91-36.5-4.09-14.14-9.92-19.76-14.06-23.28-7.81-5.33-14.3-9.04-25.77-8.98-13.64-.22-23.1,5.68-25.85,7.28s-12.29,7.85-19.27,16.65c-5.24,6.61-10.2,13.67-12.46,20.23s-5.12,17.04,1.16,28.33c4.96,8.93,11.24,15.71,17.36,20.17,0,0,9.24,7.65,16.7,10.03s16.03,1.54,16.03,1.54Z"/>
  <g id="Loading">
    <g class="cls-1">
      <path class="cls-4" d="m30.52,196.94c-2.63,8.62-2.88,12.32-2.88,12.32l-1.32,5.39-.82,5.08"/>
      <path class="cls-4" d="m10.52,196.94c-2.63,8.62-2.88,12.32-2.88,12.32l-1.32,5.39-.82,5.08"/>
      <path class="cls-4" d="m50.52,196.94c-2.63,8.62-2.88,12.32-2.88,12.32l-1.32,5.39-.82,5.08"/>
      <path class="cls-4" d="m70.52,196.94c-2.63,8.62-2.88,12.32-2.88,12.32l-1.32,5.39-.82,5.08"/>
      <path class="cls-4" d="m90.52,196.94c-2.63,8.62-2.88,12.32-2.88,12.32l-1.32,5.39-.82,5.08"/>
      <path class="cls-4" d="m110.52,196.94c-2.63,8.62-2.88,12.32-2.88,12.32l-1.32,5.39-.82,5.08"/>
      <path class="cls-4" d="m130.52,196.94c-2.63,8.62-2.88,12.32-2.88,12.32l-1.32,5.39-.82,5.08"/>
      <path class="cls-4" d="m150.52,196.94c-2.63,8.62-2.88,12.32-2.88,12.32l-1.32,5.39-.82,5.08"/>
      <path class="cls-4" d="m170.52,196.94c-2.63,8.62-2.88,12.32-2.88,12.32l-1.32,5.39-.82,5.08"/>
      <path class="cls-4" d="m190.52,196.94c-2.63,8.62-2.88,12.32-2.88,12.32l-1.32,5.39-.82,5.08"/>
      <path class="cls-4" d="m210.52,196.94c-2.63,8.62-2.88,12.32-2.88,12.32l-1.32,5.39-.82,5.08"/>
      <path class="cls-4" d="m230.52,196.94c-2.63,8.62-2.88,12.32-2.88,12.32l-1.32,5.39-.82,5.08"/>
      <path class="cls-4" d="m250.52,196.94c-2.63,8.62-2.88,12.32-2.88,12.32l-1.32,5.39-.82,5.08"/>
      <path class="cls-4" d="m270.52,196.94c-2.63,8.62-2.88,12.32-2.88,12.32l-1.32,5.39-.82,5.08"/>
      <path class="cls-4" d="m290.52,196.94c-2.63,8.62-2.88,12.32-2.88,12.32l-1.32,5.39-.82,5.08"/>
      <path class="cls-4" d="m310.52,196.94c-2.63,8.62-2.88,12.32-2.88,12.32l-1.32,5.39-.82,5.08"/>
      <path class="cls-4" d="m330.52,196.94c-2.63,8.62-2.88,12.32-2.88,12.32l-1.32,5.39-.82,5.08"/>
      <path class="cls-4" d="m350.52,196.94c-2.63,8.62-2.88,12.32-2.88,12.32l-1.32,5.39-.82,5.08"/>
      <path class="cls-4" d="m370.52,196.94c-2.63,8.62-2.88,12.32-2.88,12.32l-1.32,5.39-.82,5.08"/>
      <path class="cls-4" d="m390.52,196.94c-2.63,8.62-2.88,12.32-2.88,12.32l-1.32,5.39-.82,5.08"/>
      <path class="cls-4" d="m410.52,196.94c-2.63,8.62-2.88,12.32-2.88,12.32l-1.32,5.39-.82,5.08"/>
      <path class="cls-4" d="m430.52,196.94c-2.63,8.62-2.88,12.32-2.88,12.32l-1.32,5.39-.82,5.08"/>
      <path class="cls-4" d="m450.52,196.94c-2.63,8.62-2.88,12.32-2.88,12.32l-1.32,5.39-.82,5.08"/>
      <path class="cls-4" d="m470.52,196.94c-2.63,8.62-2.88,12.32-2.88,12.32l-1.32,5.39-.82,5.08"/>
    </g>
  </g>
  <rect class="cls-3" x="22.97" y="195.31" width="432.53" height="25.58" rx="5.29" ry="5.29"/>
</svg>