<?xml version="1.0" encoding="utf-8"?>
<!-- Generator: Adobe Illustrator 27.5.0, SVG Export Plug-In . SVG Version: 6.00 Build 0)  -->
<svg version="1.1" id="Ebene_1" xmlns="http://www.w3.org/2000/svg" xmlns:xlink="http://www.w3.org/1999/xlink" x="0px" y="0px"
	 viewBox="0 0 300 100" style="enable-background:new 0 0 300 100;" xml:space="preserve">
<style type="text/css">
	.st0{fill-rule:evenodd;clip-rule:evenodd;fill:#FFFFFF;}
	.st1{fill:#00963E;}
	.st2{fill-rule:evenodd;clip-rule:evenodd;fill:#E3000B;}
	.st3{fill:#FFFFFF;}
	.st4{fill:#FFFFFF;stroke:#000000;stroke-width:0.25;stroke-miterlimit:10;}
	.st5{fill:#2B2B2A;}
	.st6{fill:#55FC27;}
</style>
<g>
	<path class="st3" d="M87.5,80.3c0-0.1-0.1-0.1-0.2-0.1h-0.6c-0.1,0-0.1,0-0.2,0.1l-1.3,4.6c0,0.1,0,0.1,0,0.2v0.4
		c0,0.1,0.1,0.1,0.1,0.1h0.4c0.1,0,0.1-0.1,0.1-0.1V85l0.3-1h1.5l0.2,1v0.5c0,0.1,0.1,0.1,0.1,0.1h0.4c0.1,0,0.1-0.1,0.1-0.1v-0.4
		c0-0.1,0-0.1,0-0.2L87.5,80.3L87.5,80.3L87.5,80.3z M87.7,83.4h-1.2l0.6-2.4L87.7,83.4L87.7,83.4z M92.7,80.2
		c-0.1,0-0.1,0.1-0.1,0.1v3.9l-2-3.9c0-0.1-0.1-0.1-0.2-0.1h-0.3c-0.1,0-0.1,0.1-0.1,0.1v5.2c0,0.1,0.1,0.1,0.1,0.1h0.4
		c0.1,0,0.1-0.1,0.1-0.1v-3.9l2,3.9c0,0.1,0.1,0.1,0.2,0.1h0.3c0.1,0,0.1-0.1,0.1-0.1v-5.2c0-0.1-0.1-0.1-0.1-0.1L92.7,80.2
		L92.7,80.2z M94.6,80.2c-0.1,0-0.1,0.1-0.1,0.1v5.2c0,0.1,0.1,0.1,0.1,0.1h1.5c1.1,0,1.7-0.6,1.7-1.6v-2.4c0-1-0.5-1.6-1.7-1.6
		L94.6,80.2L94.6,80.2z M95.2,80.8h1c0.6,0,1,0.3,1,0.9v2.4c0,0.6-0.3,0.9-1,0.9h-1V80.8L95.2,80.8L95.2,80.8z M104.1,80.3
		c0-0.1-0.1-0.1-0.2-0.1h-0.6c-0.1,0-0.1,0-0.2,0.1l-1.3,4.6c0,0.1,0,0.1,0,0.2v0.4c0,0.1,0.1,0.1,0.1,0.1h0.4
		c0.1,0,0.1-0.1,0.1-0.1V85l0.3-1h1.5l0.2,1v0.5c0,0.1,0.1,0.1,0.1,0.1h0.4c0.1,0,0.1-0.1,0.1-0.1v-0.4c0-0.1,0-0.1,0-0.2
		L104.1,80.3L104.1,80.3L104.1,80.3z M104.2,83.4H103l0.6-2.4L104.2,83.4L104.2,83.4z M109.8,81.7c0-1-0.5-1.5-1.7-1.5h-1.5
		c-0.1,0-0.1,0.1-0.1,0.1v5.2c0,0.1,0.1,0.1,0.1,0.1h0.4c0.1,0,0.1-0.1,0.1-0.1v-2.3h1l1,2.3c0,0.1,0.1,0.1,0.2,0.1h0.4
		c0.1,0,0.1-0.1,0.1-0.1v-0.1c0-0.1,0-0.1,0-0.2l-0.9-2.1C109.5,82.9,109.8,82.4,109.8,81.7L109.8,81.7L109.8,81.7z M107.2,82.6
		v-1.8h1c0.6,0,1,0.3,1,0.9v0.1c0,0.6-0.3,0.9-1,0.9L107.2,82.6L107.2,82.6z M114.4,80.3c0-0.1-0.1-0.1-0.1-0.1H111
		c-0.1,0-0.1,0.1-0.1,0.1v0.4c0,0.1,0.1,0.1,0.1,0.1h1.3v4.7c0,0.1,0.1,0.1,0.1,0.1h0.4c0.1,0,0.1-0.1,0.1-0.1v-4.7h1.3
		c0.1,0,0.1-0.1,0.1-0.1V80.3L114.4,80.3z M117.1,80.1c-1.1,0-1.6,0.6-1.6,1.5c0,1.8,2.6,1.4,2.6,2.7c0,0.5-0.3,0.8-1,0.8
		c-0.6,0-0.9-0.3-1-0.8c0-0.1-0.1-0.1-0.2-0.1h-0.4c-0.1,0-0.1,0.1-0.1,0.1c0.1,0.9,0.6,1.5,1.6,1.5c1.1,0,1.7-0.6,1.7-1.5
		c0-1.8-2.6-1.4-2.6-2.7c0-0.5,0.3-0.8,0.9-0.8c0.6,0,0.9,0.3,1,0.8c0,0.1,0.1,0.1,0.2,0.1h0.4c0.1,0,0.1-0.1,0.1-0.1
		C118.7,80.6,118.1,80.1,117.1,80.1L117.1,80.1z"/>
	<path class="st3" d="M87.5,70.3c0-0.1-0.1-0.1-0.2-0.1h-0.6c-0.1,0-0.1,0-0.2,0.1l-1.3,4.6c0,0.1,0,0.1,0,0.2v0.4
		c0,0.1,0.1,0.1,0.1,0.1h0.4c0.1,0,0.1-0.1,0.1-0.1V75l0.3-1h1.5l0.2,1v0.5c0,0.1,0.1,0.1,0.1,0.1h0.4c0.1,0,0.1-0.1,0.1-0.1v-0.4
		c0-0.1,0-0.1,0-0.2L87.5,70.3L87.5,70.3L87.5,70.3z M87.7,73.4h-1.2l0.6-2.4L87.7,73.4L87.7,73.4z M90.1,70.2
		c-0.1,0-0.1,0.1-0.1,0.1v5.2c0,0.1,0.1,0.1,0.1,0.1h0.4c0.1,0,0.1-0.1,0.1-0.1v-2.3h1c1.1,0,1.7-0.6,1.7-1.5c0-1-0.5-1.5-1.7-1.5
		L90.1,70.2L90.1,70.2z M90.6,70.8h1c0.6,0,1,0.3,1,0.9v0.1c0,0.6-0.3,0.9-1,0.9h-1V70.8C90.6,70.8,90.6,70.8,90.6,70.8z M94.6,70.2
		c-0.1,0-0.1,0.1-0.1,0.1v5.2c0,0.1,0.1,0.1,0.1,0.1H95c0.1,0,0.1-0.1,0.1-0.1v-2.3h1c1.1,0,1.7-0.6,1.7-1.5c0-1-0.5-1.5-1.7-1.5
		L94.6,70.2L94.6,70.2z M95.2,70.8h1c0.6,0,1,0.3,1,0.9v0.1c0,0.6-0.3,0.9-1,0.9h-1V70.8C95.2,70.8,95.2,70.8,95.2,70.8z M99.9,75
		v-4.7c0-0.1-0.1-0.1-0.1-0.1h-0.4c-0.1,0-0.1,0.1-0.1,0.1v5.2c0,0.1,0.1,0.1,0.1,0.1h2.7c0.1,0,0.1-0.1,0.1-0.1v-0.4
		c0-0.1-0.1-0.1-0.1-0.1C102,75,99.9,75,99.9,75z M105.4,70.8h0.9c0.1,0,0.1-0.1,0.1-0.1v-0.4c0-0.1-0.1-0.1-0.1-0.1h-2.5
		c-0.1,0-0.1,0.1-0.1,0.1v0.4c0,0.1,0.1,0.1,0.1,0.1h0.9V75h-0.9c-0.1,0-0.1,0.1-0.1,0.1v0.4c0,0.1,0.1,0.1,0.1,0.1h2.5
		c0.1,0,0.1-0.1,0.1-0.1v-0.4c0-0.1-0.1-0.1-0.1-0.1h-0.9V70.8L105.4,70.8z M108.8,70.8h2.2c0.1,0,0.1-0.1,0.1-0.1v-0.4
		c0-0.1-0.1-0.1-0.1-0.1h-2.7c-0.1,0-0.1,0.1-0.1,0.1v5.2c0,0.1,0.1,0.1,0.1,0.1h2.7c0.1,0,0.1-0.1,0.1-0.1v-0.4
		c0-0.1-0.1-0.1-0.1-0.1h-2.2v-1.8h1.7c0.1,0,0.1-0.1,0.1-0.1v-0.4c0-0.1-0.1-0.1-0.1-0.1h-1.7V70.8L108.8,70.8L108.8,70.8z
		 M112.6,70.2c-0.1,0-0.1,0.1-0.1,0.1v5.2c0,0.1,0.1,0.1,0.1,0.1h1.5c1.1,0,1.7-0.6,1.7-1.6v-2.4c0-1-0.5-1.6-1.7-1.6L112.6,70.2
		L112.6,70.2z M113.2,70.8h1c0.6,0,1,0.3,1,0.9v2.4c0,0.6-0.3,0.9-1,0.9h-1V70.8L113.2,70.8L113.2,70.8z M121.6,70.1
		c-1.1,0-1.6,0.6-1.6,1.5c0,1.8,2.6,1.4,2.6,2.7c0,0.5-0.3,0.8-1,0.8c-0.6,0-0.9-0.3-1-0.8c0-0.1-0.1-0.1-0.2-0.1h-0.4
		c-0.1,0-0.1,0.1-0.1,0.1c0.1,0.9,0.6,1.5,1.6,1.5c1.1,0,1.7-0.6,1.7-1.5c0-1.8-2.6-1.4-2.6-2.7c0-0.5,0.3-0.8,0.9-0.8
		c0.6,0,0.9,0.3,1,0.8c0,0.1,0.1,0.1,0.2,0.1h0.4c0.1,0,0.1-0.1,0.1-0.1C123.2,70.6,122.6,70.1,121.6,70.1L121.6,70.1L121.6,70.1z
		 M126.1,70.1c-1.1,0-1.6,0.6-1.6,1.6v2.5c0,1,0.5,1.6,1.6,1.6c1.1,0,1.7-0.6,1.7-1.6v-0.1c0-0.1-0.1-0.1-0.1-0.1h-0.4
		c-0.1,0-0.1,0.1-0.1,0.1v0.1c0,0.6-0.3,0.9-1,0.9s-1-0.3-1-0.9v-2.6c0-0.6,0.3-0.9,1-0.9s1,0.3,1,0.9v0.1c0,0.1,0.1,0.1,0.1,0.1
		h0.4c0.1,0,0.1-0.1,0.1-0.1v-0.1C127.8,70.7,127.3,70.1,126.1,70.1C126.1,70.1,126.1,70.1,126.1,70.1z M131,70.8h0.9
		c0.1,0,0.1-0.1,0.1-0.1v-0.4c0-0.1-0.1-0.1-0.1-0.1h-2.5c-0.1,0-0.1,0.1-0.1,0.1v0.4c0,0.1,0.1,0.1,0.1,0.1h0.9V75h-0.9
		c-0.1,0-0.1,0.1-0.1,0.1v0.4c0,0.1,0.1,0.1,0.1,0.1h2.5c0.1,0,0.1-0.1,0.1-0.1v-0.4c0-0.1-0.1-0.1-0.1-0.1H131V70.8L131,70.8z
		 M134.4,70.8h2.2c0.1,0,0.1-0.1,0.1-0.1v-0.4c0-0.1-0.1-0.1-0.1-0.1h-2.7c-0.1,0-0.1,0.1-0.1,0.1v5.2c0,0.1,0.1,0.1,0.1,0.1h2.7
		c0.1,0,0.1-0.1,0.1-0.1v-0.4c0-0.1-0.1-0.1-0.1-0.1h-2.2v-1.8h1.7c0.1,0,0.1-0.1,0.1-0.1v-0.4c0-0.1-0.1-0.1-0.1-0.1h-1.7V70.8
		L134.4,70.8L134.4,70.8z M140.8,70.2c-0.1,0-0.1,0.1-0.1,0.1v3.9l-2-3.9c0-0.1-0.1-0.1-0.2-0.1h-0.3c-0.1,0-0.1,0.1-0.1,0.1v5.2
		c0,0.1,0.1,0.1,0.1,0.1h0.4c0.1,0,0.1-0.1,0.1-0.1v-3.9l2,3.9c0,0.1,0.1,0.1,0.2,0.1h0.3c0.1,0,0.1-0.1,0.1-0.1v-5.2
		c0-0.1-0.1-0.1-0.1-0.1L140.8,70.2L140.8,70.2z M144.3,70.1c-1.1,0-1.6,0.6-1.6,1.6v2.5c0,1,0.5,1.6,1.6,1.6s1.7-0.6,1.7-1.6v-0.1
		c0-0.1-0.1-0.1-0.1-0.1h-0.4c-0.1,0-0.1,0.1-0.1,0.1v0.1c0,0.6-0.3,0.9-1,0.9s-1-0.3-1-0.9v-2.6c0-0.6,0.3-0.9,1-0.9s1,0.3,1,0.9
		v0.1c0,0.1,0.1,0.1,0.1,0.1h0.4c0.1,0,0.1-0.1,0.1-0.1v-0.1C145.9,70.7,145.4,70.1,144.3,70.1C144.3,70.1,144.3,70.1,144.3,70.1z
		 M148,70.8h2.2c0.1,0,0.1-0.1,0.1-0.1v-0.4c0-0.1-0.1-0.1-0.1-0.1h-2.7c-0.1,0-0.1,0.1-0.1,0.1v5.2c0,0.1,0.1,0.1,0.1,0.1h2.7
		c0.1,0,0.1-0.1,0.1-0.1v-0.4c0-0.1-0.1-0.1-0.1-0.1H148v-1.8h1.7c0.1,0,0.1-0.1,0.1-0.1v-0.4c0-0.1-0.1-0.1-0.1-0.1H148V70.8
		L148,70.8L148,70.8z M153.3,70.1c-1.1,0-1.6,0.6-1.6,1.5c0,1.8,2.6,1.4,2.6,2.7c0,0.5-0.3,0.8-1,0.8c-0.6,0-0.9-0.3-1-0.8
		c0-0.1-0.1-0.1-0.2-0.1h-0.4c-0.1,0-0.1,0.1-0.1,0.1c0.1,0.9,0.6,1.5,1.6,1.5c1.1,0,1.7-0.6,1.7-1.5c0-1.8-2.6-1.4-2.6-2.7
		c0-0.5,0.3-0.8,0.9-0.8c0.6,0,0.9,0.3,1,0.8c0,0.1,0.1,0.1,0.2,0.1h0.4c0.1,0,0.1-0.1,0.1-0.1C154.9,70.6,154.4,70.1,153.3,70.1
		L153.3,70.1L153.3,70.1z"/>
	<path class="st3" d="M88.7,60.3c0-0.1-0.1-0.1-0.1-0.1h-0.4c-0.1,0-0.1,0.1-0.1,0.1v3.9c0,0.6-0.3,0.9-1,0.9s-1-0.3-1-0.9v-3.9
		c0-0.1-0.1-0.1-0.1-0.1h-0.4c-0.1,0-0.1,0.1-0.1,0.1v3.9c0,1,0.5,1.6,1.6,1.6c1.1,0,1.7-0.6,1.7-1.6L88.7,60.3L88.7,60.3L88.7,60.3
		z M92.7,60.2c-0.1,0-0.1,0.1-0.1,0.1v3.9l-2-3.9c0-0.1-0.1-0.1-0.2-0.1h-0.3c-0.1,0-0.1,0.1-0.1,0.1v5.2c0,0.1,0.1,0.1,0.1,0.1h0.4
		c0.1,0,0.1-0.1,0.1-0.1v-3.9l2,3.9c0,0.1,0.1,0.1,0.2,0.1h0.3c0.1,0,0.1-0.1,0.1-0.1v-5.2c0-0.1-0.1-0.1-0.1-0.1L92.7,60.2
		L92.7,60.2z M96.5,60.8h0.9c0.1,0,0.1-0.1,0.1-0.1v-0.4c0-0.1-0.1-0.1-0.1-0.1h-2.5c-0.1,0-0.1,0.1-0.1,0.1v0.4
		c0,0.1,0.1,0.1,0.1,0.1h0.9V65h-0.9c-0.1,0-0.1,0.1-0.1,0.1v0.4c0,0.1,0.1,0.1,0.1,0.1h2.5c0.1,0,0.1-0.1,0.1-0.1v-0.4
		c0-0.1-0.1-0.1-0.1-0.1h-0.9V60.8L96.5,60.8z M101.8,60.2c-0.1,0-0.1,0.1-0.1,0.1v0.5l-1,4l-1-4v-0.5c0-0.1-0.1-0.1-0.1-0.1h-0.4
		c-0.1,0-0.1,0.1-0.1,0.1v0.4c0,0.1,0,0.1,0,0.2l1.3,4.6c0,0.1,0.1,0.1,0.2,0.1h0.6c0.1,0,0.1,0,0.2-0.1l1.2-4.6c0-0.1,0-0.1,0-0.2
		v-0.4c0-0.1-0.1-0.1-0.1-0.1H101.8L101.8,60.2z M104.4,60.8h2.2c0.1,0,0.1-0.1,0.1-0.1v-0.4c0-0.1-0.1-0.1-0.1-0.1h-2.7
		c-0.1,0-0.1,0.1-0.1,0.1v5.2c0,0.1,0.1,0.1,0.1,0.1h2.7c0.1,0,0.1-0.1,0.1-0.1v-0.4c0-0.1-0.1-0.1-0.1-0.1h-2.2v-1.8h1.7
		c0.1,0,0.1-0.1,0.1-0.1v-0.4c0-0.1-0.1-0.1-0.1-0.1h-1.7V60.8L104.4,60.8L104.4,60.8z M111.4,61.7c0-1-0.5-1.5-1.7-1.5h-1.5
		c-0.1,0-0.1,0.1-0.1,0.1v5.2c0,0.1,0.1,0.1,0.1,0.1h0.4c0.1,0,0.1-0.1,0.1-0.1v-2.3h1l1,2.3c0,0.1,0.1,0.1,0.2,0.1h0.4
		c0.1,0,0.1-0.1,0.1-0.1v-0.1c0-0.1,0-0.1,0-0.2l-0.9-2.1C111.1,62.9,111.4,62.4,111.4,61.7L111.4,61.7L111.4,61.7z M108.8,62.6
		v-1.8h1c0.6,0,1,0.3,1,0.9v0.1c0,0.6-0.3,0.9-1,0.9L108.8,62.6L108.8,62.6z M114.3,60.1c-1.1,0-1.6,0.6-1.6,1.5
		c0,1.8,2.6,1.4,2.6,2.7c0,0.5-0.3,0.8-1,0.8c-0.6,0-0.9-0.3-1-0.8c0-0.1-0.1-0.1-0.2-0.1h-0.4c-0.1,0-0.1,0.1-0.1,0.1
		c0.1,0.9,0.6,1.5,1.6,1.5c1.1,0,1.7-0.6,1.7-1.5c0-1.8-2.6-1.4-2.6-2.7c0-0.5,0.3-0.8,0.9-0.8c0.6,0,0.9,0.3,1,0.8
		c0,0.1,0.1,0.1,0.2,0.1h0.4c0.1,0,0.1-0.1,0.1-0.1C115.9,60.6,115.3,60.1,114.3,60.1L114.3,60.1L114.3,60.1z M119.1,60.8h0.9
		c0.1,0,0.1-0.1,0.1-0.1v-0.4c0-0.1-0.1-0.1-0.1-0.1h-2.5c-0.1,0-0.1,0.1-0.1,0.1v0.4c0,0.1,0.1,0.1,0.1,0.1h0.9V65h-0.9
		c-0.1,0-0.1,0.1-0.1,0.1v0.4c0,0.1,0.1,0.1,0.1,0.1h2.5c0.1,0,0.1-0.1,0.1-0.1v-0.4c0-0.1-0.1-0.1-0.1-0.1h-0.9V60.8L119.1,60.8z
		 M125,60.3c0-0.1-0.1-0.1-0.1-0.1h-3.2c-0.1,0-0.1,0.1-0.1,0.1v0.4c0,0.1,0.1,0.1,0.1,0.1h1.3v4.7c0,0.1,0.1,0.1,0.1,0.1h0.4
		c0.1,0,0.1-0.1,0.1-0.1v-4.7h1.3c0.1,0,0.1-0.1,0.1-0.1V60.3L125,60.3z M129.4,60.3c0-0.1-0.1-0.1-0.1-0.1h-0.4
		c-0.1,0-0.1,0.1-0.1,0.1v0.6l-1,1.9l-1-1.9v-0.6c0-0.1-0.1-0.1-0.1-0.1h-0.4c-0.1,0-0.1,0.1-0.1,0.1V61c0,0.1,0,0.1,0,0.2l1.3,2.3
		v2c0,0.1,0.1,0.1,0.1,0.1h0.4c0.1,0,0.1-0.1,0.1-0.1v-2l1.3-2.3c0,0,0-0.1,0-0.2L129.4,60.3L129.4,60.3L129.4,60.3z M135.2,60.1
		c-1.1,0-1.6,0.6-1.6,1.6v2.5c0,1,0.5,1.6,1.6,1.6s1.7-0.6,1.7-1.6v-2.5C136.8,60.7,136.3,60.1,135.2,60.1L135.2,60.1z M135.2,60.7
		c0.6,0,1,0.3,1,0.9v2.6c0,0.6-0.3,0.9-1,0.9s-1-0.3-1-0.9v-2.6C134.2,61,134.6,60.7,135.2,60.7L135.2,60.7z M138.9,60.8h2.2
		c0.1,0,0.1-0.1,0.1-0.1v-0.4c0-0.1-0.1-0.1-0.1-0.1h-2.7c-0.1,0-0.1,0.1-0.1,0.1v5.2c0,0.1,0.1,0.1,0.1,0.1h0.4
		c0.1,0,0.1-0.1,0.1-0.1v-2.3h1.7c0.1,0,0.1-0.1,0.1-0.1v-0.4c0-0.1-0.1-0.1-0.1-0.1h-1.7V60.8L138.9,60.8L138.9,60.8z"/>
	<path class="st3" d="M87.1,49.8c-1.2,0-1.8,0.6-1.8,1.7V54c0,1.1,0.6,1.7,1.8,1.7s1.8-0.6,1.8-1.7v-2.5
		C88.9,50.4,88.4,49.8,87.1,49.8L87.1,49.8z M87.1,50.7c0.4,0,0.7,0.2,0.7,0.6V54c0,0.5-0.3,0.6-0.7,0.6c-0.4,0-0.7-0.2-0.7-0.6
		v-2.7C86.4,50.9,86.7,50.7,87.1,50.7L87.1,50.7z M91.9,49.8c-1.2,0-1.8,0.6-1.8,1.7c0,1.8,2.5,1.6,2.5,2.7c0,0.4-0.2,0.6-0.7,0.6
		c-0.4,0-0.6-0.2-0.7-0.6c0-0.1-0.1-0.2-0.2-0.2h-0.7c-0.1,0-0.2,0.1-0.2,0.2c0.1,1,0.7,1.5,1.8,1.5c1.2,0,1.8-0.6,1.8-1.7
		c0-1.8-2.5-1.6-2.5-2.7c0-0.4,0.2-0.6,0.7-0.6c0.4,0,0.6,0.2,0.7,0.6c0,0.1,0.1,0.2,0.2,0.2h0.7c0.1,0,0.2-0.1,0.2-0.2
		C93.6,50.3,93,49.8,91.9,49.8L91.9,49.8z M98.3,50c0-0.1-0.1-0.2-0.2-0.2h-3.2c-0.1,0-0.2,0.1-0.2,0.2v0.6c0,0.1,0.1,0.2,0.2,0.2
		H96v4.5c0,0.1,0.1,0.2,0.2,0.2h0.7c0.1,0,0.2-0.1,0.2-0.2v-4.5h1.1c0.1,0,0.2-0.1,0.2-0.2L98.3,50L98.3,50L98.3,50z M102.2,49.8
		c-0.1,0-0.2,0.1-0.2,0.2l-0.2,3.2l-0.4-0.9c0-0.1-0.1-0.2-0.2-0.2h0c-0.1,0-0.2,0-0.2,0.2l-0.4,0.9l-0.2-3.2c0-0.1-0.1-0.2-0.2-0.2
		h-0.6c-0.1,0-0.2,0.1-0.2,0.2l0.3,5.3c0,0.1,0.1,0.2,0.2,0.2h0.5c0.1,0,0.2-0.1,0.2-0.2l0.7-1.8l0.7,1.8c0,0.1,0.1,0.2,0.2,0.2h0.5
		c0.1,0,0.2-0.1,0.2-0.2l0.3-5.3c0-0.1-0.1-0.2-0.2-0.2H102.2L102.2,49.8z M105.4,50.8h1.9c0.1,0,0.2-0.1,0.2-0.2V50
		c0-0.1-0.1-0.2-0.2-0.2h-2.8c-0.1,0-0.2,0.1-0.2,0.2v5.3c0,0.1,0.1,0.2,0.2,0.2h2.8c0.1,0,0.2-0.1,0.2-0.2v-0.6
		c0-0.1-0.1-0.2-0.2-0.2h-1.9v-1.4h1.5c0.1,0,0.2-0.1,0.2-0.2v-0.6c0-0.1-0.1-0.2-0.2-0.2h-1.5V50.8
		C105.4,50.8,105.4,50.8,105.4,50.8z M110.6,49.8c-1.2,0-1.8,0.6-1.8,1.7c0,1.8,2.5,1.6,2.5,2.7c0,0.4-0.2,0.6-0.7,0.6
		c-0.4,0-0.6-0.2-0.7-0.6c0-0.1-0.1-0.2-0.2-0.2H109c-0.1,0-0.2,0.1-0.2,0.2c0.1,1,0.7,1.5,1.8,1.5c1.2,0,1.8-0.6,1.8-1.7
		c0-1.8-2.5-1.6-2.5-2.7c0-0.4,0.2-0.6,0.7-0.6c0.4,0,0.6,0.2,0.7,0.6c0,0.1,0.1,0.2,0.2,0.2h0.7c0.1,0,0.2-0.1,0.2-0.2
		C112.3,50.3,111.7,49.8,110.6,49.8L110.6,49.8z M117.1,50c0-0.1-0.1-0.2-0.2-0.2h-3.2c-0.1,0-0.2,0.1-0.2,0.2v0.6
		c0,0.1,0.1,0.2,0.2,0.2h1.1v4.5c0,0.1,0.1,0.2,0.2,0.2h0.7c0.1,0,0.2-0.1,0.2-0.2v-4.5h1.1c0.1,0,0.2-0.1,0.2-0.2L117.1,50
		L117.1,50L117.1,50z M119.4,50.8h1.9c0.1,0,0.2-0.1,0.2-0.2V50c0-0.1-0.1-0.2-0.2-0.2h-2.8c-0.1,0-0.2,0.1-0.2,0.2v5.3
		c0,0.1,0.1,0.2,0.2,0.2h0.7c0.1,0,0.2-0.1,0.2-0.2v-2.2h1.5c0.1,0,0.2-0.1,0.2-0.2v-0.6c0-0.1-0.1-0.2-0.2-0.2h-1.5L119.4,50.8
		L119.4,50.8L119.4,50.8z M124.8,50c0-0.1-0.1-0.2-0.2-0.2h-1.1c-0.1,0-0.2,0.1-0.2,0.2l-1.1,4.6c0,0.1,0,0.2,0,0.2v0.5
		c0,0.1,0.1,0.2,0.2,0.2h0.7c0.1,0,0.2-0.1,0.2-0.2v-0.6l0.1-0.7h1.2l0.1,0.7v0.6c0,0.1,0.1,0.2,0.2,0.2h0.7c0.1,0,0.2-0.1,0.2-0.2
		v-0.5c0-0.1,0-0.1,0-0.2L124.8,50L124.8,50L124.8,50z M124.4,53.1h-0.8l0.4-2L124.4,53.1L124.4,53.1z M128.2,54.6V50
		c0-0.1-0.1-0.2-0.2-0.2h-0.7c-0.1,0-0.2,0.1-0.2,0.2v5.3c0,0.1,0.1,0.2,0.2,0.2h2.8c0.1,0,0.2-0.1,0.2-0.2v-0.6
		c0-0.1-0.1-0.2-0.2-0.2L128.2,54.6L128.2,54.6z M132.8,50.8h1.9c0.1,0,0.2-0.1,0.2-0.2V50c0-0.1-0.1-0.2-0.2-0.2h-2.8
		c-0.1,0-0.2,0.1-0.2,0.2v5.3c0,0.1,0.1,0.2,0.2,0.2h2.8c0.1,0,0.2-0.1,0.2-0.2v-0.6c0-0.1-0.1-0.2-0.2-0.2h-1.9v-1.4h1.5
		c0.1,0,0.2-0.1,0.2-0.2v-0.6c0-0.1-0.1-0.2-0.2-0.2h-1.5V50.8C132.8,50.8,132.8,50.8,132.8,50.8z M138.9,49.8
		c-0.1,0-0.2,0.1-0.2,0.2v3.2l-1.6-3.3c-0.1-0.1-0.1-0.1-0.2-0.1h-0.4c-0.1,0-0.2,0.1-0.2,0.2v5.3c0,0.1,0.1,0.2,0.2,0.2h0.7
		c0.1,0,0.2-0.1,0.2-0.2v-3.2l1.6,3.3c0.1,0.1,0.1,0.1,0.2,0.1h0.4c0.1,0,0.2-0.1,0.2-0.2V50c0-0.1-0.1-0.2-0.2-0.2H138.9z
		 M143.2,52.9c0-0.1-0.1-0.2-0.2-0.2h-1.7c-0.1,0-0.2,0.1-0.2,0.2v0.5c0,0.1,0.1,0.2,0.2,0.2h1.7c0.1,0,0.2-0.1,0.2-0.2V52.9
		L143.2,52.9z M145.6,54.6V50c0-0.1-0.1-0.2-0.2-0.2h-0.7c-0.1,0-0.2,0.1-0.2,0.2v5.3c0,0.1,0.1,0.2,0.2,0.2h2.8
		c0.1,0,0.2-0.1,0.2-0.2v-0.6c0-0.1-0.1-0.2-0.2-0.2L145.6,54.6L145.6,54.6z M151.3,50.8h0.8c0.1,0,0.2-0.1,0.2-0.2V50
		c0-0.1-0.1-0.2-0.2-0.2h-2.6c-0.1,0-0.2,0.1-0.2,0.2v0.6c0,0.1,0.1,0.2,0.2,0.2h0.8v3.8h-0.8c-0.1,0-0.2,0.1-0.2,0.2v0.6
		c0,0.1,0.1,0.2,0.2,0.2h2.6c0.1,0,0.2-0.1,0.2-0.2v-0.6c0-0.1-0.1-0.2-0.2-0.2h-0.8V50.8L151.3,50.8z M153.9,49.8
		c-0.1,0-0.2,0.1-0.2,0.2v5.3c0,0.1,0.1,0.2,0.2,0.2h0.7c0.1,0,0.2-0.1,0.2-0.2v-2.1h0.7c1.2,0,1.8-0.6,1.8-1.7
		c0-1.1-0.6-1.7-1.8-1.7H153.9z M154.7,50.8h0.7c0.4,0,0.7,0.2,0.7,0.6v0.2c0,0.5-0.3,0.6-0.7,0.6h-0.7V50.8L154.7,50.8L154.7,50.8z
		 M158.6,49.8c-0.1,0-0.2,0.1-0.2,0.2v5.3c0,0.1,0.1,0.2,0.2,0.2h0.7c0.1,0,0.2-0.1,0.2-0.2v-2.1h0.7c1.2,0,1.8-0.6,1.8-1.7
		c0-1.1-0.6-1.7-1.8-1.7H158.6z M159.5,50.8h0.7c0.4,0,0.7,0.2,0.7,0.6v0.2c0,0.5-0.3,0.6-0.7,0.6h-0.7V50.8L159.5,50.8L159.5,50.8z
		 M164.4,50.8h1.9c0.1,0,0.2-0.1,0.2-0.2V50c0-0.1-0.1-0.2-0.2-0.2h-2.8c-0.1,0-0.2,0.1-0.2,0.2v5.3c0,0.1,0.1,0.2,0.2,0.2h2.8
		c0.1,0,0.2-0.1,0.2-0.2v-0.6c0-0.1-0.1-0.2-0.2-0.2h-1.9v-1.4h1.5c0.1,0,0.2-0.1,0.2-0.2v-0.6c0-0.1-0.1-0.2-0.2-0.2h-1.5V50.8
		C164.4,50.8,164.4,50.8,164.4,50.8z"/>
	<path class="st3" d="M88.9,40.1c0-0.1-0.1-0.2-0.2-0.2h-3.2c-0.1,0-0.2,0.1-0.2,0.2v0.6c0,0.1,0.1,0.2,0.2,0.2h1.1v4.5
		c0,0.1,0.1,0.2,0.2,0.2h0.7c0.1,0,0.2-0.1,0.2-0.2v-4.5h1.1c0.1,0,0.2-0.1,0.2-0.2L88.9,40.1L88.9,40.1L88.9,40.1z M91.2,40.8h1.9
		c0.1,0,0.2-0.1,0.2-0.2v-0.6c0-0.1-0.1-0.2-0.2-0.2h-2.8c-0.1,0-0.2,0.1-0.2,0.2v5.3c0,0.1,0.1,0.2,0.2,0.2h2.8
		c0.1,0,0.2-0.1,0.2-0.2v-0.6c0-0.1-0.1-0.2-0.2-0.2h-1.9v-1.4h1.5c0.1,0,0.2-0.1,0.2-0.2v-0.6c0-0.1-0.1-0.2-0.2-0.2h-1.5V40.8
		L91.2,40.8z M96.4,39.8c-1.2,0-1.8,0.6-1.8,1.7V44c0,1.1,0.6,1.7,1.8,1.7s1.8-0.6,1.8-1.7v0c0-0.1-0.1-0.2-0.2-0.2h-0.7
		c-0.1,0-0.2,0.1-0.2,0.2v0.1c0,0.5-0.3,0.6-0.7,0.6s-0.7-0.2-0.7-0.6v-2.7c0-0.5,0.3-0.6,0.7-0.6s0.7,0.2,0.7,0.6v0.1
		c0,0.1,0.1,0.2,0.2,0.2H98c0.1,0,0.2-0.1,0.2-0.2v0C98.2,40.4,97.7,39.8,96.4,39.8C96.4,39.8,96.4,39.8,96.4,39.8z M102.1,39.9
		c-0.1,0-0.2,0.1-0.2,0.2v2.1h-1.4v-2.1c0-0.1-0.1-0.2-0.2-0.2h-0.7c-0.1,0-0.2,0.1-0.2,0.2v5.3c0,0.1,0.1,0.2,0.2,0.2h0.7
		c0.1,0,0.2-0.1,0.2-0.2v-2.2h1.4v2.2c0,0.1,0.1,0.2,0.2,0.2h0.7c0.1,0,0.2-0.1,0.2-0.2v-5.3c0-0.1-0.1-0.2-0.2-0.2
		C102.8,39.9,102.1,39.9,102.1,39.9z M106.8,39.9c-0.1,0-0.2,0.1-0.2,0.2v3.2L105,40c-0.1-0.1-0.1-0.1-0.2-0.1h-0.4
		c-0.1,0-0.2,0.1-0.2,0.2v5.3c0,0.1,0.1,0.2,0.2,0.2h0.7c0.1,0,0.2-0.1,0.2-0.2v-3.2l1.6,3.3c0.1,0.1,0.1,0.1,0.2,0.1h0.4
		c0.1,0,0.2-0.1,0.2-0.2v-5.3c0-0.1-0.1-0.2-0.2-0.2C107.5,39.9,106.8,39.9,106.8,39.9z M111.2,40.8h0.8c0.1,0,0.2-0.1,0.2-0.2v-0.6
		c0-0.1-0.1-0.2-0.2-0.2h-2.6c-0.1,0-0.2,0.1-0.2,0.2v0.6c0,0.1,0.1,0.2,0.2,0.2h0.8v3.8h-0.8c-0.1,0-0.2,0.1-0.2,0.2v0.6
		c0,0.1,0.1,0.2,0.2,0.2h2.6c0.1,0,0.2-0.1,0.2-0.2v-0.6c0-0.1-0.1-0.2-0.2-0.2h-0.8V40.8C111.2,40.8,111.2,40.8,111.2,40.8z
		 M115.4,39.8c-1.2,0-1.8,0.6-1.8,1.7c0,1.8,2.5,1.6,2.5,2.7c0,0.4-0.2,0.6-0.7,0.6c-0.4,0-0.6-0.2-0.7-0.6c0-0.1-0.1-0.2-0.2-0.2
		h-0.7c-0.1,0-0.2,0.1-0.2,0.2c0.1,1,0.7,1.5,1.8,1.5c1.2,0,1.8-0.6,1.8-1.7c0-1.8-2.5-1.6-2.5-2.7c0-0.4,0.2-0.6,0.7-0.6
		c0.4,0,0.6,0.2,0.7,0.6c0,0.1,0.1,0.2,0.2,0.2h0.7c0.1,0,0.2-0.1,0.2-0.2C117.1,40.3,116.4,39.8,115.4,39.8L115.4,39.8z
		 M120.1,39.8c-1.2,0-1.8,0.6-1.8,1.7V44c0,1.1,0.6,1.7,1.8,1.7c1.2,0,1.8-0.6,1.8-1.7v0c0-0.1-0.1-0.2-0.2-0.2H121
		c-0.1,0-0.2,0.1-0.2,0.2v0.1c0,0.5-0.3,0.6-0.7,0.6c-0.4,0-0.7-0.2-0.7-0.6v-2.7c0-0.5,0.3-0.6,0.7-0.6c0.4,0,0.7,0.2,0.7,0.6v0.1
		c0,0.1,0.1,0.2,0.2,0.2h0.7c0.1,0,0.2-0.1,0.2-0.2v0C121.9,40.4,121.3,39.8,120.1,39.8C120.1,39.8,120.1,39.8,120.1,39.8z
		 M125.7,39.9c-0.1,0-0.2,0.1-0.2,0.2v2.1h-1.4v-2.1c0-0.1-0.1-0.2-0.2-0.2h-0.7c-0.1,0-0.2,0.1-0.2,0.2v5.3c0,0.1,0.1,0.2,0.2,0.2
		h0.7c0.1,0,0.2-0.1,0.2-0.2v-2.2h1.4v2.2c0,0.1,0.1,0.2,0.2,0.2h0.7c0.1,0,0.2-0.1,0.2-0.2v-5.3c0-0.1-0.1-0.2-0.2-0.2
		C126.4,39.9,125.7,39.9,125.7,39.9z M129,40.8h1.9c0.1,0,0.2-0.1,0.2-0.2v-0.6c0-0.1-0.1-0.2-0.2-0.2h-2.8c-0.1,0-0.2,0.1-0.2,0.2
		v5.3c0,0.1,0.1,0.2,0.2,0.2h2.8c0.1,0,0.2-0.1,0.2-0.2v-0.6c0-0.1-0.1-0.2-0.2-0.2H129v-1.4h1.5c0.1,0,0.2-0.1,0.2-0.2v-0.6
		c0-0.1-0.1-0.2-0.2-0.2H129V40.8L129,40.8z M138.2,39.9c-0.1,0-0.2,0.1-0.2,0.2v2.1h-1.4v-2.1c0-0.1-0.1-0.2-0.2-0.2h-0.7
		c-0.1,0-0.2,0.1-0.2,0.2v5.3c0,0.1,0.1,0.2,0.2,0.2h0.7c0.1,0,0.2-0.1,0.2-0.2v-2.2h1.4v2.2c0,0.1,0.1,0.2,0.2,0.2h0.7
		c0.1,0,0.2-0.1,0.2-0.2v-5.3c0-0.1-0.1-0.2-0.2-0.2C138.9,39.9,138.2,39.9,138.2,39.9z M142.1,39.8c-1.2,0-1.8,0.6-1.8,1.7V44
		c0,1.1,0.6,1.7,1.8,1.7c1.2,0,1.8-0.6,1.8-1.7v-2.5C143.8,40.4,143.3,39.8,142.1,39.8L142.1,39.8z M142.1,40.8
		c0.4,0,0.7,0.2,0.7,0.6v2.7c0,0.5-0.3,0.6-0.7,0.6s-0.7-0.2-0.7-0.6v-2.7C141.3,40.9,141.6,40.8,142.1,40.8
		C142.1,40.8,142.1,40.8,142.1,40.8z M146.8,39.8c-1.2,0-1.8,0.6-1.8,1.7V44c0,1.1,0.6,1.7,1.8,1.7c1.2,0,1.8-0.6,1.8-1.7v0
		c0-0.1-0.1-0.2-0.2-0.2h-0.7c-0.1,0-0.2,0.1-0.2,0.2v0.1c0,0.5-0.3,0.6-0.7,0.6c-0.4,0-0.7-0.2-0.7-0.6v-2.7c0-0.5,0.3-0.6,0.7-0.6
		c0.4,0,0.7,0.2,0.7,0.6v0.1c0,0.1,0.1,0.2,0.2,0.2h0.7c0.1,0,0.2-0.1,0.2-0.2v0C148.6,40.4,148,39.8,146.8,39.8
		C146.8,39.8,146.8,39.8,146.8,39.8z M152.4,39.9c-0.1,0-0.2,0.1-0.2,0.2v2.1h-1.4v-2.1c0-0.1-0.1-0.2-0.2-0.2h-0.7
		c-0.1,0-0.2,0.1-0.2,0.2v5.3c0,0.1,0.1,0.2,0.2,0.2h0.7c0.1,0,0.2-0.1,0.2-0.2v-2.2h1.4v2.2c0,0.1,0.1,0.2,0.2,0.2h0.7
		c0.1,0,0.2-0.1,0.2-0.2v-5.3c0-0.1-0.1-0.2-0.2-0.2C153.1,39.9,152.4,39.9,152.4,39.9z M156.3,39.8c-1.2,0-1.8,0.6-1.8,1.7
		c0,1.8,2.5,1.6,2.5,2.7c0,0.4-0.2,0.6-0.7,0.6c-0.4,0-0.6-0.2-0.7-0.6c0-0.1-0.1-0.2-0.2-0.2h-0.7c-0.1,0-0.2,0.1-0.2,0.2
		c0.1,1,0.7,1.5,1.8,1.5c1.2,0,1.8-0.6,1.8-1.7c0-1.8-2.5-1.6-2.5-2.7c0-0.4,0.2-0.6,0.7-0.6c0.4,0,0.6,0.2,0.7,0.6
		c0,0.1,0.1,0.2,0.2,0.2h0.7c0.1,0,0.2-0.1,0.2-0.2C158,40.3,157.3,39.8,156.3,39.8L156.3,39.8z M161,39.8c-1.2,0-1.8,0.6-1.8,1.7
		V44c0,1.1,0.6,1.7,1.8,1.7c1.2,0,1.8-0.6,1.8-1.7v0c0-0.1-0.1-0.2-0.2-0.2h-0.7c-0.1,0-0.2,0.1-0.2,0.2v0.1c0,0.5-0.3,0.6-0.7,0.6
		s-0.7-0.2-0.7-0.6v-2.7c0-0.5,0.3-0.6,0.7-0.6s0.7,0.2,0.7,0.6v0.1c0,0.1,0.1,0.2,0.2,0.2h0.7c0.1,0,0.2-0.1,0.2-0.2v0
		C162.8,40.4,162.2,39.8,161,39.8C161,39.8,161,39.8,161,39.8z M166.6,39.9c-0.1,0-0.2,0.1-0.2,0.2v2.1H165v-2.1
		c0-0.1-0.1-0.2-0.2-0.2h-0.7c-0.1,0-0.2,0.1-0.2,0.2v5.3c0,0.1,0.1,0.2,0.2,0.2h0.7c0.1,0,0.2-0.1,0.2-0.2v-2.2h1.4v2.2
		c0,0.1,0.1,0.2,0.2,0.2h0.7c0.1,0,0.2-0.1,0.2-0.2v-5.3c0-0.1-0.1-0.2-0.2-0.2C167.3,39.9,166.6,39.9,166.6,39.9z M172.2,40.1
		c0-0.1-0.1-0.2-0.2-0.2h-0.7c-0.1,0-0.2,0.1-0.2,0.2v4c0,0.5-0.3,0.6-0.7,0.6c-0.4,0-0.7-0.2-0.7-0.6v-4c0-0.1-0.1-0.2-0.2-0.2
		h-0.7c-0.1,0-0.2,0.1-0.2,0.2V44c0,1.1,0.6,1.7,1.8,1.7s1.8-0.6,1.8-1.7L172.2,40.1L172.2,40.1L172.2,40.1z M174.7,44.6v-4.5
		c0-0.1-0.1-0.2-0.2-0.2h-0.7c-0.1,0-0.2,0.1-0.2,0.2v5.3c0,0.1,0.1,0.2,0.2,0.2h2.8c0.1,0,0.2-0.1,0.2-0.2v-0.6
		c0-0.1-0.1-0.2-0.2-0.2L174.7,44.6L174.7,44.6z M179.2,40.8h1.9c0.1,0,0.2-0.1,0.2-0.2v-0.6c0-0.1-0.1-0.2-0.2-0.2h-2.8
		c-0.1,0-0.2,0.1-0.2,0.2v5.3c0,0.1,0.1,0.2,0.2,0.2h2.8c0.1,0,0.2-0.1,0.2-0.2v-0.6c0-0.1-0.1-0.2-0.2-0.2h-1.9v-1.4h1.5
		c0.1,0,0.2-0.1,0.2-0.2v-0.6c0-0.1-0.1-0.2-0.2-0.2h-1.5V40.8C179.2,40.8,179.2,40.8,179.2,40.8z"/>
	<path class="st3" d="M15.9,30.9c0-0.6-0.3-0.9-0.9-0.9H0.9c-0.6,0-0.9,0.3-0.9,0.9v2.6c0,0.6,0.3,0.9,0.9,0.9h4.7v20.3
		c0,0.6,0.3,0.9,0.9,0.9h3c0.6,0,0.9-0.3,0.9-0.9V34.4h4.7c0.6,0,0.9-0.3,0.9-0.9L15.9,30.9L15.9,30.9L15.9,30.9z M31.2,30.1
		c-0.6,0-0.9,0.3-0.9,0.9v9.5h-6.4v-9.5c0-0.6-0.3-0.9-0.9-0.9h-3c-0.6,0-0.9,0.3-0.9,0.9v23.8c0,0.6,0.3,0.9,0.9,0.9h3
		c0.6,0,0.9-0.3,0.9-0.9v-9.9h6.4v9.9c0,0.6,0.3,0.9,0.9,0.9h3c0.6,0,0.9-0.3,0.9-0.9V30.9c0-0.6-0.3-0.9-0.9-0.9
		C34.2,30.1,31.2,30.1,31.2,30.1z"/>
	<path class="st3" d="M27.1,59.7c-5.4,0-8,2.8-8,7.6v11.2c0,4.7,2.6,7.6,8,7.6s8-2.8,8-7.6V67.3C35.1,62.6,32.5,59.7,27.1,59.7
		C27.1,59.7,27.1,59.7,27.1,59.7z M27.1,64.1c2,0,3.2,0.8,3.2,2.8v12c0,2-1.2,2.8-3.2,2.8s-3.2-0.8-3.2-2.8v-12
		C23.9,64.9,25.2,64.1,27.1,64.1C27.1,64.1,27.1,64.1,27.1,64.1z M53.1,60.1c-0.6,0-0.9,0.3-0.9,0.8l-1.1,14.4l-1.8-4.2
		c-0.2-0.5-0.5-0.7-1-0.7h-0.2c-0.5,0-0.8,0.2-1,0.7l-1.8,4.2l-1-14.3c0-0.6-0.4-0.8-0.9-0.8h-2.8c-0.6,0-0.9,0.3-0.9,0.9l1.5,23.8
		c0,0.6,0.3,0.8,0.9,0.8h2.1c0.5,0,0.8-0.2,1-0.7l3-8.1l3,8.1c0.2,0.5,0.5,0.7,1,0.7h2.1c0.6,0,0.8-0.3,0.9-0.8l1.5-23.8
		c0-0.6-0.3-0.9-0.9-0.9H53.1L53.1,60.1L53.1,60.1z M67,81.3V61c0-0.6-0.3-0.9-0.9-0.9h-3c-0.6,0-0.9,0.3-0.9,0.9v23.8
		c0,0.6,0.3,0.9,0.9,0.9h12.6c0.6,0,0.9-0.3,0.9-0.9v-2.6c0-0.6-0.3-0.9-0.9-0.9L67,81.3L67,81.3z"/>
	<path class="st3" d="M45,31.5c-2.2,0-4.3-1.5-4.9-3.8c-0.7-2.7,0.9-5.5,3.6-6.2l27.8-7.5c2.7-0.7,5.5,0.9,6.2,3.6
		c0.7,2.7-0.9,5.5-3.6,6.2l-27.8,7.5C45.9,31.5,45.4,31.5,45,31.5"/>
	<path class="st3" d="M65.4,51.9c-1.3,0-2.6-0.5-3.6-1.5L41.4,30c-2-2-2-5.2,0-7.2s5.2-2,7.2,0l20.4,20.4c2,2,2,5.2,0,7.2
		C67.9,51.4,66.6,51.9,65.4,51.9"/>
	<path class="st3" d="M65.4,51.9c-0.4,0-0.9-0.1-1.3-0.2c-2.7-0.7-4.3-3.5-3.6-6.2l7.5-27.8c0.7-2.7,3.5-4.3,6.2-3.6
		c2.7,0.7,4.3,3.5,3.6,6.2l-7.5,27.8C69.6,50.4,67.6,51.9,65.4,51.9"/>
	<path class="st4" d="M76.4,15.4c-1.2-1.2-3.1-1.8-4.9-1.3c0,0,0,0,0.1,0c-1.7,0.4-3.1,1.8-3.6,3.6l-2.3,8.5l8.5-2.3
		c1.8-0.5,3.1-1.9,3.6-3.6c0,0,0,0,0,0.1C78.2,18.5,77.6,16.7,76.4,15.4L76.4,15.4L76.4,15.4z"/>
	<path class="st4" d="M40.1,25.2c-0.5,1.7,0,3.6,1.3,4.9c0,0,0,0,0,0c1.2,1.3,3.1,1.8,4.9,1.3l8.5-2.3l-6.2-6.2
		c-1.3-1.3-3.2-1.8-4.9-1.3c0,0,0,0,0.1,0C41.8,22.1,40.5,23.5,40.1,25.2"/>
	<path class="st4" d="M66.7,51.7c1.7-0.5,3.1-1.8,3.6-3.6c0,0,0,0,0,0.1c0.5-1.7,0-3.6-1.3-4.9l-6.2-6.2l-2.3,8.5
		c-0.5,1.8,0.1,3.7,1.3,4.9c0,0,0,0,0,0C63.1,51.7,65,52.2,66.7,51.7"/>
</g>
</svg>
