<?xml version="1.0" encoding="utf-8"?>
<!-- Generator: Adobe Illustrator 27.5.0, SVG Export Plug-In . SVG Version: 6.00 Build 0)  -->
<svg version="1.1" id="Ebene_1" xmlns="http://www.w3.org/2000/svg" xmlns:xlink="http://www.w3.org/1999/xlink" x="0px" y="0px"
	 viewBox="0 0 300 100" style="enable-background:new 0 0 300 100;" xml:space="preserve">
<style type="text/css">
	.st0{fill-rule:evenodd;clip-rule:evenodd;fill:#FFFFFF;}
	.st1{fill:#00963E;}
	.st2{fill-rule:evenodd;clip-rule:evenodd;fill:#E3000B;}
	.st3{fill:#FFFFFF;}
	.st4{fill:#FFFFFF;stroke:#000000;stroke-width:0.25;stroke-miterlimit:10;}
	.st5{fill:#2B2B2A;}
	.st6{fill:#55FC27;}
</style>
<g>
	<g id="NRW_W_CMYK">
		<path id="Weiß" class="st0" d="M271.3,79.1c-15.2,0-27.5-12.4-27.5-27.7V20.9h55.1v30.5C298.8,66.7,286.5,79.1,271.3,79.1
			L271.3,79.1z"/>
		<path id="Schwarz" class="st0" d="M298.1,51.4c0,14.9-12,26.9-26.8,26.9c-14.8,0-26.8-12.1-26.8-26.9V21.6h53.6V51.4L298.1,51.4z
			 M299.1,20.6v30.8c0,15.4-12.5,28-27.8,28c-15.4,0-27.8-12.5-27.8-28V20.6H299.1L299.1,20.6z"/>
		<path id="Grün" class="st1" d="M270.6,32.9v18.5c0,9.3-4.9,17.5-12.3,21.9c-3.8-2.3-6.9-5.5-9.1-9.4c1.3-1.4,2.7-2.8,3.7-4.5
			c2.1-3.4,2.4-7.7,4.9-10.8c2.3-2.9,6.3-3.7,8.5-6.6C268.3,39.3,268.9,35.9,270.6,32.9L270.6,32.9z M245.9,23h21
			c-0.8,0.9-1.5,1.7-2.2,2.7c-2.6,3.5-2.4,8.5-5.1,11.9c-2.3,3-6.3,3.8-8.5,6.6c-2.5,3.2-2.6,7.5-5,10.8c-0.2-1.2-0.2-2.4-0.2-3.6
			L245.9,23L245.9,23z M271.3,72.6c-0.9,0-1.7-0.8-1.7-1.7s0.8-1.7,1.7-1.7c0.9,0,1.7,0.8,1.7,1.7S272.2,72.6,271.3,72.6z
			 M276.8,71.6c0.3,0.4,0.6,0.8,0.7,1.3c-0.4,0.3-0.8,0.6-1.3,0.7c0.1-0.4,0-0.8-0.2-1.2C276.3,72.3,276.6,72,276.8,71.6L276.8,71.6
			z M273.7,65.9c0.5-0.2,1-0.3,1.5-0.2c0.2,0.5,0.3,1,0.2,1.5c-0.4-0.2-0.8-0.3-1.2-0.2C274.1,66.5,273.9,66.2,273.7,65.9
			L273.7,65.9z M267.3,67.1c-0.1-0.5,0-1,0.2-1.5c0.5-0.1,1,0,1.5,0.2c-0.3,0.3-0.5,0.6-0.5,1.1C268,66.9,267.6,66.9,267.3,67.1
			L267.3,67.1z M266.5,73.6c-0.5-0.1-0.9-0.3-1.3-0.7c0.1-0.5,0.3-0.9,0.7-1.3c0.2,0.4,0.5,0.7,0.8,0.8
			C266.4,72.8,266.4,73.2,266.5,73.6L266.5,73.6z M272.3,76.3c-0.2,0.4-0.6,0.8-1,1c-0.4-0.2-0.8-0.6-1-1c0.4-0.1,0.8-0.2,1-0.6
			C271.6,76.1,271.9,76.3,272.3,76.3z"/>
		<path id="Rot" class="st2" d="M274,70.9c0,1.5-1.2,2.7-2.7,2.7c-1.5,0-2.7-1.2-2.7-2.7s1.2-2.7,2.7-2.7
			C272.8,68.2,274,69.4,274,70.9z M268.2,75.1c-1.1-0.8-1.5-2.2-0.5-2.8c0.1-0.2,0-0.4-0.2-0.5c-1.2,0.2-1.7-1.2-1.3-2.5
			c0.4-1.3,1.6-2.2,2.5-1.3c0.2,0,0.4-0.1,0.4-0.3c-0.6-1.1,0.6-2,2-2c1.4,0,2.6,0.9,2,2c0.1,0.2,0.2,0.3,0.4,0.3
			c0.9-0.9,2.1,0,2.5,1.3c0.4,1.3-0.1,2.7-1.3,2.5c-0.2,0.1-0.2,0.3-0.2,0.5c1.1,0.5,0.7,2-0.5,2.8c-1.1,0.8-2.6,0.8-2.8-0.4
			c-0.2-0.1-0.4-0.1-0.6,0C270.8,75.9,269.4,76,268.2,75.1L268.2,75.1z M279,56.8h4.8c0-2-1.5-3.3-1.5-5.6c0-1.5,0.6-2.5,2.2-2.9
			c0.4,0.4,0.8,0.8,1,1.4c0,2,0.3,3.4,0.8,4.4c0,0-1.1,0.8-1.1,3.9c0,0-4.4-0.2-4.9,0.4h-0.7v1c-1.1,0.3-2.1,0.4-2.8,0
			c0-0.9,0.9-1.7,0.9-1.7c0.1,0,0.2,0,0.3,0c0.5,0,0.8-0.4,0.8-0.8C279,56.9,279,56.9,279,56.8L279,56.8z M273.7,41.2
			c-0.5-0.5-0.5-1.6-0.5-1.8c0.1,0,0.1-0.1,0.2-0.2c0.3-0.3,0.3-0.9,0-1.2c-0.1-0.1-0.1-0.1-0.2-0.1c0.5-1.4,1.4-2.1,1.7-4.1h1.4
			l3.4,2.7c-0.6,0.7-1.1,1.5-1.3,2.5l-1.8-3.4c-1.2,0-1.9,1-1.3,2.4l-0.4,0.4l0.7,0.7C275.1,40.2,274.4,40.9,273.7,41.2L273.7,41.2z
			 M287.7,65.2c0-0.9,0.8-1.6,0.9-1.7c0,0,0.1,0,0.1,0c0.5,0,0.8-0.4,0.8-0.8c0-0.1,0-0.2-0.1-0.3c2.3-4.1,1.7-4.7-1.9-7.6
			c-1-0.8-1.3-3.1-1.3-5.2c-1.4-3.3-5.2-2.9-6.6-6.1l1.7,0.1c0.9,0.1,1.5-0.5,1.7-0.9c0.3-0.4,0-0.9-0.4-0.8c-0.2,0.5-0.7,1-1.3,0.9
			l-4.1-0.2c-0.8,0.8-0.6,2,0.8,2.6v0.6h1c0.3,1.1,0.4,2.1,0,2.8c-0.8,0-1.7-0.9-1.7-0.9c0-0.1,0-0.2,0-0.3c0-0.5-0.4-0.8-0.8-0.8
			c-0.1,0-0.1,0-0.2,0c-0.5-0.7-0.4-2.3-1.6-4.1l0.9-1.1l3.4-1.1c0.1-3.9,4.6-4.8,5.3-7.7c1,0,1.6-0.3,2-1.2
			c0.1-0.2,0.1-0.8-0.5-0.7c-0.3,0.9-0.8,1.1-1.4,1.1c-1.6,0-2.9-0.3-3.2,0.5c-0.4,1.2-2.1,0.5-2.1,0.5l0.4-0.3c0,0,0.1,0,0.1,0
			c0.3,0,0.6-0.2,0.6-0.4c0-0.2-0.3-0.4-0.6-0.4s-0.6,0.2-0.6,0.4c0,0,0,0,0,0l-0.4,0.3c-0.5,0-0.6-0.4-0.6-0.6
			c0.2,0,0.3-0.2,0.3-0.4c0-0.2-0.1-0.4-0.3-0.4c0-0.2,0.1-0.5,0.5-0.8l2.9-2.3c0.4-0.3,1.3-0.8,1.6-1c-0.1-0.6,0.2-1.5,0.2-2
			c0,0,0.9,0.4,1.2,1.2c0.3,0.6,0.1,1,0,1.3c0.2,0.2,0.8,0.2,0.9-0.4c0-0.2,0-0.5-0.1-0.9c1.1,0.1,2.7,0.5,5.1,0.3
			c-0.5,0.6-1.1,1-1.8,1.3c1.2,0.3,2.7,0.9,3.5,2.1c-0.6,0.3-1.2,0.5-1.9,0.6c1.2,1,1.6,2.5,2.6,3.1c-1.3,0.4-2.4,0.3-3.2,0
			c0.4,0.8,1,1.8,1.9,2.2c-1.2,0.5-2.3,0.8-3.2,1c0.3,0.5,0.7,1,1.2,1.4c-0.9,0-1.6,0.3-2.1,0.5c-0.1,1.1-0.4,3.3,2.3,6.1
			c3.6,2.7,4.5,4.8,1.7,8.4c0,1.9,0.3,2.6,1.3,4.5c-0.1,0.2-0.5,1.1-0.9,2.2c-0.4,1.2-0.8,2.5-0.8,3.7c0,0-0.6,0-0.6,0.6v1
			C289.5,65.5,288.4,65.5,287.7,65.2L287.7,65.2z M281.5,29.1c0.4,0.6,1.4,0,1.4,0S281.7,28,281.5,29.1z M295.7,39.4
			c0,1.7-1.5,2.4-1.5,3.6c0,1.5,1.5,2.2,1.5,3.6s-1.2,1.7-1.9,1.5c0,0,0.5-0.1,0.5-0.7c0-1.7-3.7-1.6-3.7-4.4c0-1.4,1-2.6,1-3.4
			c0-0.4-0.3-1-0.9-1.2c0.8-0.5,2-0.2,2.4,0.6c0.3-0.7,0.5-1.7,0.2-2.7C294.9,37,295.7,38.2,295.7,39.4L295.7,39.4L295.7,39.4z
			 M272,23h24.7v28.4c0,9.3-4.9,17.5-12.3,21.9C277,68.9,272,60.7,272,51.4L272,23L272,23z"/>
	</g>
	<g id="Ebene_4">
		<g>
			<path class="st3" d="M0.6,22.3h2.1L5.3,30h0l2.5-7.6H10v9.6H8.4v-7.2h0c-0.1,0.7-0.3,1.3-0.6,2l-1.9,5.2H4.5l-1.9-5.2
				c-0.2-0.7-0.4-1.1-0.6-2h0v7.2H0.6V22.3z"/>
			<path class="st3" d="M12,22.5h1.6v1.4H12V22.5z M12,25.1h1.6v6.9H12V25.1z"/>
			<path class="st3" d="M15.5,25.1h1.6V26c0.4-0.5,1.3-1.1,2.5-1.1c1.2,0,2,0.7,2,2.1v4.9H20v-4.5c0-0.8-0.3-1.1-1-1.1
				c-0.7,0-1.3,0.4-1.9,0.9v4.8h-1.6L15.5,25.1L15.5,25.1z"/>
			<path class="st3" d="M23.3,22.5H25v1.4h-1.6V22.5z M23.3,25.1H25v6.9h-1.6V25.1z"/>
			<path class="st3" d="M26.3,31l0.9-1c0.5,0.4,1.3,0.8,2.2,0.8c0.9,0,1.4-0.2,1.4-0.8c0-0.6-0.7-0.7-1.5-0.9
				c-1.2-0.3-2.6-0.6-2.6-2.2c0-1.2,1-2,2.6-2c1.3,0,2.1,0.4,2.8,1l-0.8,1c-0.5-0.4-1.3-0.8-1.9-0.8c-0.9,0-1.2,0.3-1.2,0.7
				c0,0.6,0.7,0.7,1.5,0.9c1.2,0.3,2.6,0.6,2.6,2.2c0,1.5-1.3,2.1-2.9,2.1C28.1,32.1,26.9,31.6,26.3,31L26.3,31z"/>
			<path class="st3" d="M34,30.1v-3.8h-1.2v-1.3H34v-2.4h1.6v2.4h1.8v1.3h-1.8v3.4c0,0.7,0.2,1,1,1c0.2,0,0.5,0,0.7-0.1v1.3
				c-0.2,0-0.8,0.1-1.2,0.1C34.4,32,34,31.4,34,30.1L34,30.1z"/>
			<path class="st3" d="M38.2,28.5c0-2.6,1.9-3.6,3.3-3.6c1.5,0,3,0.9,3,3.7V29h-4.7c0.1,1.2,0.8,1.8,1.8,1.8c0.9,0,1.4-0.3,1.9-0.8
				l0.8,0.8c-0.7,0.8-1.7,1.2-2.9,1.2C39.8,32.1,38.2,31,38.2,28.5z M43.1,27.8c-0.1-1-0.6-1.6-1.6-1.6c-0.8,0-1.5,0.4-1.6,1.6H43.1
				L43.1,27.8z"/>
			<path class="st3" d="M45.9,25.1h1.6v1.1h0c0.4-0.7,1.2-1.3,2.5-1.3h0.1l-0.1,1.5c-0.1,0-0.3,0-0.4,0c-1,0-1.7,0.5-2.1,1.2v4.4
				h-1.6L45.9,25.1L45.9,25.1z"/>
			<path class="st3" d="M51.3,22.5h1.6v1.4h-1.6V22.5z M51.3,25.1h1.6v6.9h-1.6V25.1z"/>
			<path class="st3" d="M54.7,30v-4.9h1.6v4.6c0,0.8,0.3,1.1,1,1.1s1.3-0.4,1.9-0.9v-4.8h1.6v6.9h-1.6V31c-0.4,0.5-1.3,1.1-2.5,1.1
				C55.4,32.1,54.7,31.4,54.7,30z"/>
			<path class="st3" d="M62.6,25.1h1.6V26c0.5-0.6,1.3-1.1,2.4-1.1c1.2,0,1.6,0.5,1.9,1.1c0.5-0.6,1.4-1.1,2.4-1.1
				c1.4,0,2,0.8,2,2.1v4.9h-1.6v-4.5c0-0.8-0.2-1.1-1-1.1c-0.6,0-1.2,0.4-1.8,0.9v4.8h-1.6v-4.5c0-0.8-0.2-1.1-1-1.1
				c-0.6,0-1.2,0.4-1.8,0.9v4.8h-1.6C62.6,31.9,62.6,25.1,62.6,25.1z"/>
			<path class="st3" d="M78.4,26.3h-1.2v-1.3h1.2v-0.7c0-1.2,0.5-2,2.2-2c0.3,0,0.8,0.1,0.9,0.1v1.2c-0.1,0-0.4-0.1-0.5-0.1
				c-0.6,0-1,0.2-1,0.9v0.6h1.5v1.3H80v5.6h-1.6C78.4,31.9,78.4,26.3,78.4,26.3z"/>
			<path class="st3" d="M82.6,30v-4.9h1.6v4.6c0,0.8,0.3,1.1,1,1.1s1.3-0.4,1.9-0.9v-4.8h1.6v6.9h-1.6V31c-0.4,0.5-1.3,1.1-2.5,1.1
				C83.3,32.1,82.6,31.4,82.6,30L82.6,30z M83.6,22.8h1.5v1.6h-1.5V22.8z M86.2,22.8h1.5v1.6h-1.5V22.8z"/>
			<path class="st3" d="M90.5,25.1h1.6v1.1h0c0.4-0.7,1.2-1.3,2.5-1.3h0.1l-0.1,1.5c-0.1,0-0.3,0-0.4,0c-1,0-1.7,0.5-2.1,1.2v4.4
				h-1.6L90.5,25.1L90.5,25.1z"/>
			<path class="st3" d="M98.2,22.3h1.6l1.2,5c0.2,0.8,0.4,1.5,0.5,2.2h0c0.1-0.7,0.3-1.5,0.5-2.2l1.2-5h1.6l1.2,5
				c0.2,0.8,0.4,1.4,0.5,2.2h0c0.1-0.8,0.3-1.3,0.5-2.2l1.2-5h1.5l-2.5,9.6h-1.4l-1.7-7.3h0l-1.8,7.3h-1.4L98.2,22.3L98.2,22.3z"/>
			<path class="st3" d="M110.8,22.5h1.6v1.4h-1.6V22.5z M110.9,25.1h1.6v6.9h-1.6V25.1z"/>
			<path class="st3" d="M114.3,25.1h1.6v1.1h0c0.4-0.7,1.2-1.3,2.5-1.3h0.1l-0.1,1.5c-0.1,0-0.3,0-0.4,0c-1,0-1.7,0.5-2.1,1.2v4.4
				h-1.6L114.3,25.1L114.3,25.1z"/>
			<path class="st3" d="M120.2,30.1v-3.8H119v-1.3h1.2v-2.4h1.6v2.4h1.8v1.3h-1.8v3.4c0,0.7,0.2,1,1,1c0.2,0,0.5,0,0.7-0.1v1.3
				c-0.2,0-0.8,0.1-1.2,0.1C120.6,32,120.2,31.4,120.2,30.1L120.2,30.1z"/>
			<path class="st3" d="M124.3,31l0.9-1c0.5,0.4,1.3,0.8,2.2,0.8c0.9,0,1.4-0.2,1.4-0.8c0-0.6-0.7-0.7-1.5-0.9
				c-1.2-0.3-2.6-0.6-2.6-2.2c0-1.2,1-2,2.6-2c1.3,0,2.1,0.4,2.8,1l-0.8,1c-0.5-0.4-1.3-0.8-1.9-0.8c-0.9,0-1.2,0.3-1.2,0.7
				c0,0.6,0.7,0.7,1.5,0.9c1.2,0.3,2.6,0.6,2.6,2.2c0,1.5-1.3,2.1-2.9,2.1C126.1,32.1,124.9,31.6,124.3,31L124.3,31z"/>
			<path class="st3" d="M131.1,28.5c0-2.6,1.8-3.6,3.3-3.6c1.7,0,2.4,0.9,2.9,2l-1.3,0.5c-0.3-0.8-0.8-1.2-1.5-1.2
				c-0.9,0-1.7,0.6-1.7,2.2c0,1.5,0.6,2.3,1.6,2.3c0.7,0,1.2-0.2,1.6-1.2l1.3,0.5c-0.5,1.1-1.3,2-3,2
				C132.7,32.1,131.1,31,131.1,28.5L131.1,28.5z"/>
			<path class="st3" d="M138.6,22.3h1.6V26c0.4-0.5,1.3-1.1,2.5-1.1c1.2,0,2,0.7,2,2.1v4.9h-1.6v-4.5c0-0.8-0.3-1.1-1-1.1
				s-1.3,0.4-1.9,0.9v4.8h-1.6L138.6,22.3L138.6,22.3z"/>
			<path class="st3" d="M145.9,30.3c0-1.5,1.3-2.5,4.5-2.9v-0.2c0-0.7-0.4-1-1.1-1c-1,0-1.7,0.5-2.3,0.9l-0.8-1
				c0.7-0.7,1.9-1.2,3.3-1.2c1.8,0,2.5,0.9,2.5,2.5v2.8c0,0.8,0.1,1.3,0.2,1.7h-1.6c-0.1-0.3-0.2-0.5-0.2-0.9c-0.7,0.7-1.5,1-2.5,1
				C146.8,32,145.9,31.4,145.9,30.3z M150.4,30v-1.5c-1.9,0.3-2.9,0.7-2.9,1.5c0,0.5,0.4,0.8,1,0.8C149.3,30.8,149.9,30.5,150.4,30z
				"/>
			<path class="st3" d="M154.3,26.3h-1.2v-1.3h1.2v-0.7c0-1.2,0.5-2,2.2-2c0.3,0,0.8,0.1,0.9,0.1v1.2c-0.1,0-0.4-0.1-0.5-0.1
				c-0.6,0-1,0.2-1,0.9v0.6h1.5v1.3h-1.5v5.6h-1.6C154.3,31.9,154.3,26.3,154.3,26.3z"/>
			<path class="st3" d="M159.1,30.1v-3.8h-1.2v-1.3h1.2v-2.4h1.6v2.4h1.8v1.3h-1.8v3.4c0,0.7,0.2,1,1,1c0.2,0,0.5,0,0.7-0.1v1.3
				c-0.2,0-0.8,0.1-1.2,0.1C159.5,32,159.1,31.4,159.1,30.1L159.1,30.1z"/>
			<path class="st3" d="M164.6,31.9h-0.7v-1.7h1.8v1.5l-0.8,1.7h-0.7C164.1,33.4,164.6,31.9,164.6,31.9z"/>
			<path class="st3" d="M0.7,37.9h1.6v9.6H0.7V37.9z"/>
			<path class="st3" d="M4.4,40.6H6v0.9c0.4-0.5,1.3-1.1,2.5-1.1s2,0.7,2,2.1v4.9H8.9V43c0-0.8-0.3-1.1-1-1.1S6.6,42.2,6,42.7v4.8
				H4.4V40.6z"/>
			<path class="st3" d="M11.8,44.1c0-2.4,1.2-3.6,2.9-3.6c0.7,0,1.5,0.3,2,0.9v-3.4h1.6v7.9c0,0.8,0.1,1.3,0.2,1.7h-1.6
				c-0.1-0.2-0.2-0.6-0.2-0.9c-0.5,0.6-1.2,1-2.2,1C13,47.6,11.8,46.4,11.8,44.1z M16.7,45.4v-2.8c-0.4-0.6-1-0.9-1.6-0.9
				c-1.2,0-1.7,0.8-1.7,2.3s0.6,2.2,1.6,2.2C15.7,46.3,16.4,45.9,16.7,45.4z"/>
			<path class="st3" d="M20,45.5v-4.9h1.6v4.6c0,0.8,0.3,1.1,1,1.1c0.7,0,1.3-0.4,1.9-0.9v-4.8h1.6v6.9h-1.6v-0.9
				c-0.4,0.5-1.3,1.1-2.5,1.1C20.8,47.6,20,46.9,20,45.5L20,45.5z"/>
			<path class="st3" d="M27.4,46.5l0.9-1c0.5,0.4,1.3,0.8,2.2,0.8c0.9,0,1.4-0.2,1.4-0.8s-0.7-0.7-1.5-0.9c-1.2-0.3-2.6-0.6-2.6-2.2
				c0-1.2,1-2,2.6-2c1.3,0,2.1,0.4,2.8,1l-0.8,1c-0.5-0.4-1.3-0.8-1.9-0.8c-0.9,0-1.2,0.3-1.2,0.7c0,0.6,0.7,0.7,1.5,0.9
				c1.2,0.3,2.6,0.6,2.6,2.2c0,1.5-1.3,2.1-2.9,2.1C29.2,47.6,28,47.2,27.4,46.5L27.4,46.5z"/>
			<path class="st3" d="M35.1,45.7v-3.8h-1.2v-1.3h1.2v-2.4h1.6v2.4h1.8v1.3h-1.8v3.4c0,0.7,0.2,1,1,1c0.2,0,0.5,0,0.7-0.1v1.3
				c-0.2,0-0.8,0.1-1.2,0.1C35.5,47.6,35.1,46.9,35.1,45.7L35.1,45.7z"/>
			<path class="st3" d="M39.8,40.6h1.6v1.1h0c0.4-0.7,1.2-1.3,2.5-1.3H44L44,41.9c-0.1,0-0.3,0-0.4,0c-1,0-1.7,0.5-2.1,1.2v4.4h-1.6
				L39.8,40.6L39.8,40.6z"/>
			<path class="st3" d="M45.2,38h1.6v1.4h-1.6V38z M45.2,40.6h1.6v6.9h-1.6V40.6z"/>
			<path class="st3" d="M48.3,44.1c0-2.6,1.9-3.6,3.3-3.6c1.5,0,3,0.9,3,3.7v0.4h-4.7c0.1,1.2,0.8,1.8,1.8,1.8
				c0.9,0,1.4-0.3,1.9-0.8l0.8,0.8c-0.7,0.8-1.7,1.2-2.9,1.2C49.9,47.6,48.3,46.6,48.3,44.1L48.3,44.1z M53.1,43.4
				c-0.1-1-0.6-1.6-1.6-1.6c-0.8,0-1.5,0.4-1.6,1.6H53.1L53.1,43.4z"/>
			<path class="st3" d="M56.4,47.5h-0.7v-1.7h1.8v1.5l-0.8,1.7H56L56.4,47.5z"/>
			<path class="st3" d="M62.4,37.9H64v4.5l3.8-4.5h1.9l-3.3,3.7l3.7,5.9h-1.9l-2.9-4.7L64,44.3v3.1h-1.6L62.4,37.9L62.4,37.9z"/>
			<path class="st3" d="M71.3,37.9h1.6v9.6h-1.6V37.9z"/>
			<path class="st3" d="M74.8,38h1.6v1.4h-1.6V38z M74.8,40.6h1.6v6.9h-1.6V40.6z"/>
			<path class="st3" d="M78.3,40.6h1.6v0.9c0.5-0.6,1.3-1.1,2.4-1.1c1.2,0,1.6,0.5,1.9,1.1c0.5-0.6,1.4-1.1,2.4-1.1
				c1.4,0,2,0.8,2,2.1v4.9h-1.6V43c0-0.8-0.2-1.1-1-1.1c-0.6,0-1.2,0.4-1.8,0.9v4.8h-1.6V43c0-0.8-0.2-1.1-1-1.1
				c-0.6,0-1.2,0.4-1.8,0.9v4.8h-1.6L78.3,40.6L78.3,40.6z"/>
			<path class="st3" d="M89.8,45.8c0-1.5,1.3-2.5,4.5-2.9v-0.2c0-0.7-0.4-1-1.1-1c-1,0-1.7,0.5-2.3,0.9l-0.8-1
				c0.7-0.7,1.9-1.2,3.3-1.2c1.8,0,2.5,0.9,2.5,2.5v2.8c0,0.8,0.1,1.3,0.2,1.7h-1.6c-0.1-0.3-0.2-0.5-0.2-0.9c-0.7,0.7-1.5,1-2.5,1
				C90.6,47.6,89.8,47,89.8,45.8L89.8,45.8z M94.3,45.6v-1.5c-1.9,0.3-2.9,0.7-2.9,1.5c0,0.5,0.4,0.8,1,0.8
				C93.1,46.4,93.8,46,94.3,45.6L94.3,45.6z"/>
			<path class="st3" d="M97,46.5l0.9-1c0.5,0.4,1.3,0.8,2.2,0.8c0.9,0,1.4-0.2,1.4-0.8s-0.7-0.7-1.5-0.9c-1.2-0.3-2.6-0.6-2.6-2.2
				c0-1.2,1-2,2.6-2c1.3,0,2.1,0.4,2.8,1l-0.8,1c-0.5-0.4-1.3-0.8-1.9-0.8c-0.9,0-1.2,0.3-1.2,0.7c0,0.6,0.7,0.7,1.5,0.9
				c1.2,0.3,2.6,0.6,2.6,2.2c0,1.5-1.3,2.1-2.9,2.1C98.8,47.6,97.7,47.2,97,46.5L97,46.5z"/>
			<path class="st3" d="M103.8,44.1c0-2.6,1.8-3.6,3.3-3.6c1.7,0,2.4,0.9,2.9,2l-1.3,0.5c-0.3-0.8-0.8-1.2-1.5-1.2
				c-0.9,0-1.7,0.6-1.7,2.2c0,1.5,0.6,2.3,1.6,2.3c0.7,0,1.2-0.2,1.6-1.2l1.3,0.5c-0.5,1.1-1.3,2-3,2
				C105.4,47.6,103.8,46.6,103.8,44.1z"/>
			<path class="st3" d="M111.3,37.9h1.6v3.6c0.4-0.5,1.3-1.1,2.5-1.1c1.2,0,2,0.7,2,2.1v4.9h-1.6V43c0-0.8-0.3-1.1-1-1.1
				c-0.7,0-1.3,0.4-1.9,0.9v4.8h-1.6L111.3,37.9L111.3,37.9z"/>
			<path class="st3" d="M119,45.5v-4.9h1.6v4.6c0,0.8,0.3,1.1,1,1.1c0.7,0,1.3-0.4,1.9-0.9v-4.8h1.6v6.9h-1.6v-0.9
				c-0.4,0.5-1.3,1.1-2.5,1.1C119.8,47.6,119,46.9,119,45.5L119,45.5z"/>
			<path class="st3" d="M127.5,45.7v-3.8h-1.2v-1.3h1.2v-2.4h1.6v2.4h1.8v1.3h-1.8v3.4c0,0.7,0.2,1,1,1c0.2,0,0.5,0,0.7-0.1v1.3
				c-0.2,0-0.8,0.1-1.2,0.1C127.8,47.6,127.5,46.9,127.5,45.7L127.5,45.7z"/>
			<path class="st3" d="M131.7,46.6l3.7-4.7H132v-1.3h5.4v1l-3.7,4.7h3.9v1.2h-5.9V46.6L131.7,46.6z"/>
			<path class="st3" d="M142.1,45.5v-4.9h1.6v4.6c0,0.8,0.3,1.1,1,1.1s1.3-0.4,1.9-0.9v-4.8h1.6v6.9h-1.6v-0.9
				c-0.4,0.5-1.3,1.1-2.5,1.1C142.8,47.6,142.1,46.9,142.1,45.5z"/>
			<path class="st3" d="M149.9,40.6h1.6v0.9c0.4-0.5,1.3-1.1,2.5-1.1s2,0.7,2,2.1v4.9h-1.6V43c0-0.8-0.3-1.1-1-1.1s-1.3,0.4-1.9,0.9
				v4.8h-1.6V40.6z"/>
			<path class="st3" d="M157.4,44.1c0-2.4,1.2-3.6,2.9-3.6c0.7,0,1.5,0.3,2,0.9v-3.4h1.6v7.9c0,0.8,0.1,1.3,0.2,1.7h-1.6
				c-0.1-0.2-0.2-0.6-0.2-0.9c-0.5,0.6-1.2,1-2.2,1C158.5,47.6,157.4,46.4,157.4,44.1z M162.3,45.4v-2.8c-0.4-0.6-1-0.9-1.6-0.9
				c-1.2,0-1.7,0.8-1.7,2.3s0.6,2.2,1.6,2.2C161.3,46.3,161.9,45.9,162.3,45.4z"/>
			<path class="st3" d="M169.1,37.9h6.2v1.5h-4.6v2.4h3.4v1.4h-3.4V46h4.8v1.5h-6.5V37.9z"/>
			<path class="st3" d="M176.8,40.6h1.6v0.9c0.4-0.5,1.3-1.1,2.5-1.1c1.2,0,2,0.7,2,2.1v4.9h-1.6V43c0-0.8-0.3-1.1-1-1.1
				c-0.7,0-1.3,0.4-1.9,0.9v4.8h-1.6V40.6z"/>
			<path class="st3" d="M184.3,44.1c0-2.6,1.9-3.6,3.3-3.6c1.5,0,3,0.9,3,3.7v0.4h-4.7c0.1,1.2,0.8,1.8,1.8,1.8
				c0.9,0,1.4-0.3,1.9-0.8l0.8,0.8c-0.7,0.8-1.7,1.2-2.9,1.2C185.9,47.6,184.3,46.6,184.3,44.1L184.3,44.1z M189.1,43.4
				c-0.1-1-0.6-1.6-1.6-1.6c-0.8,0-1.5,0.4-1.6,1.6H189.1L189.1,43.4z"/>
			<path class="st3" d="M192,40.6h1.6v1.1h0c0.4-0.7,1.2-1.3,2.5-1.3h0.1l-0.1,1.5c-0.1,0-0.3,0-0.4,0c-1,0-1.7,0.5-2.1,1.2v4.4H192
				L192,40.6L192,40.6z"/>
			<path class="st3" d="M196.3,48.5c0-0.7,0.4-1.2,1.1-1.5c-0.3-0.2-0.5-0.5-0.5-0.8c0-0.5,0.4-0.9,0.9-1.3c-0.7-0.4-1.1-1.1-1.1-2
				c0-1.4,1.1-2.5,2.9-2.5c0.9,0,1.6,0.3,2.1,0.7c0.4-0.3,1.1-0.6,1.7-0.7v1.3c-0.3,0-0.8,0-1.2,0.2c0.2,0.2,0.2,0.6,0.2,0.9
				c0,1.4-1.1,2.4-2.9,2.4c-0.4,0-0.6-0.1-1-0.1c-0.2,0.1-0.3,0.3-0.3,0.4c0,0.3,0.2,0.4,0.8,0.4l1.2,0.1c2,0.1,2.8,0.7,2.8,1.9
				c0,1.4-1.4,2.1-3.6,2.1C197.3,50.2,196.3,49.5,196.3,48.5L196.3,48.5z M201.8,48.2c0-0.5-0.3-0.7-1.7-0.8l-1.2-0.1
				c-0.1,0-0.3,0-0.4,0c-0.5,0.2-0.6,0.5-0.6,0.9c0,0.6,0.7,0.8,2.1,0.8C201.1,49,201.8,48.7,201.8,48.2z M201.1,43
				c0-0.9-0.5-1.3-1.4-1.3s-1.4,0.5-1.4,1.3s0.5,1.3,1.4,1.3S201.1,43.8,201.1,43L201.1,43z"/>
			<path class="st3" d="M204.7,38h1.6v1.4h-1.6V38z M204.7,40.6h1.6v6.9h-1.6V40.6z"/>
			<path class="st3" d="M207.8,44.1c0-2.6,1.9-3.6,3.3-3.6c1.5,0,3,0.9,3,3.7v0.4h-4.7c0.1,1.2,0.8,1.8,1.8,1.8
				c0.9,0,1.4-0.3,1.9-0.8l0.8,0.8c-0.7,0.8-1.7,1.2-2.9,1.2C209.4,47.6,207.8,46.6,207.8,44.1L207.8,44.1z M212.6,43.4
				c-0.1-1-0.6-1.6-1.6-1.6c-0.8,0-1.5,0.4-1.6,1.6H212.6L212.6,43.4z"/>
			<path class="st3" d="M0,59.6C0,57.2,1.2,56,2.9,56c0.7,0,1.5,0.3,2,0.9v-3.4h1.6v7.9c0,0.8,0.1,1.3,0.2,1.7H5.1
				c-0.1-0.2-0.2-0.6-0.2-0.9c-0.5,0.6-1.2,1-2.2,1C1.2,63.1,0,62,0,59.6L0,59.6z M4.9,61v-2.8c-0.4-0.6-1-0.9-1.6-0.9
				c-1.2,0-1.7,0.8-1.7,2.3c0,1.5,0.6,2.2,1.6,2.2C3.9,61.8,4.5,61.4,4.9,61L4.9,61z"/>
			<path class="st3" d="M7.9,59.6c0-2.6,1.9-3.6,3.3-3.6c1.5,0,3,0.9,3,3.7v0.4H9.5c0.1,1.2,0.8,1.8,1.8,1.8c0.9,0,1.4-0.3,1.9-0.8
				l0.8,0.8c-0.7,0.8-1.7,1.2-2.9,1.2C9.5,63.2,7.9,62.1,7.9,59.6L7.9,59.6z M12.7,58.9c-0.1-1-0.6-1.6-1.6-1.6
				c-0.8,0-1.5,0.4-1.6,1.6H12.7z"/>
			<path class="st3" d="M15,62.1l0.9-1c0.5,0.4,1.3,0.8,2.2,0.8c0.9,0,1.4-0.2,1.4-0.8c0-0.6-0.7-0.7-1.5-0.9
				c-1.2-0.3-2.6-0.6-2.6-2.2c0-1.2,1-2,2.6-2c1.3,0,2.1,0.4,2.8,1l-0.8,1c-0.5-0.4-1.3-0.8-1.9-0.8c-0.9,0-1.2,0.3-1.2,0.7
				c0,0.6,0.7,0.7,1.5,0.9c1.2,0.3,2.6,0.6,2.6,2.2c0,1.5-1.3,2.1-2.9,2.1C16.7,63.2,15.6,62.7,15,62.1L15,62.1z"/>
			<path class="st3" d="M25.7,53.4h1.6v8.1h4.4V63h-6L25.7,53.4L25.7,53.4z"/>
			<path class="st3" d="M32.6,61.4c0-1.5,1.3-2.5,4.5-2.9v-0.2c0-0.7-0.4-1-1.1-1c-1,0-1.7,0.5-2.3,0.9l-0.8-1
				c0.7-0.7,1.9-1.2,3.3-1.2c1.8,0,2.5,0.9,2.5,2.5v2.8c0,0.8,0.1,1.3,0.2,1.7h-1.6c-0.1-0.3-0.2-0.5-0.2-0.9c-0.7,0.7-1.5,1-2.5,1
				C33.4,63.1,32.6,62.5,32.6,61.4z M37.1,61.1v-1.5c-1.9,0.3-2.9,0.7-2.9,1.5c0,0.5,0.4,0.8,1,0.8C36,61.9,36.6,61.6,37.1,61.1
				L37.1,61.1z"/>
			<path class="st3" d="M40.4,56.2H42v0.9c0.4-0.5,1.3-1.1,2.5-1.1s2,0.7,2,2.1V63h-1.6v-4.5c0-0.8-0.3-1.1-1-1.1s-1.3,0.4-1.9,0.9
				V63h-1.6V56.2z"/>
			<path class="st3" d="M47.8,59.6c0-2.4,1.2-3.6,2.9-3.6c0.7,0,1.5,0.3,2,0.9v-3.4h1.6v7.9c0,0.8,0.1,1.3,0.2,1.7h-1.6
				c-0.1-0.2-0.2-0.6-0.2-0.9c-0.5,0.6-1.2,1-2.2,1C49,63.1,47.8,62,47.8,59.6L47.8,59.6z M52.7,61v-2.8c-0.4-0.6-1-0.9-1.6-0.9
				c-1.2,0-1.7,0.8-1.7,2.3c0,1.5,0.6,2.2,1.6,2.2C51.7,61.8,52.3,61.4,52.7,61L52.7,61z"/>
			<path class="st3" d="M55.7,59.6c0-2.6,1.9-3.6,3.3-3.6c1.5,0,3,0.9,3,3.7v0.4h-4.7c0.1,1.2,0.8,1.8,1.8,1.8
				c0.9,0,1.4-0.3,1.9-0.8l0.8,0.8c-0.7,0.8-1.7,1.2-2.9,1.2C57.3,63.2,55.7,62.1,55.7,59.6L55.7,59.6z M60.6,58.9
				c-0.1-1-0.6-1.6-1.6-1.6c-0.8,0-1.5,0.4-1.6,1.6H60.6L60.6,58.9z"/>
			<path class="st3" d="M62.8,62.1l0.9-1c0.5,0.4,1.3,0.8,2.2,0.8s1.4-0.2,1.4-0.8c0-0.6-0.7-0.7-1.5-0.9c-1.2-0.3-2.6-0.6-2.6-2.2
				c0-1.2,1-2,2.6-2c1.3,0,2.1,0.4,2.8,1l-0.8,1c-0.5-0.4-1.3-0.8-1.9-0.8c-0.9,0-1.2,0.3-1.2,0.7c0,0.6,0.7,0.7,1.5,0.9
				c1.2,0.3,2.6,0.6,2.6,2.2c0,1.5-1.3,2.1-2.9,2.1C64.5,63.2,63.4,62.7,62.8,62.1L62.8,62.1z"/>
			<path class="st3" d="M73.5,53.4h1.6l4.5,6.8h0v-6.8h1.5V63h-1.5l-4.7-7h0v7h-1.5V53.4z"/>
			<path class="st3" d="M82.8,59.6c0-2.5,1.7-3.6,3.4-3.6c1.7,0,3.4,1,3.4,3.6c0,2.5-1.7,3.6-3.4,3.6C84.5,63.2,82.8,62.1,82.8,59.6
				z M87.9,59.6c0-1.3-0.5-2.2-1.7-2.2c-1.2,0-1.7,0.8-1.7,2.2c0,1.3,0.5,2.2,1.7,2.2C87.3,61.8,87.9,61,87.9,59.6z"/>
			<path class="st3" d="M90.9,56.2h1.6v1.1h0C93,56.6,93.7,56,95,56h0.1l-0.1,1.5c-0.1,0-0.3,0-0.4,0c-1,0-1.7,0.5-2.1,1.2V63h-1.6
				L90.9,56.2L90.9,56.2z"/>
			<path class="st3" d="M95.6,59.6c0-2.4,1.2-3.6,2.9-3.6c0.7,0,1.5,0.3,2,0.9v-3.4h1.6v7.9c0,0.8,0.1,1.3,0.2,1.7h-1.6
				c-0.1-0.2-0.2-0.6-0.2-0.9c-0.5,0.6-1.2,1-2.2,1C96.7,63.1,95.6,62,95.6,59.6L95.6,59.6z M100.5,61v-2.8c-0.4-0.6-1-0.9-1.6-0.9
				c-1.2,0-1.7,0.8-1.7,2.3c0,1.5,0.6,2.2,1.6,2.2C99.5,61.8,100.1,61.4,100.5,61L100.5,61z"/>
			<path class="st3" d="M103.9,56.2h1.6v1.1h0c0.4-0.7,1.2-1.3,2.5-1.3h0.1l-0.1,1.5c-0.1,0-0.3,0-0.4,0c-1,0-1.7,0.5-2.1,1.2V63
				h-1.6L103.9,56.2L103.9,56.2z"/>
			<path class="st3" d="M109.2,53.4h1.6v3.6c0.4-0.5,1.3-1.1,2.5-1.1c1.2,0,2,0.7,2,2.1V63h-1.6v-4.5c0-0.8-0.3-1.1-1-1.1
				s-1.3,0.4-1.9,0.9V63h-1.6L109.2,53.4L109.2,53.4z"/>
			<path class="st3" d="M116.6,59.6c0-2.6,1.9-3.6,3.3-3.6c1.5,0,3,0.9,3,3.7v0.4h-4.7c0.1,1.2,0.8,1.8,1.8,1.8
				c0.9,0,1.4-0.3,1.9-0.8l0.8,0.8c-0.7,0.8-1.7,1.2-2.9,1.2C118.2,63.2,116.6,62.1,116.6,59.6L116.6,59.6z M121.5,58.9
				c-0.1-1-0.6-1.6-1.6-1.6c-0.8,0-1.5,0.4-1.6,1.6H121.5z"/>
			<path class="st3" d="M124.4,53.6h1.6V55h-1.6V53.6L124.4,53.6z M124.4,56.2h1.6V63h-1.6V56.2z"/>
			<path class="st3" d="M127.8,56.2h1.6v0.9c0.4-0.5,1.3-1.1,2.5-1.1c1.2,0,2,0.7,2,2.1V63h-1.6v-4.5c0-0.8-0.3-1.1-1-1.1
				c-0.7,0-1.3,0.4-1.9,0.9V63h-1.6V56.2L127.8,56.2z"/>
			<path class="st3" d="M135.5,58.4h3.2v1.1h-3.2V58.4z"/>
			<path class="st3" d="M139,53.4h1.6l1.2,5c0.2,0.8,0.4,1.5,0.5,2.2h0c0.1-0.7,0.3-1.5,0.5-2.2l1.2-5h1.6l1.2,5
				c0.2,0.8,0.4,1.4,0.5,2.2h0c0.1-0.8,0.3-1.3,0.5-2.2l1.2-5h1.5l-2.5,9.6h-1.4l-1.7-7.3h0L143,63h-1.4L139,53.4L139,53.4z"/>
			<path class="st3" d="M150.4,59.6c0-2.6,1.9-3.6,3.3-3.6c1.5,0,3,0.9,3,3.7v0.4H152c0.1,1.2,0.8,1.8,1.8,1.8
				c0.9,0,1.4-0.3,1.9-0.8l0.8,0.8c-0.7,0.8-1.7,1.2-2.9,1.2C152,63.2,150.4,62.1,150.4,59.6L150.4,59.6z M155.3,58.9
				c-0.1-1-0.6-1.6-1.6-1.6c-0.8,0-1.5,0.4-1.6,1.6H155.3L155.3,58.9z"/>
			<path class="st3" d="M157.5,62.1l0.9-1c0.5,0.4,1.3,0.8,2.2,0.8c0.9,0,1.4-0.2,1.4-0.8c0-0.6-0.7-0.7-1.5-0.9
				c-1.2-0.3-2.6-0.6-2.6-2.2c0-1.2,1-2,2.6-2c1.3,0,2.1,0.4,2.8,1l-0.8,1c-0.5-0.4-1.3-0.8-1.9-0.8c-0.9,0-1.2,0.3-1.2,0.7
				c0,0.6,0.7,0.7,1.5,0.9c1.2,0.3,2.6,0.6,2.6,2.2c0,1.5-1.3,2.1-2.9,2.1C159.3,63.2,158.1,62.7,157.5,62.1L157.5,62.1z"/>
			<path class="st3" d="M165.2,61.2v-3.8H164v-1.3h1.2v-2.4h1.6v2.4h1.8v1.3h-1.8v3.4c0,0.7,0.2,1,1,1c0.2,0,0.5,0,0.7-0.1V63
				c-0.2,0-0.8,0.1-1.2,0.1C165.6,63.1,165.2,62.5,165.2,61.2L165.2,61.2z"/>
			<path class="st3" d="M170.5,57.4h-1.2v-1.3h1.2v-0.7c0-1.2,0.5-2,2.2-2c0.3,0,0.8,0.1,0.9,0.1v1.2c-0.1,0-0.4-0.1-0.5-0.1
				c-0.6,0-1,0.2-1,0.9v0.6h1.5v1.3h-1.5V63h-1.6V57.4L170.5,57.4z"/>
			<path class="st3" d="M174,61.4c0-1.5,1.3-2.5,4.5-2.9v-0.2c0-0.7-0.4-1-1.1-1c-1,0-1.7,0.5-2.3,0.9l-0.8-1
				c0.7-0.7,1.9-1.2,3.3-1.2c1.8,0,2.5,0.9,2.5,2.5v2.8c0,0.8,0.1,1.3,0.2,1.7h-1.6c-0.1-0.3-0.2-0.5-0.2-0.9c-0.7,0.7-1.5,1-2.5,1
				C174.9,63.1,174,62.5,174,61.4z M178.5,61.1v-1.5c-1.9,0.3-2.9,0.7-2.9,1.5c0,0.5,0.4,0.8,1,0.8C177.4,61.9,178,61.6,178.5,61.1
				L178.5,61.1z"/>
			<path class="st3" d="M181.8,53.4h1.6V63h-1.6V53.4z"/>
			<path class="st3" d="M184.9,59.6c0-2.6,1.9-3.6,3.3-3.6c1.5,0,3,0.9,3,3.7v0.4h-4.7c0.1,1.2,0.8,1.8,1.8,1.8
				c0.9,0,1.4-0.3,1.9-0.8l0.8,0.8c-0.7,0.8-1.7,1.2-2.9,1.2C186.5,63.2,184.9,62.1,184.9,59.6L184.9,59.6z M189.8,58.9
				c-0.1-1-0.6-1.6-1.6-1.6c-0.8,0-1.5,0.4-1.6,1.6H189.8L189.8,58.9z"/>
			<path class="st3" d="M192.6,56.2h1.6v0.9c0.4-0.5,1.3-1.1,2.5-1.1c1.2,0,2,0.7,2,2.1V63h-1.6v-4.5c0-0.8-0.3-1.1-1-1.1
				s-1.3,0.4-1.9,0.9V63h-1.6V56.2z"/>
		</g>
	</g>
</g>
</svg>
