<?xml version="1.0" encoding="UTF-8"?>
<svg id="Ebene_1" data-name="Ebene 1" xmlns="http://www.w3.org/2000/svg" viewBox="0 0 35 35">
  <path d="m33.62,10.06c-1.32-2.49-3.58-4.33-5.83-6.03-2.01-1.52-4.13-3.01-6.57-3.61-1.58-.39-3.23-.38-4.85-.34-2.01.05-4.07.16-5.94.91-1.95.78-3.57,2.2-5.05,3.68-1.24,1.24-2.43,2.55-3.33,4.06C.04,12.08-.41,16.24.48,20.03c.47,2.01,1.12,3.93,2.41,5.53.05.06.1.12.14.18-.17,1.16-.4,2.67-.55,3.48-.19,1.06-.44,2.13-.92,3.1-.23.47-.53.92-.89,1.31-.36.4-.08,1.04.46,1.02,2.07-.06,4.14-.46,6.15-.99,1.08-.29,2.18-.63,3.2-1.09,2.1,1.47,4.14,2.25,8.01,2.35,3.91.1,7.1-1.09,8.41-1.55,2.86-1.54,3.36-3.55,4.91-6.7,1.28-2.6,2.43-5.3,2.91-8.16.48-2.86.25-5.91-1.11-8.47Z" fill="#fff"/>
  <g>
    <path d="m14.77,10.79c-1.02.2-2.04.37-3.07.51-.11.02-.23.03-.35.05-.07,0-.14.02-.2.03-.24.03-.48.06-.73.09-.48.06-.96.11-1.45.15-.2-.12-.43-.2-.69-.2-.71,0-1.38.62-1.35,1.35.06,1.51.11,3.02.17,4.53.06,1.49,0,3.03.22,4.5.24,1.58,1.4,2.49,2.94,2.66,1.36.14,2.79-.02,4.16-.05,1.73-.04,1.74-2.74,0-2.7-1.23.03-2.47.11-3.7.08-.27,0-.24,0-.47-.05-.03,0-.09-.03-.13-.05-.03-.02-.08-.05-.07-.04.03.05.05.21-.03-.09-.03-.1-.05-.2-.07-.31.02.15,0-.17,0-.2,0-.15-.01-.3-.02-.45-.02-.47-.03-.94-.05-1.41,1.56,0,3.11-.12,4.66-.36.31-.05.65-.36.81-.62.17-.29.24-.72.14-1.04-.11-.33-.31-.64-.62-.81-.34-.18-.66-.19-1.04-.14-.08.01-.16.02-.25.04-1.26.16-2.53.24-3.79.22-.03-.75-.06-1.5-.08-2.25,1.94-.2,3.88-.47,5.8-.84.7-.13,1.16-1.01.94-1.66-.24-.74-.92-1.09-1.66-.94Z" fill="#55fc27"/>
    <path d="m27.37,11.87c-.04-.73-.59-1.35-1.35-1.35-.7,0-1.4.62-1.35,1.35l.38,6.2c-1.58-2.33-3.24-4.61-5-6.81-.72-.9-2.39-.16-2.3.95.28,3.54.56,7.09.84,10.63.06.73.58,1.35,1.35,1.35.69,0,1.41-.62,1.35-1.35-.16-2.05-.33-4.11-.49-6.16,1.68,2.31,3.26,4.68,4.75,7.12.66,1.09,2.6.71,2.52-.68-.23-3.75-.46-7.5-.69-11.25Z" fill="#55fc27"/>
  </g>
</svg>