<?xml version="1.0" encoding="utf-8"?>
<!-- Generator: Adobe Illustrator 28.0.0, SVG Export Plug-In . SVG Version: 6.00 Build 0)  -->
<svg version="1.1" id="Ebene_1" xmlns="http://www.w3.org/2000/svg" xmlns:xlink="http://www.w3.org/1999/xlink" x="0px" y="0px"
	 viewBox="0 0 200 200" style="enable-background:new 0 0 200 200;" xml:space="preserve">
<style type="text/css">
	.st0{display:none;}
	.st1{display:inline;}
	.st2{display:inline;clip-path:url(#SVGID_00000101824060202624774300000000870465488899762852_);}
	.st3{fill:#55FC27;}
	.st4{fill:#e6e6e6;}
</style>
<g class="st0">
	<defs>
		<rect id="SVGID_1_" width="200" height="200"/>
	</defs>
	<clipPath id="SVGID_00000064338220198293312440000008568942749078865280_" class="st1">
		<use xlink:href="#SVGID_1_"  style="overflow:visible;"/>
	</clipPath>
	<g style="display:inline;clip-path:url(#SVGID_00000064338220198293312440000008568942749078865280_);">
		<path class="st3" d="M100,200c55.2,0,100-44.8,100-100S155.2,0,100,0S0,44.8,0,100S44.8,200,100,200"/>
		<path class="st4" d="M150.6,133.9c-0.2-5.5-0.6-10.9-0.9-16.4c-0.3-5.6-0.6-11.2-0.9-16.8L146.7,63c-0.1-1.8-2.1-2.6-3.5-1.4
			l-5.9,5.1c0.6-1.2,0-3-1.7-3c-19.2,0-38.4,0-57.5,0c-5.4,0-10.8,0-16.2,0c-1.5,0-2.5,1.7-1.8,3C64.4,74.2,68.7,81.6,73,89
			c2.1,3.7,4.3,7.4,6.4,11.1c1,1.8,2.1,3.6,3.1,5.4c1,1.7,1.9,3.6,3.1,5.1c1.3,1.6,3.3,2.3,5.3,1.5c1.8-0.7,3.3-2.4,4.8-3.7
			c3.2-2.8,6.4-5.6,9.6-8.4c6.4-5.6,12.8-11.2,19.2-16.8c6.1-5.3,12.2-10.6,18.3-16c1.1,20.4,2.3,40.9,3.4,61.3
			c0.1,1.2,0.1,2.5,0.2,3.7c0,0.6,0.1,1.2,0.1,1.9c0,0.1-0.1,0.6,0,0.7c-0.1,0.1-0.5,0.1-0.8,0.1c-0.6,0-1.2,0-1.8-0.1
			c-1.4-0.1-2.7-0.1-4-0.1c-5.5-0.2-11-0.4-16.5-0.6c-10.9-0.4-21.8-0.8-32.7-1.2c-11.6-0.4-23.1-0.9-34.7-1.3
			c0.2-15.7-0.3-31.4-1.4-47c-0.3-4.6-0.8-9.2-1.2-13.8c-0.1-1.1-0.8-2-2-2c-1,0-2.1,0.9-2,2c1.6,16.2,2.5,32.6,2.7,48.9
			c0,4.6,0,9.2,0,13.9c0,1.1,0.9,2,2,2c22.4,0.9,44.7,1.7,67.1,2.6c5.6,0.2,11.2,0.4,16.9,0.6c2.7,0.1,5.4,0.4,8.1,0.3
			c1.2,0,2.5-0.4,3.4-1.3C150.4,136.7,150.7,135.2,150.6,133.9L150.6,133.9z M106.3,93.8c-3.1,2.7-6.2,5.4-9.2,8.1
			c-1.6,1.4-3.1,2.7-4.7,4.1c-0.7,0.6-1.4,1.2-2.1,1.8c-0.2,0.2-0.6,0.5-0.9,0.6c-0.1,0-0.1,0-0.2,0c-0.4-0.2-0.7-0.7-1-1.1
			c-0.5-0.8-0.9-1.6-1.4-2.4c-1-1.8-2.1-3.6-3.1-5.4c-2.1-3.6-4.1-7.1-6.2-10.6c-4-6.9-8.1-13.9-12.1-20.9c18,0,36,0,54,0
			c5.4,0,10.8,0,16.1,0c0.2,0,0.5-0.1,0.6-0.1L106.3,93.8L106.3,93.8z"/>
	</g>
</g>
<g class="st0">
	<g class="st1">
		<path class="st4" d="M60.8,77.8c0.8,0,1.5,0.1,2.2,0.3c4.4,1.1,7.2,5.4,8.5,8.9c1.7,4.7,1.7,10.2,1.7,15.1
			c0.2,13.7,0.3,27.4,0.4,41.1l0,0.4c0.1,5.9-0.4,11.8-4,14.3c-1,0.7-2.2,1-3.5,1c-3.6,0-7.4-2.4-8.8-5.6c-1.4-3.1-1.6-6.9-1.7-10.6
			v0l0-0.1c-0.2-5.8-0.8-13.8-1.4-22.2c-0.9-13.1-2.5-34.9-1.2-38.7C54.6,79.4,57.8,77.8,60.8,77.8 M60.8,73.8
			c-4.4,0-8.9,2.2-11.3,5.9c-3,4.6,1.5,45,2,63v0c0.1,4.2,0.3,8.5,2.1,12.3c2.2,4.6,7.4,7.9,12.5,7.9c2,0,4.1-0.5,5.8-1.7
			c5.4-3.7,5.8-11.2,5.8-17.7c-0.1-13.8-0.3-27.7-0.4-41.5c0-5.5-0.1-11.1-2-16.3s-5.8-10-11.3-11.5C63,74,61.9,73.8,60.8,73.8
			L60.8,73.8z"/>
	</g>
	<g class="st1">
		<path class="st4" d="M63,39.5c2.9,0,5.4,2.3,7,4.3c1.7,2.1,2.5,5,2,7.9c-0.4,2.7-1.8,4.9-3.8,6.1c-1.4,0.9-3,1.4-4.7,1.4
			c-3.6,0-7.8-2.3-8.9-6.7c-0.2-0.7-0.3-1.5-0.3-2.3l0-1.3c0-1.8,0.6-3.7,2-5.9c0.3-0.4,1.6-1.8,4.3-2.9
			C61.3,39.7,62.1,39.5,63,39.5 M63,35.5c-1.3,0-2.7,0.3-4.1,0.9c-3.6,1.6-5.5,3.6-6,4.5c-1.5,2.5-2.7,5.2-2.6,8.1l0,0
			c0,1.5,0.2,3,0.5,4.4c1.4,6,7,9.8,12.8,9.8c2.3,0,4.7-0.6,6.8-2c6.7-4.2,7.6-14.1,2.8-20C70.3,37.9,66.8,35.5,63,35.5L63,35.5z"/>
	</g>
	<g class="st1">
		<path class="st4" d="M131.9,80.9c7.5,0,14.8,2.8,20,7.8c10.7,10.1,11.9,26.9,12.3,43.2c0.1,5.5,0.3,11.7-2.2,16.6
			c-1.9,3.7-5.7,6.4-9.1,6.4c-0.1,0-0.3,0-0.4,0c-3.4-6.4-1.7-15.1,0-23.4l0.3-1.6c3.3-16.7-0.3-28.2-10.3-33.3
			c-2.5-1.2-5.2-1.9-8.3-1.9c-6,0-12.5,2.5-17,6.6c-11.3,10.2-14.7,26.4-9.3,44.5c0.6,1.8,0.6,5.1,0.1,6.6c-1,2.9-2.3,3.4-4.5,3.4
			c-1.2,0-2.6-0.2-4.5-0.6c-2.5-0.5-4.3-2.7-4.5-5.2l-3.5-58.5l0,0L90.7,82c0.8-0.3,2.4-0.8,5-0.8c0.9,0,1.8,0.1,2.7,0.2
			c0.4,0,0.8,0.3,0.8,0.7c-1.1,5.4-1.7,12.3,0.9,15.4c1.1,1.3,2.5,2,4.2,2c3.4,0,5.7-3,9-7c3.3-4.2,7.9-9.9,12.8-10.9
			C128,81.1,130,80.9,131.9,80.9L131.9,80.9 M131.9,76.9c-2.2,0-4.5,0.2-6.7,0.7c-10.4,2.2-17.3,17.9-21,17.9s-1.1-13-1.1-13
			c0.2-2.6-1.7-4.8-4.4-5.1c-1.1-0.1-2.1-0.2-3.2-0.2c-5,0-9.2,1.4-9,4.1l0,0l4.1,69c0.2,4.3,3.3,7.9,7.6,8.9
			c1.9,0.4,3.7,0.7,5.3,0.7c3.7,0,6.7-1.4,8.3-6.2c0.8-2.5,0.7-6.5-0.1-9c-4-13.4-3.7-29.7,8.1-40.3c3.7-3.3,9.2-5.6,14.3-5.6
			c2.3,0,4.5,0.4,6.5,1.4c10.3,5.2,10.2,18.4,8.2,29c-2,9.9-4.6,21.1,1.1,29.4c1,0.3,1.9,0.4,2.9,0.4c5.2,0,10.3-3.9,12.7-8.7
			c2.8-5.7,2.7-12.2,2.6-18.5c-0.4-16.4-1.5-34.6-13.5-46C148.7,80.1,140.3,76.9,131.9,76.9L131.9,76.9z"/>
	</g>
	<g class="st1">
		<path class="st4" d="M92,6.3c2.5,0,4.9,0.1,7.2,0.4c30.8,3.6,55.2,15,72.5,33.9c8.7,9.5,15.3,22.3,19.5,37.9
			c3.7,13.6,5.3,28.8,4.7,43.9c-0.6,16-5,30-12.7,40.7c-8.9,12.3-23.4,21.7-41,26.5c-10,2.7-20.8,4-33.2,4c-5.6,0-11.5-0.3-17.9-0.8
			c-24.6-2.1-41.9-7.7-54.5-17.6c-9.4-7.4-17.3-18.3-23.3-32.4C0.2,112,0.9,78,15.2,51.8C21.9,39.5,33.4,28,47.6,19.6
			C61.9,11,77.6,6.3,92,6.3 M92,2.3c-31.3,0-65.8,21-80.3,47.5c-15.7,28.8-14.8,64.5-2,94.6c5.5,12.9,13.3,25.2,24.5,34
			c15.7,12.4,36.5,16.7,56.6,18.4c6,0.5,12.1,0.8,18.2,0.8c11.6,0,23.1-1.1,34.2-4.1c17-4.6,33-13.9,43.2-28
			c8.9-12.4,12.9-27.7,13.4-42.9c1.1-28.7-5.6-63.2-25.2-84.6c-19.6-21.4-46.3-31.8-75-35.2C97.1,2.5,94.6,2.3,92,2.3L92,2.3z"/>
	</g>
</g>
<g>
	<g>
		<path class="st4" d="M162.9,10.2c6.6,0,11.5,1,15.5,3.1c6.2,3.3,11.2,10.1,13.7,18.7c2.4,8.2,2.5,17.2,2.6,25.8
			c0.2,18.1,0.4,36.2,0.6,54.4c0.2,18.2,0.4,36.3,0.6,54.5c0.1,7.1-0.2,13.9-4,18.1c-4.3,4.8-12.2,5.2-19.9,5.2
			c-46.3,0-92.6,0-139,0l-0.2,0c-7.5,0-14-0.3-18.6-3.9c-6.1-4.7-9.1-13.5-8.2-23.6C6.6,155.7,7,147.6,7,140h0
			c0-2.3-0.2-5.3-0.3-7.9c0-0.7-0.1-1.3-0.1-1.9L4.1,50c-0.3-8.2-0.3-15.5,3.4-20.8c5.2-7.4,16.3-8.8,26.3-9.6l59.6-4.5l59.6-4.5
			C156.3,10.4,159.6,10.2,162.9,10.2 M162.9,6.2c-3.4,0-6.9,0.2-10.2,0.5c-39.7,3-79.4,6-119.1,9c-10.8,0.8-23,2.4-29.2,11.2
			c-4.6,6.6-4.5,15.2-4.2,23.3l2.4,80.2c0.1,2.8,0.4,6.9,0.4,9.7l0,0c0,6.3-0.2,14.4-0.9,22c-0.9,10,1.8,20.9,9.8,27.1
			c5.8,4.5,13.8,4.7,21.1,4.7c46.4,0,92.8,0,139.2,0c8.2,0,17.4-0.4,22.8-6.5c4.9-5.4,5.1-13.5,5-20.8c-0.4-36.3-0.9-72.6-1.3-108.8
			c-0.1-9-0.2-18.2-2.7-26.8c-2.5-8.7-7.7-17-15.7-21.2C175,6.9,169,6.2,162.9,6.2L162.9,6.2z"/>
	</g>
	<g>
		<path class="st4" d="M96.7,58.5c18.8,0,37.2,12.7,43.7,30.2c3.4,9.1,3.7,19.8,0.9,30.1c-2.8,10.2-8.5,19.6-16.1,26.4
			c-7.6,6.8-17.4,10.3-31.8,11.5c-0.2,0-0.4,0-0.7,0c-10.7,0-34.4-15.6-39.7-40c-2.7-12.3-0.3-24.8,6.4-34.3
			C69.9,67.6,80.7,60,92.4,58.7C93.8,58.6,95.3,58.5,96.7,58.5 M96.7,54.5c-1.6,0-3.2,0.1-4.8,0.2c-15.1,1.6-26.8,12.7-35.6,25.2
			c-6.9,9.7-10.2,23.2-7.1,37.5c5.8,26.6,31.3,43.2,43.6,43.2c0.3,0,0.7,0,1,0c13.2-1.1,24.8-4.2,34.1-12.5
			c16.8-15,23.9-40.2,16.3-60.8C137.1,68.2,117.3,54.5,96.7,54.5L96.7,54.5z"/>
	</g>
	<g>
		<path class="st4" d="M162.1,37c2.2,0,4.3,1.4,6.4,4.2c0.7,0.9,0.8,1.7,0.5,2.7c-0.4,1.3-1.5,2.8-3.2,4.3c-1.4,1.3-3.4,2-5.4,2
			c-1.2,0-2.3-0.3-3.2-0.8c-0.7-0.4-2.1-2.5-2.3-5.3c-0.1-1.5,0.1-3.5,1.6-4.8l0.3-0.2C158.8,37.7,160.6,37,162.1,37 M162.1,33
			c-2.2,0-4.7,0.8-7.6,2.9v0c-6.2,4.5-3.3,15,0.9,17.2c1.6,0.8,3.3,1.2,5.1,1.2c3,0,5.9-1.1,8.1-3.1c3.9-3.6,6.4-8.2,3.2-12.4
			C170.1,36.6,166.9,33,162.1,33L162.1,33z"/>
	</g>
</g>
</svg>
