<?xml version="1.0" encoding="utf-8"?>
<!-- Generator: Adobe Illustrator 28.0.0, SVG Export Plug-In . SVG Version: 6.00 Build 0)  -->
<svg version="1.1" id="Ebene_1" xmlns="http://www.w3.org/2000/svg" xmlns:xlink="http://www.w3.org/1999/xlink" x="0px" y="0px"
	 viewBox="0 0 454.5 184.9" style="enable-background:new 0 0 454.5 184.9;" xml:space="preserve">
<style type="text/css">
	.st0{fill:#FFFFFF;}
</style>
<g>
	<path class="st0" d="M123.5,153.6v-32.7h11.8c2.6,0,4.7,0.5,6.2,1.4c1.5,1,2.6,2.2,3.3,3.7c0.6,1.5,1,3,1,4.7
		c0,1.1-0.2,2.3-0.6,3.4c-0.4,1.1-1,2.2-1.8,3.1c-0.8,1-1.9,1.7-3.2,2.3s-2.9,0.9-4.9,0.9h-8.5v13.3h-3.3V153.6z M126.8,137.3h8.7
		c1.7,0,3.1-0.3,4.2-1c1-0.7,1.8-1.5,2.2-2.5s0.7-2,0.7-3.1c0-1-0.2-2-0.6-3c-0.4-1-1.1-1.9-2.1-2.6s-2.5-1-4.3-1h-8.7L126.8,137.3
		L126.8,137.3z"/>
	<path class="st0" d="M146.6,153.6l11.5-32.7h2.9l11.5,32.7h-3.4l-2.9-8.4H153l-2.9,8.4H146.6z M153.9,142.3h11.3l-4.4-12.7
		c-0.1-0.3-0.2-0.7-0.4-1.2s-0.3-1-0.5-1.5s-0.3-0.9-0.4-1.3c-0.1,0.3-0.2,0.7-0.4,1.3c-0.2,0.5-0.3,1-0.5,1.5s-0.3,0.9-0.4,1.2
		L153.9,142.3z"/>
	<path class="st0" d="M178.7,153.6v-32.7h8.4c2.8,0,5.1,0.5,7,1.4s3.5,2.2,4.6,3.8c1.2,1.6,2,3.3,2.5,5.3c0.5,1.9,0.8,3.9,0.8,5.9
		c0,1.9-0.2,3.8-0.7,5.7s-1.3,3.7-2.4,5.3c-1.1,1.6-2.7,2.9-4.6,3.9c-2,1-4.4,1.5-7.3,1.5L178.7,153.6L178.7,153.6z M182,150.5h5.3
		c2.2,0,4-0.4,5.5-1.2s2.6-1.8,3.5-3.1s1.5-2.7,1.9-4.3s0.5-3.1,0.5-4.7c0-1.7-0.2-3.3-0.6-4.9c-0.4-1.6-1-3-1.9-4.3s-2-2.3-3.4-3
		s-3.1-1.1-5.1-1.1H182V150.5z"/>
	<path class="st0" d="M208.6,153.6v-32.7h18.6v3.1h-15.4v11.2H222v3.1h-10.2v12.3h16.4v3.1h-19.6V153.6z"/>
	<path class="st0" d="M235.4,153.6v-32.7h12.3c2.5,0,4.5,0.4,6,1.3s2.5,2,3.1,3.4s0.9,2.8,0.9,4.3c0,1.4-0.3,2.7-0.8,3.9
		c-0.5,1.3-1.4,2.3-2.6,3.3c-1.2,0.9-2.7,1.5-4.6,1.8l7.2,14.7h-3.7l-7-14.5h-7.7v14.5H235.4z M238.7,136.1h9.1c1.7,0,3-0.3,3.9-0.9
		c1-0.6,1.7-1.4,2.1-2.3c0.4-0.9,0.6-1.9,0.6-2.9c0-0.9-0.2-1.8-0.6-2.7c-0.4-0.9-1.1-1.7-2-2.4c-1-0.6-2.3-1-4.1-1h-9.1v12.2H238.7
		z"/>
	<path class="st0" d="M266.1,153.6v-32.7h11.1c2.5,0,4.5,0.4,5.9,1.2c1.4,0.8,2.5,1.9,3.1,3.2c0.6,1.3,0.9,2.7,0.9,4.1
		c0,1.6-0.5,3-1.4,4.3s-2.2,2.2-3.9,2.8c1.3,0.3,2.5,0.8,3.5,1.6c1,0.7,1.7,1.7,2.2,2.8s0.8,2.3,0.8,3.7c0,1.1-0.2,2.2-0.5,3.3
		c-0.4,1.1-0.9,2.1-1.7,3c-0.8,0.9-1.8,1.6-3.2,2.2c-1.3,0.5-3,0.8-4.9,0.8h-11.9V153.6z M269.4,135.1h7c2.5,0,4.3-0.5,5.6-1.6
		c1.2-1.1,1.9-2.5,1.9-4.2c0-0.9-0.2-1.8-0.5-2.6c-0.3-0.8-1-1.5-1.9-2.1c-0.9-0.5-2.3-0.8-4-0.8h-8v11.3H269.4z M269.4,150.6h9
		c1.7,0,3.1-0.3,4-0.9c1-0.6,1.6-1.3,2-2.2s0.6-1.8,0.6-2.8c0-1.1-0.2-2.2-0.7-3.2s-1.3-1.8-2.4-2.4c-1.2-0.6-2.8-0.9-5-0.9h-7.5
		V150.6z"/>
	<path class="st0" d="M308.7,154.2c-2.5,0-4.6-0.5-6.3-1.5c-1.7-1-3.1-2.3-4.2-3.9c-1.1-1.6-1.8-3.5-2.3-5.5s-0.7-4-0.7-6
		s0.2-4,0.7-6s1.3-3.8,2.3-5.5c1.1-1.6,2.4-3,4.2-3.9c1.7-1,3.8-1.5,6.3-1.5s4.6,0.5,6.4,1.5c1.7,1,3.1,2.3,4.2,3.9
		c1,1.6,1.8,3.5,2.3,5.5s0.7,4,0.7,6s-0.2,4-0.7,6s-1.2,3.8-2.3,5.5c-1,1.6-2.4,3-4.2,3.9C313.4,153.7,311.3,154.2,308.7,154.2z
		 M308.7,151.1c1.9,0,3.5-0.4,4.8-1.3c1.3-0.8,2.3-1.9,3.1-3.3c0.8-1.4,1.4-2.9,1.7-4.5c0.4-1.6,0.5-3.2,0.5-4.8
		c0-1.7-0.2-3.4-0.5-5c-0.4-1.6-0.9-3.1-1.7-4.5c-0.8-1.3-1.8-2.4-3.1-3.2c-1.3-0.8-2.9-1.2-4.8-1.2s-3.4,0.4-4.7,1.3
		c-1.3,0.8-2.3,1.9-3.1,3.3c-0.8,1.4-1.4,2.9-1.7,4.5c-0.4,1.6-0.5,3.2-0.5,4.8c0,1.7,0.2,3.4,0.5,5c0.4,1.6,0.9,3.1,1.7,4.4
		c0.8,1.3,1.8,2.4,3.1,3.2C305.3,150.7,306.9,151.1,308.7,151.1z"/>
	<path class="st0" d="M330.5,153.6v-32.7h12.4c2.5,0,4.5,0.4,6,1.3s2.5,2,3.1,3.4s0.9,2.8,0.9,4.3c0,1.4-0.3,2.7-0.8,3.9
		s-1.4,2.3-2.6,3.3c-1.2,0.9-2.7,1.5-4.6,1.8l7.2,14.7h-3.7l-7-14.5h-7.7v14.5H330.5z M333.8,136.1h9.1c1.7,0,3-0.3,3.9-0.9
		c1-0.6,1.7-1.4,2.1-2.3c0.4-0.9,0.6-1.9,0.6-2.9c0-0.9-0.2-1.8-0.6-2.7c-0.4-0.9-1.1-1.7-2-2.4c-1-0.6-2.3-1-4.1-1h-9.1v12.2H333.8
		z"/>
	<path class="st0" d="M361.5,153.6v-32.7h3.3l15.2,24.6c0.2,0.4,0.5,0.8,0.7,1.2s0.5,0.8,0.7,1.3c0-0.4,0-0.8,0-1.2s0-0.8,0-1.2V121
		h3.3v32.7h-3.2L366,129c-0.2-0.4-0.4-0.7-0.7-1.1c-0.2-0.4-0.5-0.8-0.7-1.2c0,0.4,0.1,0.7,0.1,1.1c0,0.4,0,0.8,0,1.2v24.6H361.5z"
		/>
	<g>
		<path class="st0" d="M364.5,77.5c-0.6,0-1.1-0.2-1.5-0.6s-0.6-0.9-0.6-1.5s0.2-1.1,0.6-1.6c0.4-0.4,0.9-0.6,1.5-0.6
			s1.1,0.2,1.6,0.6c0.4,0.4,0.6,0.9,0.6,1.6c0,0.6-0.2,1.1-0.6,1.5C365.6,77.3,365.1,77.5,364.5,77.5z"/>
		<path class="st0" d="M354.3,77.5c-0.6,0-1.1-0.2-1.5-0.6s-0.6-0.9-0.6-1.5s0.2-1.1,0.6-1.6c0.4-0.4,0.9-0.6,1.5-0.6
			s1.1,0.2,1.6,0.6c0.4,0.4,0.6,0.9,0.6,1.6c0,0.6-0.2,1.1-0.6,1.5C355.4,77.3,354.9,77.5,354.3,77.5z"/>
	</g>
	<path class="st0" d="M134.8,112.6c-2.6,0-4.7-0.5-6.4-1.5s-2.9-2.4-3.7-4.3s-1.2-4.2-1.2-6.9V79.3h3.3v20.6c0,3,0.6,5.4,1.9,7.1
		c1.2,1.7,3.3,2.5,6.1,2.5c1.7,0,3.1-0.3,4.3-1c1.2-0.6,2.1-1.7,2.8-3.1c0.6-1.4,1-3.3,1-5.6V79.3h3.3V100c0,2.2-0.2,4-0.7,5.6
		s-1.2,2.9-2.2,3.9c-1,1.1-2.1,1.8-3.6,2.3C138.3,112.4,136.7,112.6,134.8,112.6z"/>
	<path class="st0" d="M155.4,112.1V79.3h3.3l15.2,24.6c0.2,0.4,0.5,0.8,0.7,1.2s0.5,0.8,0.7,1.3c0-0.4,0-0.8,0-1.2
		c0-0.4,0-0.8,0-1.2V79.3h3.3V112h-3.2L160,87.4c-0.2-0.4-0.4-0.7-0.7-1.1c-0.2-0.4-0.5-0.8-0.7-1.2c0,0.4,0.1,0.7,0.1,1.1
		s0,0.8,0,1.2V112L155.4,112.1L155.4,112.1z"/>
	<path class="st0" d="M188.3,112.1V79.3h3.3V112L188.3,112.1L188.3,112.1z"/>
	<path class="st0" d="M210.4,112.1l-11.2-32.7h3.5l8.3,24.9c0.1,0.4,0.3,0.9,0.4,1.3c0.1,0.5,0.3,1,0.4,1.5c0.1-0.5,0.3-1,0.4-1.5
		c0.1-0.5,0.3-0.9,0.4-1.4l8.2-24.9h3.5L213.1,112L210.4,112.1L210.4,112.1z"/>
	<path class="st0" d="M230.9,112.1V79.3h18.6v3.1h-15.4v11.2h10.2v3.1h-10.2V109h16.4v3.1H230.9z"/>
	<path class="st0" d="M257.5,112.1V79.3h12.3c2.5,0,4.5,0.4,6,1.3s2.5,2,3.1,3.4s0.9,2.8,0.9,4.3c0,1.4-0.3,2.7-0.8,3.9
		c-0.5,1.3-1.4,2.3-2.6,3.3c-1.2,0.9-2.7,1.5-4.6,1.8L279,112h-3.7l-7-14.5h-7.7V112L257.5,112.1L257.5,112.1z M260.7,94.5h9.1
		c1.7,0,3-0.3,3.9-0.9c1-0.6,1.7-1.4,2.1-2.3s0.6-1.9,0.6-2.9c0-0.9-0.2-1.8-0.6-2.7c-0.4-0.9-1.1-1.7-2-2.4c-1-0.6-2.3-1-4.1-1
		h-9.1v12.2H260.7z"/>
	<path class="st0" d="M296.5,112.6c-1.8,0-3.5-0.3-5-0.9s-2.7-1.5-3.8-2.6c-1-1.1-1.8-2.3-2.3-3.6l3.2-1.1c0.7,1.5,1.7,2.8,3.1,3.7
		c1.4,1,3,1.4,4.8,1.4c2.1,0,3.7-0.5,5-1.5s1.9-2.5,1.9-4.5c0-1.3-0.4-2.5-1.1-3.4s-1.7-1.7-2.8-2.4c-1.2-0.6-2.4-1.2-3.7-1.7
		c-1.1-0.4-2.2-0.9-3.4-1.4c-1.1-0.5-2.1-1.1-3-1.8c-0.9-0.7-1.6-1.6-2.2-2.6c-0.5-1-0.8-2.2-0.8-3.6s0.4-2.7,1.1-3.9
		c0.8-1.2,1.8-2.1,3.3-2.8c1.4-0.7,3.2-1.1,5.2-1.1c1.6,0,3,0.2,4.3,0.7s2.3,1.2,3.2,2c0.8,0.9,1.4,1.8,1.8,2.9l-3.1,1
		c-0.4-1.1-1.2-2-2.3-2.6c-1.1-0.7-2.5-1-4.1-1c-1.9,0-3.3,0.4-4.4,1.3c-1.1,0.8-1.6,2-1.6,3.5c0,1.1,0.4,2.1,1.1,2.9s1.6,1.4,2.7,2
		c1.1,0.5,2.3,1.1,3.6,1.6c1.1,0.4,2.2,0.9,3.4,1.5c1.1,0.6,2.2,1.2,3.1,2s1.7,1.8,2.3,2.9c0.6,1.1,0.9,2.5,0.9,4.1
		c0,2-0.4,3.6-1.3,5s-2.1,2.4-3.7,3.1C300.3,112.3,298.5,112.6,296.5,112.6z"/>
	<path class="st0" d="M314.9,112.1V79.3h3.3V112L314.9,112.1L314.9,112.1z"/>
	<path class="st0" d="M334.4,112.1V82.5h-9.1v-3.2h21.4v3.2h-9.1v29.6H334.4z"/>
	<path class="st0" d="M346.5,112.1L358,79.4h2.9l11.5,32.7H369l-2.9-8.4h-13.2l-2.9,8.4C350,112.1,346.5,112.1,346.5,112.1z
		 M353.8,100.8h11.3L360.7,88c-0.1-0.3-0.2-0.7-0.4-1.2c-0.2-0.5-0.3-1-0.5-1.5s-0.3-0.9-0.4-1.3c-0.1,0.3-0.2,0.7-0.4,1.3
		s-0.3,1-0.5,1.5s-0.3,0.9-0.4,1.2L353.8,100.8z"/>
	<path class="st0" d="M381.3,112.1V82.5h-9.1v-3.2h21.4v3.2h-9.1v29.6H381.3z"/>
	<path class="st0" d="M80.4,67.3l15.3,12v60.8L80.4,91.3V67.3L80.4,67.3z"/>
	<path class="st0" d="M70.1,99.3L89,141.9L53.8,112V43.5l16.3-12.8V99.3z"/>
	<path class="st0" d="M43.5,120.1L84,146.9l-56.8-14V80.1l16.3-12.8V120.1L43.5,120.1z"/>
	<path class="st0" d="M17,140.1v0.8l65.3,12.8H0.6v-36.9L16.9,104L17,140.1L17,140.1z"/>
</g>
</svg>
