<?xml version="1.0" encoding="UTF-8"?>
<svg id="Ebene_1" data-name="Ebene 1" xmlns="http://www.w3.org/2000/svg" viewBox="0 0 120 120">
  <defs>
    <style>
      .cls-1 {
        fill: #55fc27;
      }
    </style>
  </defs>
  <path class="cls-1" d="m10.79,8.07c13.63,15.18,27.26,30.36,40.89,45.53l5.18,5.77c1.67,1.87,3.5,3.67,5.05,5.63.16.21.56.62.55.86,0,0-.11-.04-.1-.06-.12.74-1.08,1.53-1.55,2.05-1.51,1.67-3.04,3.33-4.61,4.95-6.2,6.44-12.84,12.45-19.85,18-7.77,6.15-16.05,11.66-24.66,16.56-3.59,2.05-.36,7.6,3.25,5.55,16.31-9.29,31.36-20.84,44.51-34.23,1.63-1.66,3.24-3.36,4.81-5.08,1.65-1.8,3.61-3.67,4.29-6.09.78-2.77-.46-5.16-2.23-7.21-1.72-1.99-3.52-3.92-5.27-5.87-7.14-7.95-14.28-15.91-21.42-23.86C31.52,21.55,23.42,12.54,15.33,3.52c-1.16-1.29-3.36-1.18-4.54,0-1.28,1.29-1.16,3.25,0,4.54"/>
  <path class="cls-1" d="m63.84,19.86c13.46,12.2,26.41,24.97,38.78,38.28,1.5,1.62,3,3.24,4.48,4.87,1.09,1.19,2.42,2.49,2.86,4.07.33,1.18-.17,2.21-1.01,3.22-1.24,1.49-2.85,2.67-4.36,3.87-7.41,5.88-14.82,11.76-22.23,17.64l-25.38,20.14c-1.36,1.08-1.13,3.42,0,4.55,1.34,1.34,3.18,1.08,4.54,0,15.59-12.37,31.18-24.74,46.77-37.11,3.18-2.53,7.04-5.28,7.95-9.52,1.06-4.91-2.03-8.58-5.12-11.96-6.35-6.96-12.86-13.78-19.51-20.45-7.56-7.57-15.31-14.95-23.23-22.13-1.29-1.16-3.28-1.27-4.54,0-1.18,1.18-1.29,3.38,0,4.54"/>
</svg>