<?xml version="1.0" encoding="UTF-8"?>
<svg id="Ebene_2" data-name="Ebene 2" xmlns="http://www.w3.org/2000/svg" viewBox="0 0 85 53">
  <defs>
    <style>
      .cls-1 {
        fill: #fff;
      }
      .cls-2 {
        fill: #55fc27;
      }
    </style>
  </defs>
  <g id="Ebene_1-2" data-name="Ebene 1">
    <path class="cls-1" d="m0,7v26l51,2s-2,16-1,16,14,2,14,2l21-26-9-19L54,0l-12,8,6,7L0,7Z"/>
    <path class="cls-2" d="m72.96,26.57c-.23-1.6-1.25-2.9-2.2-4.15-4.19-5.52-9.28-10.26-15.07-14.07-1.62-1.06-3.12,1.53-1.51,2.59,4.35,2.86,8.28,6.29,11.7,10.2-18.19-.32-36.37-.64-54.56-.96-1.93-.03-1.93,2.97,0,3,18.8.33,37.6.66,56.39.99.23,0,.42-.04.6-.11.47.6.91,1.22,1.28,1.87.79,1.4.18,2.32-.84,3.37-2.12,2.2-4.55,4.06-7.17,5.62-1.66.99-.15,3.58,1.51,2.59,2.97-1.77,5.87-3.93,8.18-6.52,1.11-1.25,1.93-2.71,1.69-4.42"/>
  </g>
</svg>