<?xml version="1.0" encoding="utf-8"?>
<!-- Generator: Adobe Illustrator 27.5.0, SVG Export Plug-In . SVG Version: 6.00 Build 0)  -->
<svg version="1.1" id="Ebene_1" xmlns="http://www.w3.org/2000/svg" xmlns:xlink="http://www.w3.org/1999/xlink" x="0px" y="0px"
	 viewBox="0 0 300 100" style="enable-background:new 0 0 300 100;" xml:space="preserve">
<style type="text/css">
	.st0{fill-rule:evenodd;clip-rule:evenodd;fill:#FFFFFF;}
	.st1{fill:#00963E;}
	.st2{fill-rule:evenodd;clip-rule:evenodd;fill:#E3000B;}
	.st3{fill:#FFFFFF;}
	.st4{fill:#FFFFFF;stroke:#000000;stroke-width:0.25;stroke-miterlimit:10;}
	.st5{fill:#2B2B2A;}
	.st6{fill:#55FC27;}
</style>
<g id="Ebene_1-2">
	<g>
		<g>
			<path class="st6" d="M173,10.9c-20,0-36.3,16.4-36.3,36.4s16.4,36.3,36.4,36.3c20,0,36.3-16.4,36.3-36.4S193,10.9,173,10.9
				L173,10.9z M173.1,63.4c-8.9,0-16.2-7.2-16.2-16.1c0-8.9,7.2-16.2,16.1-16.2c8.9,0,16.2,7.2,16.2,16.1S182,63.4,173.1,63.4
				L173.1,63.4z"/>
			<path class="st6" d="M80.9,14.4c-3.6-4.2-10-4.7-14.2-1.1L36.1,39.6c-2.2,1.9-3.5,4.7-3.5,7.7c0,2.9,1.3,5.7,3.5,7.7l30.5,26.3
				c1.9,1.6,4.3,2.4,6.6,2.4c2.8,0,5.7-1.2,7.7-3.5c3.6-4.2,3.2-10.6-1.1-14.2L58.2,47.3l21.6-18.6C84,25,84.5,18.6,80.9,14.4
				L80.9,14.4z"/>
			<path class="st6" d="M110.9,83.6c-6,0-10.9-4.9-10.9-10.9V49c0-6,4.9-10.9,10.9-10.9S121.8,43,121.8,49v23.7
				C121.8,78.7,116.9,83.6,110.9,83.6z"/>
			<path class="st6" d="M10.9,56.1C4.9,56.1,0,51.3,0,45.3V21.5c0-6,4.9-10.9,10.9-10.9s10.9,4.9,10.9,10.9v23.7
				C21.8,51.3,16.9,56.1,10.9,56.1L10.9,56.1z"/>
		</g>
		<g>
			<path class="st3" d="M111.5,45.5c0-2-3.1-2-3.1,0c0,12.2,0.4,24.4,1.2,36.6c0.3,3.8,0.5,7.6,0.8,11.4c0.1,0.8,0.7,1.6,1.6,1.6
				c0.8,0,1.6-0.7,1.6-1.6c-0.9-12.2-1.8-24.4-2-36.6C111.6,53.2,111.5,49.4,111.5,45.5L111.5,45.5z"/>
			<path class="st3" d="M116.6,19.3c-1,0.4-2.1,0.9-3.1,1.3c0.6-0.6,0.5-1.6,0-2.2c-0.6-0.6-1.5-0.6-2.2,0c-0.6,0.5-1.2,1.1-1.7,1.7
				c-0.1-0.6-0.3-1.2-0.4-1.8c-0.2-0.8-1.1-1.3-1.9-1.1c-0.8,0.3-1.3,1.1-1.1,1.9c0.1,0.6,0.3,1.3,0.4,1.9c-0.8-0.4-1.5-0.8-2.3-1.2
				c-0.7-0.4-1.7-0.2-2.1,0.6c-0.4,0.7-0.2,1.7,0.6,2.1c1.1,0.6,2.3,1.2,3.5,1.8c-0.2,0.1-0.4,0.2-0.5,0.3c-0.7,0.4-1,1.4-0.6,2.1
				c0,0.1,0.1,0.2,0.2,0.2c-0.2,0.5-0.4,1-0.6,1.6c-0.3,0.8,0.3,1.7,1.1,1.9c0.9,0.2,1.6-0.3,1.9-1.1c0.1-0.4,0.3-0.9,0.5-1.3
				c0,0,0-0.1,0-0.1c0,0,0-0.1,0.1-0.1c0.4,0.4,1,0.6,1.5,0.4c0.8-0.3,1.3-1.1,1.1-1.9c0-0.1,0-0.1,0-0.2c0.2,0.1,0.5,0.2,0.7,0.3
				c0.8,0.3,1.7-0.3,1.9-1.1c0.1-0.5,0-0.9-0.2-1.2c1.4-0.6,2.8-1.3,4.2-1.8c0.8-0.3,1.3-1,1.1-1.9C118.3,19.6,117.4,19,116.6,19.3
				L116.6,19.3z"/>
			<path class="st3" d="M90.5,76.3C79.7,72,69,67.5,58.3,63C46.6,58.2,35,53.3,23.4,48.5c-3.8-1.6-7.7-3.2-11.5-4.7
				c0-0.3,0-0.6-0.1-0.9c7.6-1.9,15.2-4,22.6-6.3c8.8-2.7,17.6-5.6,26.2-8.8c4.7-1.7,9.4-3.6,14-5.5c0.7-0.3,1.2-1,1-1.8
				c-0.2-0.7-1-1.3-1.8-1C65.6,23,57.1,26.1,48.6,29c-8.9,3-18,5.8-27.1,8.3c-3.3,0.9-6.6,1.8-10,2.6c-0.5-6.5-1.1-13.1-1.9-19.6
				c-0.6-4.8-1.3-9.6-2-14.4c-0.1-0.8-1.1-1.2-1.8-1c-0.8,0.2-1.1,1-1,1.8C6.1,14.7,7.2,22.9,7.9,31c0.3,3.2,0.6,6.4,0.8,9.6
				c-1.1,0.3-2.2,0.5-3.3,0.8c-0.6,0.1-1.1,0.8-1.1,1.4c0,0.7,0.5,1.1,1.1,1.4c1.2,0.5,2.4,1,3.6,1.5c0.2,2.9,0.4,5.8,0.5,8.7
				c0.3,4.8,0.5,9.5,0.7,14.3c0,0.8,0.6,1.4,1.4,1.4c0.7,0,1.5-0.7,1.4-1.4c-0.3-7.3-0.7-14.6-1.2-21.8c8.6,3.5,17.1,7.1,25.6,10.6
				c11.6,4.8,23.3,9.7,34.9,14.5c5.7,2.4,11.4,4.7,17.1,7c0.7,0.3,1.6-0.3,1.8-1C91.7,77.3,91.2,76.6,90.5,76.3L90.5,76.3z"/>
			<path class="st3" d="M197,40c-0.3-2.4-0.8-4.7-1.8-7c-1-2.3-2.5-4.3-4.2-6.1c-3.8-3.9-8.9-6-14.4-6.2
				c-11.8-0.3-21.5,8.1-27.2,17.8c-1.5,2.6-2.8,5.5-3.3,8.4c-0.5,3.1-0.2,6.1,1.1,9c1.1,2.7,2.9,5,4.8,7.2c1.8,2.1,3.8,4,6,5.7
				c4.4,3.3,9.7,5.1,15.3,4.4c5.7-0.7,10.8-3.8,15.4-7.1c1.1-0.8,2.3-1.7,3.4-2.6c3.6-2.5,4.7-6.8,5.2-10.9
				C197.8,48.5,197.5,44.2,197,40L197,40z M194.6,49.3c0,1-0.1,2.1-0.2,3.1c-0.1,0.8-0.2,1.7-0.4,2.7c-0.5,2.2-1.3,4.2-3,5.7
				c-2,1.8-4.3,3.4-6.5,4.8c-2.3,1.5-4.8,2.9-7.4,3.8c-2.4,0.8-4.9,1.3-7.5,1.1c-2.3-0.2-4.6-0.9-6.6-2c-4.4-2.3-8.1-6-10.9-10
				c-1.5-2.1-2.8-4.5-3.2-7.2c-0.3-2.7,0.3-5.4,1.3-7.9c1-2.5,2.5-4.8,4-6.9c1.5-2,3.1-4,4.9-5.7c3.8-3.6,8.4-6.2,13.6-7
				c4.9-0.8,9.9,0.2,13.9,3c3.6,2.5,6.2,6.4,7.2,10.7c0.1,0.5,0.2,1.1,0.3,1.7c0,0.1,0,0.2,0,0.2c0,0,0,0,0,0.1
				c0,0.2,0.1,0.5,0.1,0.7c0.1,0.9,0.2,1.9,0.3,2.8C194.6,45.1,194.7,47.2,194.6,49.3L194.6,49.3z"/>
		</g>
	</g>
</g>
</svg>
