<?xml version="1.0" encoding="UTF-8"?>
<svg id="Ebene_2" data-name="Ebene 2" xmlns="http://www.w3.org/2000/svg" viewBox="0 0 438.4 189.03">
  <g id="Ebene_1-2" data-name="Ebene 1">
    <g>
      <g>
        <path d="m362.1,12.66c-41.97.1-76.04,34.33-75.94,76.3.1,41.97,34.33,76.04,76.3,75.94,41.97-.1,76.04-34.33,75.94-76.3-.1-41.97-34.33-76.04-76.3-75.94Zm.26,109.96c-18.66.04-33.88-15.1-33.92-33.76-.04-18.66,15.1-33.88,33.76-33.92,18.66-.04,33.88,15.1,33.92,33.76.04,18.66-15.1,33.88-33.76,33.92Z"/>
        <path d="m169.27,20.03c-7.62-8.85-20.97-9.85-29.82-2.23l-63.84,54.96c-4.66,4.02-7.35,9.87-7.35,16.02s2.68,12.01,7.35,16.02l63.84,54.96c3.99,3.44,8.9,5.12,13.78,5.12,5.94,0,11.85-2.49,16.03-7.35,7.62-8.85,6.62-22.2-2.23-29.82l-45.23-38.94,45.23-38.94c8.85-7.62,9.85-20.97,2.23-29.82Z"/>
        <path d="m232.18,164.89c-12.57,0-22.77-10.19-22.77-22.77v-49.71c0-12.57,10.19-22.77,22.77-22.77s22.77,10.19,22.77,22.77v49.71c0,12.57-10.19,22.77-22.77,22.77Z"/>
        <path d="m22.77,107.36c-12.57,0-22.77-10.19-22.77-22.77v-49.71C0,22.31,10.19,12.12,22.77,12.12s22.77,10.19,22.77,22.77v49.71c0,12.57-10.19,22.77-22.77,22.77Z"/>
      </g>
      <g>
        <path d="m233.51,85.18c0-4.19-6.5-4.19-6.51,0-.04,25.61.84,51.16,2.6,76.71.55,7.96,1.14,15.92,1.74,23.88.13,1.75,1.4,3.25,3.25,3.25,1.66,0,3.38-1.49,3.25-3.25-1.91-25.53-3.7-51.05-4.16-76.65-.14-7.98-.19-15.96-.18-23.94Z" fill="#55fc27"/>
        <path d="m244.2,30.19c-2.18.87-4.34,1.79-6.49,2.74,1.19-1.16,1.14-3.4-.07-4.52-1.36-1.25-3.24-1.21-4.6,0-1.25,1.11-2.41,2.3-3.53,3.52-.27-1.29-.54-2.57-.81-3.86-.35-1.67-2.4-2.79-4-2.27-1.76.57-2.65,2.21-2.27,4,.28,1.33.56,2.66.83,3.98-1.61-.82-3.2-1.66-4.77-2.56-1.47-.85-3.63-.39-4.45,1.17-.82,1.55-.41,3.54,1.17,4.45,2.36,1.36,4.78,2.59,7.24,3.75-.38.21-.77.41-1.15.63-1.52.88-2.05,2.94-1.17,4.45.1.17.22.32.34.47-.45,1.09-.88,2.18-1.25,3.3-.54,1.61.62,3.63,2.27,4,1.8.41,3.42-.54,4-2.27.31-.91.64-1.82,1-2.71.02-.06.05-.12.07-.18.04-.1.09-.2.13-.3.83.85,2.14,1.28,3.24.93,1.76-.57,2.65-2.21,2.27-4-.02-.11-.05-.21-.07-.32.5.18,1,.38,1.5.55,1.61.54,3.63-.62,4-2.27.22-.96.04-1.87-.43-2.6,2.87-1.35,5.77-2.64,8.7-3.81,1.63-.65,2.77-2.17,2.27-4-.43-1.55-2.36-2.93-4-2.27Z" fill="#55fc27"/>
        <path d="m189.4,149.64c-22.53-9.15-44.97-18.5-67.41-27.85-24.36-10.15-48.7-20.34-73.07-30.44-8.03-3.33-16.07-6.64-24.12-9.93-.04-.63-.1-1.25-.14-1.88,15.91-3.98,31.72-8.34,47.41-13.1,18.5-5.61,36.83-11.77,54.95-18.48,9.83-3.64,19.61-7.45,29.31-11.43,1.5-.61,2.56-1.99,2.1-3.69-.39-1.42-2.18-2.71-3.69-2.1-17.46,7.15-35.14,13.76-53,19.85-18.7,6.37-37.59,12.16-56.64,17.39-6.94,1.9-13.91,3.72-20.89,5.48-1.05-13.7-2.37-27.39-4.05-41.03-1.24-10.1-2.66-20.18-4.23-30.24-.25-1.6-2.26-2.49-3.69-2.1-1.71.47-2.35,2.08-2.1,3.69,2.64,16.93,4.83,33.94,6.47,51,.65,6.71,1.2,13.42,1.7,20.14-2.3.56-4.59,1.12-6.89,1.67-1.27.3-2.2,1.61-2.2,2.89,0,1.42.96,2.39,2.2,2.89,2.55,1.03,5.09,2.08,7.64,3.12.4,6.1.78,12.21,1.11,18.31.54,9.98,1.01,19.95,1.46,29.93.07,1.62,1.33,3,3,3,1.57,0,3.07-1.37,3-3-.69-15.25-1.43-30.5-2.41-45.73,17.9,7.34,35.76,14.77,53.61,22.21,24.36,10.15,48.7,20.34,73.08,30.44,11.95,4.95,23.91,9.88,35.9,14.75,1.5.61,3.3-.66,3.69-2.1.47-1.72-.59-3.08-2.1-3.69Z" fill="#55fc27"/>
        <path d="m412.35,73.51c-.65-5.09-1.69-9.86-3.8-14.56-2.13-4.74-5.19-9.1-8.83-12.8-7.96-8.1-18.73-12.65-30.07-12.92-24.73-.59-45.05,17.01-56.9,37.3-3.18,5.45-5.88,11.41-6.93,17.67-1.08,6.46-.33,12.74,2.25,18.75,2.4,5.6,6.11,10.55,10.05,15.16,3.77,4.41,7.98,8.42,12.64,11.88,9.2,6.85,20.41,10.75,31.93,9.25,11.99-1.56,22.63-7.92,32.26-14.9,2.4-1.74,4.77-3.54,7.12-5.35,7.45-5.14,9.94-14.32,10.95-22.85,1.04-8.83.46-17.84-.66-26.63Zm-4.85,19.44c-.05,2.19-.18,4.37-.42,6.55-.18,1.65-.48,3.58-.94,5.59-1.07,4.64-2.77,8.75-6.31,12.01-4.11,3.78-9.02,7.06-13.66,10.12-4.88,3.22-10.03,6.07-15.56,8-5.08,1.77-10.34,2.68-15.73,2.29-4.8-.35-9.61-1.9-13.92-4.15-9.18-4.8-16.96-12.53-22.89-20.95-3.15-4.47-5.89-9.51-6.61-15.01-.73-5.62.6-11.33,2.76-16.51,2.14-5.14,5.14-9.96,8.36-14.49,3.04-4.27,6.48-8.27,10.3-11.86,7.95-7.48,17.68-12.9,28.5-14.73,10.22-1.73,20.65.33,29.05,6.27,7.46,5.27,12.98,13.46,15.06,22.39.27,1.14.47,2.3.64,3.46.02.17.05.35.07.52,0,.05.01.08.02.13.07.5.13,1,.19,1.51.24,1.96.45,3.93.62,5.91.37,4.31.56,8.65.45,12.98Z" fill="#55fc27"/>
      </g>
    </g>
  </g>
</svg>