<?xml version="1.0" encoding="utf-8"?>
<!-- Generator: Adobe Illustrator 27.5.0, SVG Export Plug-In . SVG Version: 6.00 Build 0)  -->
<svg version="1.1" id="Ebene_1" xmlns="http://www.w3.org/2000/svg" xmlns:xlink="http://www.w3.org/1999/xlink" x="0px" y="0px"
	 viewBox="0 0 244.8 5.7" style="enable-background:new 0 0 244.8 5.7;" xml:space="preserve">
<style type="text/css">
	.st0{fill:#EAEAEA;stroke:#000000;stroke-miterlimit:10;}
	.st1{fill:#FFFFFF;}
	.st2{fill:#55FC27;}
	.st3{fill:none;stroke:#000000;stroke-width:2;stroke-linecap:round;stroke-miterlimit:10;}
</style>
<g>
	<g>
		<path class="st2" d="M86.3,5.7c-12.7,0-25.5-0.5-38-1.1C42.6,4.4,36.6,4.2,30.8,4C23.6,3.7,16.3,3.8,9.3,3.8c-2.8,0-5.5,0-8.3,0
			c-0.6,0-1-0.4-1-1s0.4-1,1-1c2.7,0,5.5,0,8.2,0c7.1,0,14.4-0.1,21.6,0.2c5.8,0.2,11.8,0.5,17.5,0.7c15.8,0.7,32.2,1.4,48.3,0.9
			l9.9-0.3c20.1-0.6,41-1.1,61.5-1.1c0.2,0,0.5,0,0.7,0c6.8,0,13.7-0.2,20.4-0.4l2.3-0.1c5.6-0.2,11.4-0.3,16.9-0.4
			c11.3-0.2,23-0.4,34.4-1.3c0.6,0,1,0.4,1.1,0.9S243.5,2,243,2c-11.5,0.9-23.2,1.1-34.5,1.3c-5.5,0.1-11.3,0.2-16.9,0.4l-2.3,0.1
			c-6.7,0.2-13.6,0.4-20.5,0.4c-0.2,0-0.5,0-0.7,0c-20.5,0-41.3,0.6-61.4,1.1l-9.9,0.3C93.3,5.7,89.8,5.7,86.3,5.7z"/>
	</g>
</g>
</svg>
