<?xml version="1.0" encoding="utf-8"?>
<!-- Generator: Adobe Illustrator 27.5.0, SVG Export Plug-In . SVG Version: 6.00 Build 0)  -->
<svg version="1.1" id="Ebene_1" xmlns="http://www.w3.org/2000/svg" xmlns:xlink="http://www.w3.org/1999/xlink" x="0px" y="0px"
	 viewBox="0 0 300 100" style="enable-background:new 0 0 300 100;" xml:space="preserve">
<style type="text/css">
	.st0{fill-rule:evenodd;clip-rule:evenodd;fill:#FFFFFF;}
	.st1{fill:#00963E;}
	.st2{fill-rule:evenodd;clip-rule:evenodd;fill:#E3000B;}
	.st3{fill:#FFFFFF;}
	.st4{fill:#FFFFFF;stroke:#000000;stroke-width:0.25;stroke-miterlimit:10;}
	.st5{fill:#2B2B2A;}
	.st6{fill:#55FC27;}
</style>
<g>
	<path class="st3" d="M25.8,36.8H0v18.4h61l-0.1-28.8L25.8,36.8L25.8,36.8z M60.9,26.4L60.9,26.4L60.9,26.4L60.9,26.4z"/>
	<g>
		<path class="st5" d="M55.3,51.8l-1.6-10.5h-2l-2,6.1c-0.3,0.7-0.4,1.3-0.6,2.1c-0.2-0.8-0.4-1.6-0.6-2.1l-2-6.1h-2l-1.6,10.5h1.8
			l0.7-5.4c0.1-1,0.2-1.8,0.3-2.7c0.2,0.8,0.3,1.6,0.7,2.5l1.9,5.7h1.8l1.9-6.1c0.3-0.8,0.4-1.5,0.5-2c0.1,0.7,0.2,1.5,0.3,2.6
			l0.8,5.6L55.3,51.8L55.3,51.8z M42.1,40.5c-0.4-0.1-0.8-0.2-1.2-0.2c-2,0-3,1.1-3,3.2v0.6h-1.5v1.3h1.5v6.5h1.7v-6.5h2v-1.3h-2
			v-0.6c0-1.2,0.4-1.8,1.4-1.8c0.3,0,0.7,0.1,1.1,0.2C42.1,41.9,42.1,40.5,42.1,40.5z M34.2,51.8V41.3h-1.7v4.3h-5v-4.3h-1.7v10.5
			h1.7v-4.7h5v4.7H34.2z"/>
		<path class="st3" d="M225.7,43.6c0,3.7-2,8.6-6.2,8.6c-3.4,0-5-2.8-5-7.5c0-6.3,2.8-8.8,7.2-8.8c1.3,0,2.6,0.2,4.1,0.5L225.7,43.6
			L225.7,43.6z M228.8,54.4V23.8h-3.1v9.7c-1.4-0.1-2.6-0.2-3.9-0.2c-6.4,0-10.7,4.1-10.7,11.6c0,6.1,2.5,9.8,7.7,9.8
			c3.4,0,6-1.9,7.2-5h0.1c-0.3,1.2-0.4,3.3-0.4,4.5L228.8,54.4L228.8,54.4L228.8,54.4z M204.2,23.8h-3.1v30.6h3.1
			C204.2,54.4,204.2,23.8,204.2,23.8z M190.9,43.8c0,5.7-3,8.2-6.3,8.2c-4.1,0-6.4-2.9-6.4-8.2c0-5.6,3.1-8,6.4-8
			C188.9,35.8,190.9,38.8,190.9,43.8 M194.2,43.6c0-7.6-4.1-10.4-9.2-10.4c-6.3,0-9.9,5-9.9,10.9c0,7.2,3.6,10.7,9.2,10.7
			C190.4,54.7,194.2,49.8,194.2,43.6 M168.3,54.4V40c0-4.7-2.3-6.8-6.2-6.8c-4.2,0-6.4,3-7.2,5c-0.1-1.6-1.1-5-5.8-5
			c-3.4,0-6.2,2-7.3,5h-0.1c0.3-1.3,0.4-3.3,0.4-4.7h-3.1v20.8h3.2v-9.8c0-5.1,2.8-8.8,6.3-8.8c3.2,0,3.8,2.3,3.8,5.1v13.4h3.1v-9.8
			c0-5.4,3.1-8.8,6.3-8.8c3,0,3.8,2,3.8,5.2v13.4L168.3,54.4L168.3,54.4z M132.5,54.2l-0.4-2.7c-0.8,0.2-1.8,0.3-2.8,0.3
			c-2.5,0-3.2-1-3.2-4.7V36h6.1v-2.5h-6.1v-7.8l-3.2,0.9v6.9h-4.5V36h4.5v12.5c0,4.3,1.2,6.2,5.4,6.2
			C129.6,54.7,131.2,54.4,132.5,54.2 M111.8,41.1h-10.5c0.5-3.5,2.6-5.6,5.6-5.6C109.9,35.5,111.9,37.7,111.8,41.1 M115.1,41.7
			c0-4.6-2.4-8.6-8.1-8.6s-9.1,4.7-9.1,10.9c0,7.2,3.4,10.7,9.5,10.7c2.6,0,5-0.4,7.1-1.3l-0.5-2.6c-1.8,0.8-3.9,1.2-5.9,1.2
			c-4.7,0-7.2-2.6-6.9-8.7H115C115.1,42.7,115.1,42.2,115.1,41.7 M89.3,40.1c0,8-4.9,11.7-12,11.7c-1.2,0-2.9-0.1-4.1-0.3V28.7
			c1.2,0,3-0.1,4.6-0.1C85.5,28.5,89.3,32.5,89.3,40.1 M92.6,39.9c0-9.6-5.4-14-14.5-14c-2.9,0-6,0.1-8.1,0.1v28.3
			c1.9,0,4,0.1,6.9,0.1C86.1,54.4,92.6,49.7,92.6,39.9"/>
		<path class="st3" d="M228.5,76l-5.3-6.6l5.1-6.2h-2.6l-4.7,5.9v-5.9h-2V76h2v-6.3l4.7,6.3H228.5z M214.8,63.2h-2V76h2V63.2z
			 M209.5,72.1c0-4.1-5.6-3.1-5.6-5.7c0-1.1,0.7-1.8,2.4-1.8c0.8,0,1.5,0.2,2.2,0.3l0.2-1.8c-0.7-0.2-1.6-0.3-2.3-0.3
			c-3,0-4.6,1.5-4.6,3.7c0,4.2,5.6,3,5.6,5.7c0,1.4-1.1,1.9-2.5,1.9c-1,0-1.9-0.2-2.7-0.5l-0.3,1.9c0.8,0.3,1.8,0.3,2.9,0.3
			C207.5,76.2,209.5,74.5,209.5,72.1 M198.4,71v-7.9h-2v8c0,2.4-1,3.3-3,3.3c-2.4,0-2.9-1.3-2.9-3v-8.3h-2v8.5
			c0,2.4,0.9,4.5,4.9,4.5C196.5,76.2,198.4,74.5,198.4,71 M185.2,76l-1.9-12.8h-2.5l-2.5,7.5c-0.3,0.9-0.5,1.6-0.7,2.6
			c-0.3-1-0.5-1.8-0.7-2.7l-2.5-7.4h-2.5L170,76h2.1l0.8-6.6c0.2-1.2,0.3-2.2,0.4-3.4c0.2,1,0.4,1.9,0.8,3l2.3,6.9h2.1l2.4-7.4
			c0.4-1,0.5-1.8,0.7-2.5c0.1,0.8,0.2,1.9,0.4,3.1l1,6.8h2.2L185.2,76L185.2,76z M159.7,66.8c0,1.2-1,2.1-2.6,2.1h-1v-4.1h1.1
			C158.9,64.8,159.7,65.4,159.7,66.8 M162.7,76l-3.3-4.4c-0.3-0.4-0.7-0.9-1.1-1.3c1.9-0.3,3.4-1.5,3.4-3.6c0-2.6-1.9-3.4-4.5-3.4
			c-1.4,0-2.5,0-3.4,0.1v12.8h2v-5.6h0.3l3.9,5.6h2.6L162.7,76L162.7,76z M143.8,61.2c0-0.6-0.4-1.1-1.1-1.1c-0.5,0-1.1,0.4-1.1,1.1
			c0,0.5,0.4,1.1,1.1,1.1C143.4,62.1,143.8,61.7,143.8,61.2 M147.9,61.2c0-0.6-0.4-1.1-1.1-1.1s-1.1,0.4-1.1,1.1
			c0,0.5,0.4,1.1,1.1,1.1C147.5,62.1,147.9,61.7,147.9,61.2 M149.8,71.1v-7.9h-2v8c0,2.4-1,3.3-3,3.3c-2.4,0-2.9-1.3-2.9-3v-8.3h-2
			v8.5c0,2.4,0.9,4.5,4.9,4.5C148,76.2,149.8,74.5,149.8,71.1 M136.8,65v-1.8h-6.7V76h2v-5.7h4.3v-1.7h-4.2v-3.8L136.8,65L136.8,65
			L136.8,65z M121.4,76v-1.8h-4.7v-4h4.4v-1.7h-4.4V65h4.7v-1.8h-6.7V76L121.4,76L121.4,76z M112.1,76v-1.8h-4.4v-11h-2V76H112.1z
			 M101.5,71.1v-7.9h-2v8c0,2.4-1,3.3-3,3.3c-2.4,0-2.9-1.3-2.9-3v-8.3h-2v8.5c0,2.4,0.9,4.5,4.9,4.5
			C99.7,76.2,101.5,74.5,101.5,71.1 M87.2,76V63.2h-2v5.3h-6.1v-5.3h-2V76h2v-5.7h6.1V76H87.2z M73.6,75.5l-0.3-1.9
			c-0.7,0.3-1.8,0.6-2.7,0.6c-2.8,0-4.1-1.7-4.1-4.7c0-2.7,1.2-4.7,3.9-4.7c1,0,1.9,0.2,2.7,0.4l0.3-1.9c-0.9-0.3-1.9-0.4-2.8-0.4
			c-4.3,0-6.3,2.9-6.3,6.9c0,3.5,1.6,6.2,5.8,6.2C71.4,76.2,72.6,75.9,73.6,75.5 M61.8,72.2c0-4.1-5.7-3.1-5.7-5.7
			c0-1.1,0.7-1.8,2.4-1.8c0.8,0,1.5,0.2,2.2,0.3l0.2-1.8C60.2,63,59.3,63,58.6,63c-3,0-4.6,1.5-4.6,3.7c0,4.2,5.7,3,5.7,5.7
			c0,1.4-1.2,1.9-2.5,1.9c-1,0-1.9-0.2-2.7-0.5l-0.3,1.9c0.8,0.3,1.8,0.3,2.9,0.3C59.9,76.2,61.8,74.5,61.8,72.2 M50.6,76V63.2h-2
			v5.3h-6.1v-5.3h-2V76h2v-5.7h6.1V76H50.6z M37.1,75.5l-0.3-1.8c-0.7,0.3-1.8,0.6-2.7,0.6c-2.8,0-4.1-1.7-4.1-4.7
			c0-2.7,1.2-4.7,3.9-4.7c1,0,1.9,0.2,2.7,0.4l0.3-1.9c-0.9-0.3-1.8-0.4-2.8-0.4c-4.3,0-6.3,2.9-6.3,6.9c0,3.4,1.6,6.2,5.8,6.2
			C34.9,76.2,36.2,75.9,37.1,75.5 M23.1,69.6c0,3.2-1.9,4.7-3.8,4.7c-2.6,0-3.7-1.9-3.7-4.9c0-3.1,1.8-4.7,3.8-4.7
			C21.8,64.8,23.1,66.6,23.1,69.6 M25.3,69.5c0-4.3-2.3-6.5-5.7-6.5s-6.2,2.5-6.2,6.7c0,3.9,1.8,6.5,5.7,6.5
			C22.6,76.2,25.3,73.7,25.3,69.5 M10.2,76V63.2h-2v5.3h-6v-5.3H0V76h2v-5.7h6.1V76H10.2z"/>
	</g>
</g>
</svg>
