<?xml version="1.0" encoding="utf-8"?>
<!-- Generator: Adobe Illustrator 27.4.0, SVG Export Plug-In . SVG Version: 6.00 Build 0)  -->
<svg version="1.1" id="Ebene_1" xmlns="http://www.w3.org/2000/svg" xmlns:xlink="http://www.w3.org/1999/xlink" x="0px" y="0px"
	 viewBox="0 0 708.7 175.7" style="enable-background:new 0 0 708.7 175.7;" xml:space="preserve">
<style type="text/css">
	.st0{fill:#007887;}
	.st1{fill:#CFD600;}
	.st2{fill:#00A1B6;}
</style>
<path class="st0" d="M397.6,107c0.4-0.4,0.5-0.9,0.5-1.5V30.9h-10.2c-0.6,0-1.1,0.2-1.5,0.5c-0.4,0.4-0.5,0.9-0.5,1.5v74.6h10.2
	C396.8,107.5,397.3,107.4,397.6,107L397.6,107z"/>
<path class="st1" d="M398.2,30.9v-16c0-0.6-0.2-1.1-0.5-1.5c-0.4-0.4-0.9-0.5-1.5-0.5h-21.2c-0.6,0-1.1,0.2-1.5,0.5
	c-0.4,0.4-0.5,0.9-0.5,1.5L373,58c0,0.5-0.1,0.7-0.4,0.7c-0.3,0-0.5-0.1-0.5-0.5l-18.8-44c-0.4-1-1.1-1.5-2.3-1.5h-22.2
	c-0.6,0-1.1,0.2-1.5,0.5c-0.4,0.4-0.5,0.9-0.5,1.5v90.6c0,0.6,0.2,1.1,0.5,1.5c0.4,0.4,0.9,0.5,1.5,0.5H350c0.6,0,1.1-0.2,1.5-0.5
	c0.4-0.4,0.5-0.9,0.5-1.5l-0.3-43.8c0-0.4,0.1-0.6,0.3-0.6c0.2,0,0.4,0.1,0.6,0.5l18.8,44.4c0.4,1.1,1.3,1.6,2.4,1.6h12V32.9
	c0-0.6,0.2-1.1,0.5-1.5c0.4-0.4,0.9-0.5,1.5-0.5H398.2L398.2,30.9z M322,105.9c0-0.3,0-0.5-0.1-0.7l-23.9-90.6
	c-0.3-1.2-1-1.8-2.2-1.8H269c-1.2,0-1.9,0.6-2.2,1.8l-24.1,90.6c-0.2,0.7-0.1,1.3,0.2,1.7c0.3,0.4,0.8,0.6,1.6,0.6h22.2
	c1.3,0,2-0.6,2.3-1.8l2.3-10.4c0.2-0.5,0.5-0.7,0.8-0.7h20.3c0.4,0,0.6,0.2,0.8,0.7l2.2,10.4c0.3,1.2,1,1.8,2.3,1.8h22.5
	C321.4,107.5,322,107,322,105.9L322,105.9z M288.8,74.3c0.1,0.6-0.2,0.9-0.8,0.9h-11.4c-0.5,0-0.8-0.2-0.8-0.7v-0.3l6.2-27.7
	c0.1-0.4,0.2-0.5,0.5-0.5c0.2,0,0.4,0.2,0.5,0.5L288.8,74.3L288.8,74.3z M230.3,58c6-4,8.9-10.1,8.9-18.5c0-17.8-11-26.6-33.1-26.6
	h-29.8c-0.6,0-1.1,0.2-1.5,0.5c-0.4,0.4-0.5,0.9-0.5,1.5v90.6c0,0.6,0.2,1.1,0.5,1.5c0.4,0.4,0.9,0.5,1.5,0.5h32.5
	c9.5,0,17.2-2.3,23.2-6.8c6-4.6,8.9-11.3,8.9-20.4c0-9.4-3.6-16.5-10.7-21.4C229.7,58.7,229.7,58.4,230.3,58L230.3,58z M214.3,42.1
	c0,2.4-0.7,4.3-2,5.6c-1.4,1.3-3.3,2-6,2h-5.8c-0.5,0-0.8-0.3-0.8-0.8V35.4c0-0.5,0.3-0.8,0.8-0.8h5.8
	C211.7,34.6,214.3,37.1,214.3,42.1L214.3,42.1z M215.4,77.4c0,2.7-0.7,4.8-2,6.2c-1.4,1.4-3.2,2.2-5.7,2.2h-7.2
	c-0.5,0-0.8-0.3-0.8-0.8V69.8c0-0.5,0.3-0.8,0.8-0.8h7.3c2.4,0,4.3,0.7,5.6,2.2C214.7,72.7,215.4,74.8,215.4,77.4L215.4,77.4z
	 M169.3,106.2c0-0.4,0-0.7-0.1-0.9l-13.9-36.8c-0.1-0.5,0-0.8,0.4-1.1c4.1-2.3,7.4-5.6,9.7-9.8c2.3-4.2,3.4-9,3.4-14.5
	c0-6-1.2-11.2-3.7-15.8c-2.4-4.6-5.9-8.1-10.3-10.6c-4.4-2.5-9.5-3.8-15.3-3.8h-35.7c-0.6,0-1.1,0.2-1.5,0.5
	c-0.4,0.4-0.5,0.9-0.5,1.5v90.6c0,0.6,0.2,1.1,0.5,1.5c0.4,0.4,0.9,0.5,1.5,0.5h21.4c0.6,0,1.1-0.2,1.5-0.5c0.4-0.4,0.5-0.9,0.5-1.5
	V72c0-0.5,0.3-0.8,0.8-0.8h2.4c0.5,0,0.9,0.2,0.9,0.7l11.5,34.1c0.4,1.1,1.1,1.6,2.3,1.6h22.3C168.7,107.5,169.3,107.1,169.3,106.2
	L169.3,106.2z M143.5,43.3c0,2.6-0.8,4.7-2.3,6.2c-1.5,1.5-3.5,2.3-6,2.3h-7.2c-0.5,0-0.8-0.3-0.8-0.8V35.4c0-0.5,0.3-0.8,0.8-0.8
	h7.2c2.5,0,4.5,0.8,6,2.3C142.7,38.5,143.5,40.6,143.5,43.3L143.5,43.3z M90.9,93.6C93.6,88.8,95,83.3,95,77V14.9
	c0-0.6-0.2-1.1-0.5-1.5c-0.4-0.4-0.9-0.5-1.5-0.5H71.6c-0.6,0-1.1,0.2-1.5,0.5c-0.4,0.4-0.5,0.9-0.5,1.5v63.3c0,2.6-0.7,4.7-2.2,6.3
	c-1.4,1.6-3.3,2.4-5.5,2.4c-2.3,0-4.2-0.8-5.6-2.4c-1.4-1.6-2.1-3.7-2.1-6.3V14.9c0-0.6-0.2-1.1-0.5-1.5c-0.4-0.4-0.9-0.5-1.5-0.5
	H30.8c-0.6,0-1.1,0.2-1.5,0.5c-0.4,0.4-0.5,0.9-0.5,1.5V77c0,6.3,1.4,11.9,4.1,16.6c2.7,4.8,6.6,8.5,11.6,11.1
	c5,2.6,10.8,3.9,17.4,3.9c6.6,0,12.4-1.3,17.4-3.9C84.3,102.1,88.1,98.4,90.9,93.6L90.9,93.6z"/>
<path class="st0" d="M38.6,155.2c1.9,0,3.6-0.4,5-1.2c1.4-0.8,2.6-1.9,3.3-3.3c0.8-1.4,1.2-3,1.2-4.9v-12c0-1.8-0.4-3.4-1.2-4.8
	c-0.8-1.4-1.9-2.5-3.3-3.3c-1.4-0.8-3.1-1.2-5-1.2c-1.9,0-3.5,0.4-5,1.2c-1.4,0.8-2.5,1.9-3.3,3.3c-0.8,1.4-1.2,3-1.2,4.8v12
	c0,1.8,0.4,3.5,1.2,4.9c0.8,1.4,1.9,2.5,3.3,3.3C35,154.8,36.7,155.2,38.6,155.2L38.6,155.2L38.6,155.2z M38.6,150.9
	c-1.4,0-2.5-0.4-3.3-1.3c-0.8-0.9-1.2-2.1-1.2-3.5v-12.4c0-1.4,0.4-2.6,1.2-3.5c0.8-0.9,1.9-1.3,3.3-1.3c1.4,0,2.5,0.4,3.3,1.3
	c0.8,0.9,1.3,2.1,1.3,3.5v12.4c0,1.4-0.4,2.6-1.3,3.5C41.1,150.5,40,150.9,38.6,150.9L38.6,150.9L38.6,150.9z M61.6,155.1
	c2.4,0,4.4-0.6,5.9-1.7c1.5-1.1,2.2-2.7,2.2-4.6c0-1.3-0.3-2.4-1-3.2c-0.7-0.9-1.4-1.5-2.4-2c-0.9-0.5-2.1-1-3.4-1.4
	c-1.3-0.4-2.1-0.7-2.6-0.9c-0.5-0.2-0.9-0.5-1.3-0.8c-0.4-0.4-0.6-0.8-0.6-1.3c0-0.7,0.3-1.2,0.9-1.7c0.6-0.4,1.3-0.7,2.3-0.7
	c1,0,1.8,0.2,2.4,0.7c0.6,0.5,0.9,1.1,0.9,1.8v0.3c0,0.2,0.2,0.3,0.5,0.3h3.6c0.1,0,0.3,0,0.4-0.1c0.1-0.1,0.1-0.2,0.1-0.4v0
	c0-1.9-0.7-3.5-2.2-4.7c-1.4-1.2-3.4-1.8-5.8-1.8c-2.4,0-4.2,0.6-5.7,1.7c-1.4,1.2-2.1,2.7-2.1,4.7c0,1.9,0.6,3.3,1.7,4.2
	c1.2,1,2.7,1.7,4.6,2.4l1.1,0.4c1.2,0.4,2.1,0.8,2.7,1.2c0.6,0.4,0.9,0.9,0.9,1.6c0,0.7-0.3,1.3-0.9,1.7c-0.6,0.5-1.3,0.7-2.3,0.7
	c-1,0-1.8-0.2-2.5-0.7c-0.6-0.5-1-1.1-1-1.8v-0.3c0-0.1-0.1-0.2-0.1-0.2c-0.1-0.1-0.2-0.1-0.4-0.1H54c-0.1,0-0.3,0-0.4,0.1
	c-0.1,0.1-0.1,0.2-0.1,0.4v0.3c0,1.8,0.7,3.2,2.2,4.3C57.2,154.5,59.2,155.1,61.6,155.1L61.6,155.1L61.6,155.1z M85.2,136.3v-2.7
	c0-0.1,0-0.3-0.1-0.4c-0.1-0.1-0.2-0.1-0.4-0.1h-3.5c-0.1,0-0.2-0.1-0.2-0.2V128c0-0.1,0-0.3-0.1-0.4c-0.1-0.1-0.2-0.1-0.4-0.1h-3.8
	c-0.1,0-0.3,0-0.4,0.1c-0.1,0.1-0.1,0.2-0.1,0.4v4.9c0,0.1-0.1,0.2-0.2,0.2h-2c-0.1,0-0.3,0.1-0.4,0.1c-0.1,0.1-0.1,0.2-0.1,0.4v2.7
	c0,0.1,0,0.3,0.1,0.4c0.1,0.1,0.2,0.1,0.4,0.1h2c0.1,0,0.2,0.1,0.2,0.2v12.5c0,2,0.5,3.4,1.6,4.2c1.1,0.7,2.6,1.1,4.7,1.1h1.8
	c0.3-0.1,0.5-0.2,0.5-0.6V151c0-0.1,0-0.3-0.1-0.4c-0.1-0.1-0.2-0.1-0.4-0.1h-0.8c-0.9,0-1.5-0.2-1.9-0.6c-0.4-0.4-0.6-1.2-0.6-2.2
	V137c0-0.1,0.1-0.2,0.2-0.2h3.5c0.1,0,0.3,0,0.4-0.1C85.2,136.5,85.2,136.4,85.2,136.3L85.2,136.3L85.2,136.3z M96.6,154.8h3.7
	c0.3,0,0.5-0.2,0.6-0.5l3.7-19.2c0-0.1,0.1-0.1,0.1-0.1c0.1,0,0.1,0,0.1,0.1l4,19.2c0.1,0.3,0.2,0.5,0.6,0.5h3.8
	c0.3,0,0.5-0.2,0.6-0.5l6.4-28.8c0.1-0.4-0.1-0.6-0.5-0.6h-4c-0.3,0-0.5,0.2-0.6,0.5l-3.8,18.6c0,0.1-0.1,0.2-0.1,0.2
	c-0.1,0-0.1-0.1-0.1-0.2l-3.9-18.6c-0.1-0.3-0.2-0.5-0.6-0.5h-3.8c-0.3,0-0.5,0.2-0.6,0.5L98.6,144c0,0.1-0.1,0.2-0.1,0.2
	c-0.1,0-0.1,0-0.1-0.1l-4-18.6c-0.1-0.3-0.2-0.5-0.6-0.5h-4.1c-0.3,0-0.5,0.1-0.5,0.4v0.2l6.8,28.9
	C96.1,154.7,96.3,154.8,96.6,154.8L96.6,154.8L96.6,154.8z M131.3,150.9c-1,0-1.9-0.3-2.6-0.9c-0.7-0.6-1.1-1.3-1.3-2.3
	c-0.1-0.6-0.1-1.2-0.1-1.9c0-0.1,0.1-0.2,0.2-0.2H139c0.3,0,0.5-0.2,0.5-0.5c0-1.5-0.1-3-0.2-4.6c-0.2-2.5-1-4.4-2.4-5.8
	c-1.4-1.4-3.4-2-6-2c-2.3,0-4.2,0.6-5.7,1.9c-1.5,1.3-2.3,2.9-2.6,5c-0.1,1-0.2,2.4-0.2,4.1c0,2.1,0.2,3.9,0.6,5.3
	c0.4,1.9,1.3,3.4,2.7,4.5c1.4,1.1,3.2,1.6,5.4,1.6c2.1,0,3.8-0.5,5.2-1.5c1.4-1,2.3-2.3,2.8-4c0.1-0.3,0-0.6-0.4-0.6l-3.2-0.8
	c-0.3-0.1-0.5,0-0.6,0.3c-0.3,0.7-0.8,1.3-1.4,1.7C132.9,150.7,132.1,150.9,131.3,150.9L131.3,150.9L131.3,150.9z M130.8,137
	c1,0,1.8,0.3,2.4,0.8c0.6,0.6,1,1.3,1.1,2.3c0.1,0.4,0.1,1,0.2,1.8c0,0.1-0.1,0.2-0.2,0.2h-6.8c-0.1,0-0.2-0.1-0.2-0.2
	c0-0.5,0.1-1.2,0.2-2c0.1-0.9,0.5-1.6,1.1-2.2C129.2,137.2,129.9,137,130.8,137L130.8,137L130.8,137z M152.5,155.1
	c2.4,0,4.4-0.6,5.9-1.7c1.5-1.1,2.2-2.7,2.2-4.6c0-1.3-0.3-2.4-1-3.2c-0.7-0.9-1.4-1.5-2.4-2c-0.9-0.5-2.1-1-3.4-1.4
	c-1.3-0.4-2.1-0.7-2.6-0.9c-0.5-0.2-0.9-0.5-1.3-0.8c-0.4-0.4-0.6-0.8-0.6-1.3c0-0.7,0.3-1.2,0.9-1.7c0.6-0.4,1.3-0.7,2.3-0.7
	c1,0,1.8,0.2,2.4,0.7c0.6,0.5,0.9,1.1,0.9,1.8v0.3c0,0.2,0.2,0.3,0.5,0.3h3.6c0.1,0,0.3,0,0.4-0.1c0.1-0.1,0.1-0.2,0.1-0.4v0
	c0-1.9-0.7-3.5-2.2-4.7c-1.4-1.2-3.4-1.8-5.8-1.8c-2.4,0-4.2,0.6-5.7,1.7c-1.4,1.2-2.1,2.7-2.1,4.7c0,1.9,0.6,3.3,1.7,4.2
	c1.2,1,2.7,1.7,4.6,2.4l1.1,0.4c1.2,0.4,2.1,0.8,2.7,1.2c0.6,0.4,0.9,0.9,0.9,1.6c0,0.7-0.3,1.3-0.9,1.7c-0.6,0.5-1.3,0.7-2.3,0.7
	c-1,0-1.8-0.2-2.5-0.7c-0.6-0.5-1-1.1-1-1.8v-0.3c0-0.1-0.1-0.2-0.1-0.2c-0.1-0.1-0.2-0.1-0.4-0.1h-3.7c-0.1,0-0.3,0-0.4,0.1
	c-0.1,0.1-0.1,0.2-0.1,0.4v0.3c0,1.8,0.7,3.2,2.2,4.3C148.1,154.5,150.1,155.1,152.5,155.1L152.5,155.1L152.5,155.1z M176.1,136.3
	v-2.7c0-0.1,0-0.3-0.1-0.4c-0.1-0.1-0.2-0.1-0.4-0.1h-3.5c-0.1,0-0.2-0.1-0.2-0.2V128c0-0.1,0-0.3-0.1-0.4c-0.1-0.1-0.2-0.1-0.4-0.1
	h-3.8c-0.1,0-0.3,0-0.4,0.1c-0.1,0.1-0.1,0.2-0.1,0.4v4.9c0,0.1-0.1,0.2-0.2,0.2h-2c-0.1,0-0.3,0.1-0.4,0.1
	c-0.1,0.1-0.1,0.2-0.1,0.4v2.7c0,0.1,0,0.3,0.1,0.4c0.1,0.1,0.2,0.1,0.4,0.1h2c0.1,0,0.2,0.1,0.2,0.2v12.5c0,2,0.5,3.4,1.6,4.2
	c1.1,0.7,2.6,1.1,4.7,1.1h1.8c0.3-0.1,0.5-0.2,0.5-0.6V151c0-0.1,0-0.3-0.1-0.4c-0.1-0.1-0.2-0.1-0.4-0.1h-0.8
	c-0.9,0-1.5-0.2-1.9-0.6c-0.4-0.4-0.6-1.2-0.6-2.2V137c0-0.1,0.1-0.2,0.2-0.2h3.5c0.1,0,0.3,0,0.4-0.1
	C176.1,136.5,176.1,136.4,176.1,136.3L176.1,136.3L176.1,136.3z M191.6,133h-3.5c-0.1,0-0.2-0.1-0.2-0.2v-0.6c0-1.2,0.2-2,0.6-2.5
	c0.4-0.5,1.2-0.8,2.2-0.8h0.7c0.1,0,0.3,0,0.4-0.1c0.1-0.1,0.1-0.2,0.1-0.4v-2.9c0-0.1,0-0.3-0.1-0.4c-0.1-0.1-0.2-0.1-0.4-0.1h-0.9
	c-1.8,0-3.3,0.2-4.4,0.6c-1.1,0.4-1.9,1.2-2.4,2.2c-0.5,1-0.7,2.4-0.7,4.2v0.9c0,0.1-0.1,0.2-0.2,0.2h-2c-0.1,0-0.3,0.1-0.4,0.1
	c-0.1,0.1-0.1,0.2-0.1,0.4v2.9c0,0.1,0,0.3,0.1,0.4c0.1,0.1,0.2,0.1,0.4,0.1h2c0.1,0,0.2,0.1,0.2,0.2v17.1c0,0.1,0.1,0.3,0.1,0.4
	c0.1,0.1,0.2,0.1,0.4,0.1h3.9c0.1,0,0.3,0,0.4-0.1c0.1-0.1,0.1-0.2,0.1-0.4v-17.1c0-0.1,0.1-0.2,0.2-0.2h3.5c0.1,0,0.3,0,0.4-0.1
	c0.1-0.1,0.2-0.2,0.2-0.4v-2.9c0-0.1,0-0.3-0.2-0.4C191.9,133.1,191.7,133,191.6,133L191.6,133L191.6,133z M205,132.7
	c-2.3,0-4.2,0.6-5.7,1.7c-1.5,1.1-2.4,2.6-2.6,4.4c-0.1,0.3,0.1,0.4,0.5,0.5l4.2,0.3c0.3,0,0.5-0.2,0.6-0.5c0.1-0.7,0.5-1.2,1-1.6
	c0.5-0.4,1.2-0.6,2-0.6c1.1,0,1.9,0.3,2.5,0.9c0.6,0.6,0.9,1.4,0.9,2.5v1.1c0,0.1-0.1,0.2-0.2,0.2h-3.4c-2.7,0-4.8,0.6-6.3,1.7
	c-1.5,1.2-2.3,2.9-2.3,5.3c0,2.3,0.6,3.9,1.9,4.9c1.3,1,2.9,1.5,4.8,1.5c2.2,0,4-0.7,5.2-2c0.1-0.1,0.1-0.1,0.2-0.1
	c0.1,0,0.1,0.1,0.1,0.1v1.1c0,0.1,0,0.3,0.1,0.4c0.1,0.1,0.2,0.1,0.4,0.1h3.9c0.1,0,0.3,0,0.4-0.1c0.1-0.1,0.1-0.2,0.1-0.4v-14.5
	c0-1.4-0.3-2.6-1-3.7c-0.7-1.1-1.7-1.9-2.9-2.5C208.1,133,206.7,132.7,205,132.7L205,132.7L205,132.7z M204.2,151.2
	c-0.9,0-1.6-0.2-2.2-0.7c-0.6-0.5-0.8-1.2-0.8-2.1c0-1,0.4-1.8,1.1-2.3c0.7-0.5,1.7-0.8,3-0.8h2.9c0.1,0,0.2,0.1,0.2,0.2v2.2
	c0,1.1-0.4,1.9-1.2,2.5C206.3,150.8,205.3,151.2,204.2,151.2L204.2,151.2L204.2,151.2z M219.7,154.8h3.9c0.1,0,0.3,0,0.4-0.1
	c0.1-0.1,0.1-0.2,0.1-0.4v-28.8c0-0.1,0-0.3-0.1-0.4c-0.1-0.1-0.2-0.1-0.4-0.1h-3.9c-0.1,0-0.3,0-0.4,0.1c-0.1,0.1-0.1,0.2-0.1,0.4
	v28.8c0,0.1,0,0.3,0.1,0.4C219.4,154.8,219.6,154.8,219.7,154.8L219.7,154.8L219.7,154.8z M238.8,150.9c-1,0-1.9-0.3-2.6-0.9
	c-0.7-0.6-1.1-1.3-1.3-2.3c-0.1-0.6-0.1-1.2-0.1-1.9c0-0.1,0.1-0.2,0.2-0.2h11.5c0.3,0,0.5-0.2,0.5-0.5c0-1.5-0.1-3-0.2-4.6
	c-0.2-2.5-1-4.4-2.4-5.8c-1.4-1.4-3.4-2-6-2c-2.3,0-4.2,0.6-5.7,1.9c-1.5,1.3-2.3,2.9-2.6,5c-0.1,1-0.2,2.4-0.2,4.1
	c0,2.1,0.2,3.9,0.6,5.3c0.4,1.9,1.3,3.4,2.7,4.5c1.4,1.1,3.2,1.6,5.4,1.6c2.1,0,3.8-0.5,5.2-1.5c1.4-1,2.3-2.3,2.8-4
	c0.1-0.3,0-0.6-0.4-0.6l-3.2-0.8c-0.3-0.1-0.5,0-0.6,0.3c-0.3,0.7-0.8,1.3-1.4,1.7C240.4,150.7,239.7,150.9,238.8,150.9L238.8,150.9
	L238.8,150.9z M238.4,137c1,0,1.8,0.3,2.4,0.8c0.6,0.6,1,1.3,1.1,2.3c0.1,0.4,0.1,1,0.2,1.8c0,0.1-0.1,0.2-0.2,0.2h-6.8
	c-0.1,0-0.2-0.1-0.2-0.2c0-0.5,0.1-1.2,0.2-2c0.1-0.9,0.5-1.6,1.1-2.2C236.8,137.2,237.5,137,238.4,137L238.4,137L238.4,137z
	 M262.6,132.7c-2,0-3.6,0.7-4.7,2c-0.1,0.1-0.1,0.1-0.2,0.1c-0.1,0-0.1-0.1-0.1-0.2v-1.1c0-0.1,0-0.3-0.1-0.4
	c-0.1-0.1-0.2-0.1-0.4-0.1h-3.9c-0.1,0-0.3,0.1-0.4,0.1c-0.1,0.1-0.1,0.2-0.1,0.4v20.8c0,0.1,0,0.3,0.1,0.4c0.1,0.1,0.2,0.1,0.4,0.1
	h3.9c0.1,0,0.3,0,0.4-0.1c0.1-0.1,0.1-0.2,0.1-0.4v-14.2c0.1-1,0.5-1.7,1.1-2.3s1.4-0.9,2.3-0.9c1,0,1.8,0.3,2.4,1
	c0.6,0.7,0.9,1.6,0.9,2.8v13.6c0,0.1,0,0.3,0.1,0.4c0.1,0.1,0.2,0.1,0.4,0.1h3.9c0.1,0,0.3,0,0.4-0.1c0.1-0.1,0.1-0.2,0.1-0.4v-14.2
	c0-2.3-0.6-4.1-1.7-5.4C266.3,133.4,264.7,132.7,262.6,132.7L262.6,132.7L262.6,132.7z M276.3,154.8h16.4c0.1,0,0.3,0,0.4-0.1
	c0.1-0.1,0.1-0.2,0.1-0.4v-3.2c0-0.1-0.1-0.3-0.1-0.4c-0.1-0.1-0.2-0.1-0.4-0.1h-11.7c-0.1,0-0.2-0.1-0.2-0.2v-24.9
	c0-0.1,0-0.3-0.1-0.4c-0.1-0.1-0.2-0.1-0.4-0.1h-3.9c-0.1,0-0.3,0-0.4,0.1c-0.1,0.1-0.1,0.2-0.1,0.4v28.8c0,0.1,0,0.3,0.1,0.4
	C276,154.8,276.1,154.8,276.3,154.8L276.3,154.8L276.3,154.8z M300.8,130.3c0.9,0,1.6-0.3,2.2-0.9c0.6-0.6,0.9-1.3,0.9-2.2
	c0-0.9-0.3-1.6-0.9-2.2c-0.6-0.6-1.3-0.9-2.2-0.9s-1.7,0.3-2.2,0.9c-0.6,0.6-0.9,1.3-0.9,2.2c0,0.9,0.3,1.6,0.9,2.2
	C299.2,130,299.9,130.3,300.8,130.3L300.8,130.3L300.8,130.3z M298.9,154.8h3.9c0.1,0,0.3,0,0.4-0.1c0.1-0.1,0.1-0.2,0.1-0.4v-20.8
	c0-0.1,0-0.3-0.1-0.4c-0.1-0.1-0.2-0.1-0.4-0.1h-3.9c-0.1,0-0.3,0.1-0.4,0.1c-0.1,0.1-0.1,0.2-0.1,0.4v20.8c0,0.1,0,0.3,0.1,0.4
	C298.6,154.8,298.7,154.8,298.9,154.8L298.9,154.8L298.9,154.8z M326.6,139.2c-0.5-2.2-1.3-3.8-2.3-4.9c-1.1-1.1-2.5-1.6-4.3-1.6
	c-2,0-3.6,0.7-4.6,2c-0.1,0.1-0.1,0.1-0.2,0.1c-0.1,0-0.1-0.1-0.1-0.2v-1.1c0-0.1-0.1-0.3-0.1-0.4c-0.1-0.1-0.2-0.1-0.4-0.1h-3.9
	c-0.1,0-0.3,0.1-0.4,0.1c-0.1,0.1-0.1,0.2-0.1,0.4v28.8c0,0.1,0.1,0.3,0.1,0.4c0.1,0.1,0.2,0.1,0.4,0.1h3.9c0.1,0,0.3-0.1,0.4-0.1
	c0.1-0.1,0.1-0.2,0.1-0.4v-9.1c0-0.1,0-0.1,0.1-0.2c0.1,0,0.1,0,0.2,0.1c1,1.3,2.5,2,4.5,2c3.7,0,6-2.2,6.9-6.5
	c0.3-1.3,0.4-2.8,0.4-4.7C327,142.1,326.9,140.5,326.6,139.2L326.6,139.2L326.6,139.2z M321.5,148.4c-0.6,1.7-1.6,2.5-3.1,2.5
	c-1.5,0-2.4-0.9-2.9-2.6c-0.3-1-0.5-2.5-0.5-4.4c0-1.9,0.1-3.3,0.4-4.3c0.5-1.8,1.5-2.7,3-2.7c1.6,0,2.6,0.9,3.2,2.7
	c0.3,1.1,0.5,2.5,0.5,4.3C322.1,145.8,321.9,147.3,321.5,148.4L321.5,148.4L321.5,148.4z M349.5,139.2c-0.5-2.2-1.3-3.8-2.3-4.9
	c-1.1-1.1-2.5-1.6-4.3-1.6c-2,0-3.6,0.7-4.6,2c-0.1,0.1-0.1,0.1-0.2,0.1c-0.1,0-0.1-0.1-0.1-0.2v-1.1c0-0.1-0.1-0.3-0.1-0.4
	c-0.1-0.1-0.2-0.1-0.4-0.1h-3.9c-0.1,0-0.3,0.1-0.4,0.1c-0.1,0.1-0.1,0.2-0.1,0.4v28.8c0,0.1,0,0.3,0.1,0.4c0.1,0.1,0.2,0.1,0.4,0.1
	h3.9c0.1,0,0.3-0.1,0.4-0.1c0.1-0.1,0.1-0.2,0.1-0.4v-9.1c0-0.1,0-0.1,0.1-0.2c0.1,0,0.1,0,0.2,0.1c1,1.3,2.5,2,4.5,2
	c3.7,0,6-2.2,6.9-6.5c0.3-1.3,0.4-2.8,0.4-4.7C350,142.1,349.8,140.5,349.5,139.2L349.5,139.2L349.5,139.2z M344.5,148.4
	c-0.6,1.7-1.6,2.5-3.1,2.5c-1.5,0-2.4-0.9-2.9-2.6c-0.3-1-0.5-2.5-0.5-4.4c0-1.9,0.1-3.3,0.4-4.3c0.5-1.8,1.5-2.7,3-2.7
	c1.6,0,2.6,0.9,3.2,2.7c0.3,1.1,0.5,2.5,0.5,4.3C345,145.8,344.8,147.3,344.5,148.4L344.5,148.4L344.5,148.4z M364.2,150.9
	c-1,0-1.9-0.3-2.6-0.9c-0.7-0.6-1.1-1.3-1.3-2.3c-0.1-0.6-0.1-1.2-0.1-1.9c0-0.1,0.1-0.2,0.2-0.2h11.5c0.3,0,0.5-0.2,0.5-0.5
	c0-1.5-0.1-3-0.2-4.6c-0.2-2.5-1-4.4-2.4-5.8c-1.4-1.4-3.4-2-6-2c-2.3,0-4.2,0.6-5.7,1.9c-1.5,1.3-2.3,2.9-2.6,5
	c-0.1,1-0.2,2.4-0.2,4.1c0,2.1,0.2,3.9,0.6,5.3c0.4,1.9,1.3,3.4,2.7,4.5c1.4,1.1,3.2,1.6,5.4,1.6c2.1,0,3.8-0.5,5.2-1.5
	c1.4-1,2.3-2.3,2.8-4c0.1-0.3,0-0.6-0.4-0.6l-3.2-0.8c-0.3-0.1-0.5,0-0.6,0.3c-0.3,0.7-0.8,1.3-1.4,1.7
	C365.8,150.7,365.1,150.9,364.2,150.9L364.2,150.9L364.2,150.9z M363.8,137c1,0,1.8,0.3,2.4,0.8c0.6,0.6,1,1.3,1.1,2.3
	c0.1,0.4,0.1,1,0.2,1.8c0,0.1-0.1,0.2-0.2,0.2h-6.8c-0.1,0-0.2-0.1-0.2-0.2c0-0.5,0.1-1.2,0.2-2c0.1-0.9,0.5-1.6,1.1-2.2
	C362.1,137.2,362.9,137,363.8,137L363.8,137L363.8,137z"/>
<path class="st2" d="M679.9,96.5v-37c0-5.7-1.4-10.6-4.2-14.9c-2.8-4.3-6.7-7.6-11.7-10c-5-2.4-10.9-3.6-17.5-3.6H616
	c-0.6,0-1.1,0.2-1.5,0.5c-0.4,0.4-0.5,0.9-0.5,1.5v90.2c0,0.6,0.2,1.1,0.5,1.5c0.4,0.4,0.9,0.5,1.5,0.5h30.5
	c6.6,0,12.5-1.2,17.5-3.6c5-2.4,8.9-5.7,11.7-10.1C678.5,107.1,679.9,102.1,679.9,96.5L679.9,96.5z M654.6,93.5
	c-0.1,3-0.9,5.3-2.4,7.1c-1.5,1.8-3.3,2.7-5.6,2.7l-6.6,0.1c-0.5,0-0.8-0.3-0.8-0.8V53.4c0-0.5,0.3-0.8,0.8-0.8h6.5
	c2.4,0,4.4,0.9,5.9,2.7c1.5,1.8,2.2,4.2,2.2,7.1V93.5L654.6,93.5z M606.3,124.6c0.4-0.4,0.5-0.9,0.5-1.5V32.9c0-0.6-0.2-1.1-0.5-1.5
	c-0.4-0.4-0.9-0.5-1.5-0.5h-21.1c-0.6,0-1.1,0.2-1.5,0.5c-0.4,0.4-0.5,0.9-0.5,1.5l0.1,42.9c0,0.5-0.1,0.7-0.4,0.7
	c-0.3,0-0.4-0.1-0.5-0.5l-18.7-43.7c-0.4-1-1.1-1.5-2.3-1.5h-22.1c-0.6,0-1.1,0.2-1.5,0.5c-0.4,0.4-0.5,0.9-0.5,1.5v90.2
	c0,0.6,0.2,1.1,0.5,1.5c0.4,0.4,0.9,0.5,1.5,0.5h21.1c0.6,0,1.1-0.2,1.5-0.5c0.4-0.4,0.5-0.9,0.5-1.5l-0.3-43.6
	c0-0.4,0.1-0.6,0.3-0.6c0.2,0,0.4,0.1,0.6,0.5l18.7,44.1c0.4,1.1,1.3,1.6,2.4,1.6h22.1C605.5,125.1,605.9,124.9,606.3,124.6
	L606.3,124.6z M531,123.5c0-0.3,0-0.5-0.1-0.7l-23.8-90.2c-0.3-1.2-1-1.7-2.2-1.7h-26.6c-1.2,0-1.9,0.6-2.2,1.7l-24,90.2
	c-0.2,0.7-0.1,1.3,0.2,1.7c0.3,0.4,0.8,0.6,1.5,0.6H476c1.3,0,2-0.6,2.3-1.8l2.3-10.4c0.2-0.4,0.4-0.7,0.8-0.7h20.2
	c0.4,0,0.6,0.2,0.8,0.7l2.2,10.4c0.3,1.2,1,1.8,2.3,1.8h22.3C530.4,125.1,531,124.6,531,123.5L531,123.5z M498.1,92
	c0.1,0.6-0.2,0.9-0.8,0.9h-11.3c-0.5,0-0.8-0.2-0.8-0.7V92l6.2-27.6c0.1-0.4,0.2-0.5,0.5-0.5c0.2,0,0.4,0.2,0.5,0.5L498.1,92
	L498.1,92z M447.3,124.6c0.4-0.4,0.5-0.9,0.5-1.5v-17.6c0-0.6-0.2-1.1-0.5-1.5c-0.4-0.4-0.9-0.5-1.5-0.5H412c-0.5,0-0.8-0.3-0.8-0.8
	V32.9c0-0.6-0.2-1.1-0.5-1.5c-0.4-0.4-0.9-0.5-1.5-0.5h-11v74.6c0,0.6-0.2,1.1-0.5,1.5c-0.4,0.4-0.9,0.5-1.5,0.5h-10.2v15.6
	c0,0.6,0.2,1.1,0.5,1.5c0.4,0.4,0.9,0.5,1.5,0.5h57.9C446.4,125.1,446.9,124.9,447.3,124.6L447.3,124.6z"/>
</svg>
