<?xml version="1.0" encoding="UTF-8"?>
<svg id="Ebene_1" data-name="Ebene 1" xmlns="http://www.w3.org/2000/svg" viewBox="0 0 714.94 102.43">
  <g>
    <path d="m118.79,81.98c-11.89,0-18.67-11.26-18.67-32.87s6.4-32.49,18.67-32.49,18.67,10.87,18.67,32.49-6.52,32.87-18.67,32.87m0,16.24c24.94,0,39.26-19.57,39.26-49.11S143.73,0,118.79,0s-39.39,19.57-39.39,49.11,14.58,49.11,39.39,49.11M0,96.43h69.58v-16.24H24.68c.51-5.63,9.59-12.66,23.28-21.36,18.16-11.51,20.97-20.85,20.97-31.33C68.94,10.74,57.3,0,36.96,0,20.21,0,9.08,8.06.89,20.59l14.71,10.36c5.5-8.7,13.3-13.56,20.72-13.56,7.93,0,12.41,4.48,12.41,11.51,0,9.59-5.76,13.17-20.46,22.51C3.33,67.4,0,80.7,0,94.39v2.05Z" fill="#004494"/>
    <path d="m230.4,96.43c1.66-4,2.13-7.98,2.13-12.14,0-16.75-11.64-27.5-31.97-27.5-16.75,0-27.88,8.06-36.07,20.59l14.71,10.36c5.5-8.7,13.3-13.56,20.72-13.56,7.93,0,12.4,4.48,12.4,11.51,0,4.49-1.28,7.67-4.14,10.73h22.22Zm90.69,0c-2.8-24.17-16.55-39.63-38.71-39.63s-35.98,15.47-38.83,39.63h20.66c1.7-15.29,7.85-23.01,18.17-23.01s16.36,7.72,18.14,23.01h20.56Z" fill="#009036"/>
  </g>
  <path d="m251.04,1.79l-10.97,15.53v15.09h45.92v16.7h20.08v-16.7h16.68v-16.37h-16.68V1.79h-20.08v14.25h-24.43l9.87-14.25h-20.38Zm-61.72,31.08h-17.14v16.24h54.26v-16.24h-17.04V1.79h-20.08v31.08Z" fill="#e2001a"/>
  <g>
    <path d="m495.89,24.11h4.25l3.77-15.54h.06l3.53,15.54h4.19l5.82-22.32h-4.53l-2.26,10.32c-.42,1.81-.69,2.71-.99,4.74h-.06c-.3-1.99-.63-3.02-1.05-4.8l-2.41-10.26h-4.52l-2.26,10.2c-.39,1.6-.75,3.02-1.03,4.86h-.06c-.3-1.9-.66-3.26-1.09-4.89l-2.35-10.17h-4.95l5.94,22.32Zm-20.51-12.22v-6.09h3.35c2.84,0,4.19.81,4.19,3.02s-1.36,3.08-4.19,3.08h-3.35Zm-4.83,12.22h4.83v-8.42h2.84l4.65,8.42h5.19l-4.98-9.05c2.99-.9,4.65-2.84,4.65-6.36,0-4.95-3.29-6.91-8.78-6.91h-8.39v22.32Zm-23.87,0h4.53v-14.36h.06l9.74,14.36h4.52V1.79h-4.52v14.24h-.06l-9.35-14.24h-4.92v22.32Zm-9.84,0h5.19v-4.68h-5.19v4.68Zm-19.84,0h15.75v-3.98h-10.83v-5.55h7.45v-3.89h-7.45v-4.8h10.29V1.79h-15.2v22.32Zm-16.61-12.22v-6.09h3.35c2.84,0,4.19.81,4.19,3.02s-1.36,3.08-4.19,3.08h-3.35Zm-4.83,12.22h4.83v-8.42h2.84l4.65,8.42h5.19l-4.98-9.05c2.99-.9,4.65-2.84,4.65-6.36,0-4.95-3.29-6.91-8.78-6.91h-8.39v22.32Zm-17.92,0h4.92v-8.9h7v-3.89h-7v-5.43h9.83V1.79h-14.75v22.32Zm-19.41,0h15.75v-3.98h-10.83v-5.55h7.45v-3.89h-7.45v-4.8h10.29V1.79h-15.2v22.32Z" fill="#1a171b"/>
    <path d="m606.6,101.23c-4.26,0-6.06-1.14-6.06-2.88,0-1.38,1.05-2.61,3.09-3.24.24.03.51.06.78.09l3.27.27c3.09.27,4.44,1.14,4.44,2.79,0,1.74-2.07,2.97-5.52,2.97m-.39-10.8c-2.79,0-4.65-1.77-4.65-4.38s1.8-4.47,4.62-4.47,4.65,1.77,4.65,4.47-1.83,4.38-4.62,4.38m.33,12c4.08,0,6.99-1.56,6.99-4.29,0-2.34-1.95-3.6-5.22-3.9l-3.69-.33c-1.92-.18-2.52-.6-2.52-1.29s.57-1.14,1.41-1.47c.81.33,1.74.51,2.7.51,3.24,0,6.03-2.1,6.03-5.61,0-1.35-.39-2.46-1.08-3.36.84-.39,1.92-.57,2.94-.57v-1.56c-1.26.18-2.67.78-3.57,1.41-1.11-1.05-2.64-1.62-4.35-1.62-3.33,0-6.03,2.31-6.03,5.7,0,1.98.9,3.57,2.34,4.53-1.11.54-1.83,1.29-1.83,2.16,0,.99.48,1.65,1.5,2.04-1.95.75-3.03,2.04-3.03,3.69,0,2.46,2.43,3.96,7.41,3.96m-23.17-6h1.44v-11.82c1.95-1.86,3.78-3,5.97-3,2.4,0,3.45,1.17,3.45,3.57v11.25h1.44v-11.43c0-2.85-1.5-4.65-4.77-4.65-2.31,0-4.35,1.29-6.09,2.94v-2.61h-1.44v15.75Zm-12.8.33c2.31,0,4.35-1.29,6.09-2.94v2.61h1.44v-15.75h-1.44v11.82c-1.95,1.86-3.78,3-5.97,3-2.4,0-3.45-1.17-3.45-3.57v-11.25h-1.44v11.43c0,2.85,1.5,4.65,4.77,4.65m-15.93,4.47c-4.26,0-6.06-1.14-6.06-2.88,0-1.38,1.05-2.61,3.09-3.24.24.03.51.06.78.09l3.27.27c3.09.27,4.44,1.14,4.44,2.79,0,1.74-2.07,2.97-5.52,2.97m-.39-10.8c-2.79,0-4.65-1.77-4.65-4.38s1.8-4.47,4.62-4.47,4.65,1.77,4.65,4.47-1.83,4.38-4.62,4.38m.33,12c4.08,0,6.99-1.56,6.99-4.29,0-2.34-1.95-3.6-5.22-3.9l-3.69-.33c-1.92-.18-2.52-.6-2.52-1.29s.57-1.14,1.41-1.47c.81.33,1.74.51,2.7.51,3.24,0,6.03-2.1,6.03-5.61,0-1.35-.39-2.46-1.08-3.36.84-.39,1.92-.57,2.94-.57v-1.56c-1.26.18-2.67.78-3.57,1.41-1.11-1.05-2.64-1.62-4.35-1.62-3.33,0-6.03,2.31-6.03,5.7,0,1.98.9,3.57,2.34,4.53-1.11.54-1.83,1.29-1.83,2.16,0,.99.48,1.65,1.5,2.04-1.95.75-3.03,2.04-3.03,3.69,0,2.46,2.43,3.96,7.41,3.96m-12.46-6h1.44v-15.75h-1.44v15.75Zm-.06-19.77h1.56v-1.83h-1.56v1.83Zm-5.72,19.98c.66,0,1.26-.06,1.77-.15v-1.35c-.45.15-1.05.21-1.65.21-1.98,0-2.55-.96-2.55-2.64v-10.74h4.11v-1.29h-4.11v-5.73h-1.44v5.73h-2.76v1.29h2.76v10.95c0,2.67,1.26,3.72,3.87,3.72m-14.41-.21h1.44v-14.46h3.48v-1.29h-3.48v-2.79c0-1.71,1.11-2.37,2.7-2.37.3,0,.72,0,.96.03v-1.32h-.78c-2.61,0-4.32,1.11-4.32,3.78v2.67h-2.76v1.29h2.76v14.46Zm-13.77-.99c-1.95,0-3.12-.96-3.12-2.73,0-2.22,1.71-4.11,9.39-5.46v5.43c-1.8,1.74-3.93,2.76-6.27,2.76m-.12,1.26c2.37,0,4.47-.96,6.39-2.61,0,.9.15,1.68.36,2.34h1.53c-.33-.81-.45-1.98-.45-3.9v-7.41c0-2.91-1.56-4.77-4.83-4.77-3.03,0-5.04,1.17-6.99,2.97l.84.9c1.77-1.59,3.51-2.61,6.12-2.61,2.16,0,3.42,1.2,3.42,3.6v.96c-8.28,1.38-10.83,3.63-10.83,6.63,0,2.4,1.56,3.9,4.44,3.9m-.96-17.73h1.92v-2.01h-1.92v2.01Zm5.04,0h1.92v-2.01h-1.92v2.01Zm-25,17.46h1.44v-11.82c1.95-1.86,3.78-3,5.97-3,2.4,0,3.45,1.17,3.45,3.57v11.25h1.44v-11.43c0-2.85-1.5-4.65-4.77-4.65-2.31,0-4.35,1.29-6.09,2.94v-9.06h-1.44v22.2Zm-10.23.33c3,0,4.77-1.59,6.09-4.32l-1.14-.57c-1.2,2.4-2.46,3.63-4.86,3.63-2.88,0-5.25-2.55-5.25-6.96,0-5.13,2.88-6.93,5.31-6.93s3.72,1.35,4.68,3.6l1.23-.66c-.99-2.25-2.67-4.2-5.85-4.2-3.54,0-6.81,2.7-6.81,8.22,0,5.01,3,8.19,6.6,8.19m-16.09-.06c3.54,0,5.97-1.68,5.97-4.38s-1.56-3.87-6-4.98c-3.09-.75-3.99-1.47-3.99-3.12,0-1.32,1.11-2.61,3.72-2.61,2.1,0,3.45.75,4.65,2.04l.96-.99c-1.32-1.38-3.03-2.31-5.58-2.31-3.39,0-5.19,1.92-5.19,3.93,0,2.43,1.32,3.48,5.31,4.47,3.54.84,4.68,1.65,4.68,3.57s-1.53,3.12-4.5,3.12c-2.25,0-3.69-.93-4.89-2.46l-1.05.81c1.14,1.65,3.12,2.91,5.91,2.91m-20.78-9.27c.39-3.9,2.73-5.82,5.19-5.82,3.03,0,4.56,2.58,4.77,5.82h-9.96Zm5.16,9.33c3.06,0,4.92-1.5,6.21-3.87l-1.05-.66c-1.2,2.1-2.61,3.27-5.07,3.27-2.91,0-5.28-2.58-5.28-6.87h11.49v-.21c0-4.95-2.52-8.07-6.24-8.07-3.36,0-6.69,2.73-6.69,8.19s3.09,8.22,6.63,8.22m-24.62-1.71v-9.36h6c4.05,0,6.66,1.5,6.66,4.74,0,2.91-1.83,4.62-5.91,4.62h-6.75Zm0-10.71v-8.73h5.91c4.11,0,5.97,1.35,5.97,4.32s-2.28,4.41-6.06,4.41h-5.82Zm-1.5,12.09h8.16c5.34,0,7.5-2.7,7.5-6,0-3.12-2.31-4.89-5.07-5.4v-.06c2.31-.51,4.29-2.19,4.29-5.13,0-3.3-2.19-5.61-7.44-5.61h-7.44v22.2Zm-19.95-.99c-2.76,0-5.19-2.13-5.19-6.9s2.37-6.93,5.13-6.93c2.04,0,3.63,1.02,5.4,2.82v8.19c-1.77,1.8-3.21,2.82-5.34,2.82m-.03,1.26c2.37,0,4.02-1.23,5.37-2.64,0,.84.18,1.8.36,2.37h1.56c-.36-.81-.48-1.98-.48-3.9v-18.3h-1.44v8.76c-1.26-1.41-3.15-2.64-5.31-2.64-3.66,0-6.66,2.7-6.66,8.22s2.97,8.13,6.6,8.13m-23.28-.27h1.44v-11.82c1.95-1.86,3.78-3,5.97-3,2.4,0,3.45,1.17,3.45,3.57v11.25h1.44v-11.43c0-2.85-1.5-4.65-4.77-4.65-2.31,0-4.35,1.29-6.09,2.94v-2.61h-1.44v15.75Zm-12.8.33c2.31,0,4.35-1.29,6.09-2.94v2.61h1.44v-15.75h-1.44v11.82c-1.95,1.86-3.78,3-5.97,3-2.4,0-3.45-1.17-3.45-3.57v-11.25h-1.44v11.43c0,2.85,1.5,4.65,4.77,4.65" fill="#1a171b"/>
    <path d="m692.56,59.53h1.44v-11.82c1.95-1.86,3.72-3,5.76-3,2.43,0,3.27,1.17,3.27,3.57v11.25h1.44v-11.82c1.95-1.86,3.69-3,5.76-3,2.4,0,3.27,1.17,3.27,3.57v11.25h1.44v-11.43c0-2.85-1.32-4.65-4.56-4.65-2.28,0-4.29,1.32-6.09,2.97-.45-1.74-1.71-2.97-4.38-2.97-2.31,0-4.17,1.29-5.91,2.94v-2.61h-1.44v15.75Zm-12.8.33c2.31,0,4.35-1.29,6.09-2.94v2.61h1.44v-15.75h-1.44v11.82c-1.95,1.86-3.78,3-5.97,3-2.4,0-3.45-1.17-3.45-3.57v-11.25h-1.44v11.43c0,2.85,1.5,4.65,4.77,4.65m-10.35-.12c.66,0,1.26-.06,1.77-.15v-1.35c-.45.15-1.05.21-1.65.21-1.98,0-2.55-.96-2.55-2.64v-10.74h4.11v-1.29h-4.11v-5.73h-1.44v5.73h-2.76v1.29h2.76v10.95c0,2.67,1.26,3.72,3.87,3.72m-15.41.06c3.54,0,5.97-1.68,5.97-4.38s-1.56-3.87-6-4.98c-3.09-.75-3.99-1.47-3.99-3.12,0-1.32,1.11-2.61,3.72-2.61,2.1,0,3.45.75,4.65,2.04l.96-.99c-1.32-1.38-3.03-2.31-5.58-2.31-3.39,0-5.19,1.92-5.19,3.93,0,2.43,1.32,3.48,5.31,4.47,3.54.84,4.68,1.65,4.68,3.57s-1.53,3.12-4.5,3.12c-2.25,0-3.69-.93-4.89-2.46l-1.05.81c1.14,1.65,3.12,2.91,5.91,2.91m-22.2-.27h1.44v-11.82c1.95-1.86,3.78-3,5.97-3,2.4,0,3.45,1.17,3.45,3.57v11.25h1.44v-11.43c0-2.85-1.5-4.65-4.77-4.65-2.31,0-4.35,1.29-6.09,2.94v-9.06h-1.44v22.2Zm-10.23.33c3,0,4.77-1.59,6.09-4.32l-1.14-.57c-1.2,2.4-2.46,3.63-4.86,3.63-2.88,0-5.25-2.55-5.25-6.96,0-5.13,2.88-6.93,5.31-6.93s3.72,1.35,4.68,3.6l1.23-.66c-.99-2.25-2.67-4.2-5.85-4.2-3.54,0-6.81,2.7-6.81,8.22,0,5.01,3,8.19,6.6,8.19m-18.61-1.32c-1.95,0-3.12-.96-3.12-2.73,0-2.22,1.71-4.11,9.39-5.46v5.43c-1.8,1.74-3.93,2.76-6.27,2.76m-.12,1.26c2.37,0,4.47-.96,6.39-2.61,0,.9.15,1.68.36,2.34h1.53c-.33-.81-.45-1.98-.45-3.9v-7.41c0-2.91-1.56-4.77-4.83-4.77-3.03,0-5.04,1.17-6.99,2.97l.84.9c1.77-1.59,3.51-2.61,6.12-2.61,2.16,0,3.42,1.2,3.42,3.6v.96c-8.28,1.38-10.83,3.63-10.83,6.63,0,2.4,1.56,3.9,4.44,3.9m-25.68-.27h1.5l5.01-20.13h.06l4.98,20.13h1.53l5.91-22.2h-1.47l-3.78,14.52c-.51,2.01-.96,3.75-1.35,5.46h-.06c-.3-1.59-.81-3.51-1.32-5.58l-3.57-14.4h-1.74l-3.54,14.28c-.54,2.1-1.05,4.29-1.35,5.7h-.06c-.33-1.44-.84-3.6-1.41-5.73l-3.72-14.25h-1.53l5.91,22.2Zm-29.58,0h1.44v-11.82c1.95-1.86,3.78-3,5.97-3,2.4,0,3.45,1.17,3.45,3.57v11.25h1.44v-11.43c0-2.85-1.5-4.65-4.77-4.65-2.31,0-4.35,1.29-6.09,2.94v-2.61h-1.44v15.75Zm-6.76,0h1.44v-15.75h-1.44v15.75Zm-.06-19.77h1.56v-1.83h-1.56v1.83Zm-24.99,19.77h1.44v-11.82c1.95-1.86,3.78-3,5.97-3,2.4,0,3.45,1.17,3.45,3.57v11.25h1.44v-11.43c0-2.85-1.5-4.65-4.77-4.65-2.31,0-4.35,1.29-6.09,2.94v-2.61h-1.44v15.75Zm-15.9-9c.39-3.9,2.73-5.82,5.19-5.82,3.03,0,4.56,2.58,4.77,5.82h-9.96Zm5.16,9.33c3.06,0,4.92-1.5,6.21-3.87l-1.05-.66c-1.2,2.1-2.61,3.27-5.07,3.27-2.91,0-5.28-2.58-5.28-6.87h11.49v-.21c0-4.95-2.52-8.07-6.24-8.07-3.36,0-6.69,2.73-6.69,8.19s3.09,8.22,6.63,8.22m-23.29-.33h1.44v-11.82c1.95-1.86,3.78-3,5.97-3,2.4,0,3.45,1.17,3.45,3.57v11.25h1.44v-11.43c0-2.85-1.5-4.65-4.77-4.65-2.31,0-4.35,1.29-6.09,2.94v-2.61h-1.44v15.75Zm-11.37-.93c-3.6,0-5.49-3.27-5.49-6.96,0-3.93,2.1-6.93,5.49-6.93,3.57,0,5.49,3.27,5.49,6.93,0,3.99-2.1,6.96-5.49,6.96m0,1.26c3.87,0,6.93-3.18,6.93-8.19s-3.06-8.22-6.93-8.22-6.93,3.15-6.93,8.22,3.06,8.19,6.93,8.19m-12.83-.33h1.44v-15.75h-1.44v15.75Zm-.06-19.77h1.56v-1.83h-1.56v1.83Zm-5.72,19.98c.66,0,1.26-.06,1.77-.15v-1.35c-.45.15-1.05.21-1.65.21-1.98,0-2.55-.96-2.55-2.64v-10.74h4.11v-1.29h-4.11v-5.73h-1.44v5.73h-2.76v1.29h2.76v10.95c0,2.67,1.26,3.72,3.87,3.72m-11.79-.21h1.44v-15.75h-1.44v15.75Zm-.06-19.77h1.56v-1.83h-1.56v1.83Zm-5.72,19.98c.66,0,1.26-.06,1.77-.15v-1.35c-.45.15-1.05.21-1.65.21-1.98,0-2.55-.96-2.55-2.64v-10.74h4.11v-1.29h-4.11v-5.73h-1.44v5.73h-2.76v1.29h2.76v10.95c0,2.67,1.26,3.72,3.87,3.72m-15.4.06c3.54,0,5.97-1.68,5.97-4.38s-1.56-3.87-6-4.98c-3.09-.75-3.99-1.47-3.99-3.12,0-1.32,1.11-2.61,3.72-2.61,2.1,0,3.45.75,4.65,2.04l.96-.99c-1.32-1.38-3.03-2.31-5.58-2.31-3.39,0-5.19,1.92-5.19,3.93,0,2.43,1.32,3.48,5.31,4.47,3.54.84,4.68,1.65,4.68,3.57s-1.53,3.12-4.5,3.12c-2.25,0-3.69-.93-4.89-2.46l-1.05.81c1.14,1.65,3.12,2.91,5.91,2.91m-20.78-9.27c.39-3.9,2.73-5.82,5.19-5.82,3.03,0,4.56,2.58,4.77,5.82h-9.96Zm5.16,9.33c3.06,0,4.92-1.5,6.21-3.87l-1.05-.66c-1.2,2.1-2.61,3.27-5.07,3.27-2.91,0-5.28-2.58-5.28-6.87h11.49v-.21c0-4.95-2.52-8.07-6.24-8.07-3.36,0-6.69,2.73-6.69,8.19s3.09,8.22,6.63,8.22m-16.24-.24h1.44l5.85-15.84h-1.56l-4.95,13.95h-.06l-4.98-13.95h-1.59l5.85,15.84Zm-21.36-.09h1.44v-11.82c1.95-1.86,3.78-3,5.97-3,2.4,0,3.45,1.17,3.45,3.57v11.25h1.44v-11.43c0-2.85-1.5-4.65-4.77-4.65-2.31,0-4.35,1.29-6.09,2.94v-2.61h-1.44v15.75Zm-7.35,0h1.5v-22.2h-1.5v22.2Z" fill="#1a171b"/>
  </g>
</svg>