<?xml version="1.0" encoding="utf-8"?>
<!-- Generator: Adobe Illustrator 27.2.0, SVG Export Plug-In . SVG Version: 6.00 Build 0)  -->
<svg version="1.1" id="Ebene_1" xmlns="http://www.w3.org/2000/svg" xmlns:xlink="http://www.w3.org/1999/xlink" x="0px" y="0px"
	 viewBox="0 0 267.9 63" style="enable-background:new 0 0 267.9 63;" xml:space="preserve">
<style type="text/css">
	.st0{fill:#E43D41;}
	.st1{fill:#FFFFFF;}
</style>
<g>
	<polyline class="st0" points="73.4,5.6 33.6,17.4 4.4,17.4 4.4,38.2 73.4,38.2 73.3,5.6 	"/>
	<path class="st1" d="M43.1,34.4V22.5h-1.9v4.9h-5.6v-4.9h-1.9v11.9h1.9v-5.3h5.6v5.3H43.1L43.1,34.4z M52.1,21.6
		c-0.5-0.1-0.9-0.2-1.4-0.2c-2.3,0-3.4,1.2-3.4,3.6v0.7h-1.7v1.5h1.7v7.3h1.9v-7.3h2.3v-1.5h-2.3v-0.7c0-1.4,0.5-2,1.6-2
		c0.4,0,0.8,0.1,1.2,0.2L52.1,21.6L52.1,21.6z M67,34.4l-1.8-11.9h-2.3l-2.3,6.9c-0.3,0.8-0.5,1.5-0.7,2.4h0
		c-0.2-0.9-0.5-1.8-0.7-2.4l-2.3-6.9h-2.3l-1.8,11.9h2l0.8-6.1c0.1-1.1,0.2-2.1,0.3-3.1h0c0.2,0.9,0.4,1.8,0.8,2.8l2.1,6.4h2
		l2.2-6.9c0.3-0.9,0.5-1.7,0.6-2.3h0c0.1,0.8,0.2,1.7,0.4,2.9l0.9,6.3H67L67,34.4z"/>
	<path class="st0" d="M109.2,21c0-10.9-6.1-15.8-16.4-15.8c-3.3,0-6.8,0.1-9.2,0.1v32c2.2,0,4.5,0.1,7.8,0.1
		C101.8,37.4,109.2,32,109.2,21L109.2,21z M105.4,21.2c0,9.1-5.6,13.2-13.6,13.2c-1.4,0-3.3-0.1-4.6-0.3V8.3c1.3,0,3.4-0.1,5.2-0.1
		C101.1,8.1,105.4,12.6,105.4,21.2L105.4,21.2z M134.6,23c0-5.2-2.7-9.7-9.2-9.7c-6.5,0-10.3,5.3-10.3,12.3
		c0,8.2,3.8,12.1,10.8,12.1c2.9,0,5.7-0.5,8-1.5l-0.6-2.9c-2,0.9-4.4,1.4-6.7,1.4c-5.3,0-8.1-2.9-7.8-9.8h15.7
		C134.6,24.1,134.6,23.5,134.6,23L134.6,23z M130.9,22.3H119c0.6-3.9,2.9-6.3,6.3-6.3C128.8,16,131,18.5,130.9,22.3L130.9,22.3z
		 M154.3,37.1l-0.4-3c-0.9,0.2-2,0.4-3.2,0.4c-2.8,0-3.6-1.1-3.6-5.3V16.5h6.9v-2.8h-6.9V4.9l-3.6,1v7.8h-5.1v2.8h5.1v14.2
		c0,4.9,1.4,7,6.1,7C151.1,37.7,152.9,37.4,154.3,37.1L154.3,37.1z M194.9,37.3V21c0-5.3-2.6-7.7-7-7.7c-4.8,0-7.3,3.4-8.2,5.6
		c-0.1-1.8-1.2-5.6-6.6-5.6c-3.9,0-7,2.3-8.3,5.7l-0.1,0c0.3-1.5,0.4-3.7,0.4-5.3h-3.5v23.5h3.6V26.1c0-5.8,3.2-9.9,7.1-9.9
		c3.6,0,4.3,2.6,4.3,5.8v15.2h3.5V26.1c0-6.1,3.5-9.9,7.1-9.9c3.4,0,4.3,2.3,4.3,5.9v15.2H194.9L194.9,37.3z M224.2,25.1
		c0-8.6-4.7-11.8-10.4-11.8c-7.1,0-11.2,5.6-11.2,12.3c0,8.2,4.1,12.1,10.4,12.1C219.9,37.7,224.2,32.1,224.2,25.1L224.2,25.1z
		 M220.5,25.3c0,6.5-3.4,9.3-7.1,9.3c-4.6,0-7.2-3.3-7.2-9.3c0-6.3,3.5-9.1,7.2-9.1C218.2,16.3,220.5,19.7,220.5,25.3L220.5,25.3z
		 M235.5,37.3V2.7H232v34.6H235.5L235.5,37.3z M263.3,37.3V2.7h-3.5v11c-1.6-0.1-3-0.2-4.4-0.2c-7.3,0-12.1,4.7-12.1,13.1
		c0,6.9,2.8,11.1,8.7,11.1c3.8,0,6.8-2.2,8.1-5.6l0.1,0c-0.3,1.4-0.4,3.7-0.4,5.1H263.3L263.3,37.3z M259.8,25.1
		c0,4.2-2.3,9.7-7,9.7c-3.9,0-5.7-3.2-5.7-8.5c0-7.1,3.2-10,8.1-10c1.5,0,3,0.2,4.6,0.6V25.1L259.8,25.1z"/>
	<path d="M15.9,61.8V47.3h-2.3v6H6.8v-6H4.4v14.5h2.3v-6.5h6.9v6.5H15.9L15.9,61.8z M33,54.4c0-4.9-2.6-7.3-6.5-7.3
		c-3.8,0-7,2.8-7,7.6c0,4.4,2.1,7.3,6.5,7.3C29.9,62,33,59.2,33,54.4L33,54.4z M30.5,54.6c0,3.6-2.1,5.3-4.3,5.3
		c-2.9,0-4.2-2.2-4.2-5.5c0-3.5,2-5.3,4.3-5.3C29,49.1,30.5,51.1,30.5,54.6L30.5,54.6z M46.4,61.2L46,59.2c-0.8,0.4-2,0.7-3,0.7
		c-3.2,0-4.6-1.9-4.6-5.3c0-3,1.4-5.3,4.4-5.3c1.1,0,2.1,0.2,3.1,0.5l0.3-2.1c-1-0.3-2.1-0.5-3.2-0.5c-4.9,0-7.1,3.3-7.1,7.8
		c0,3.9,1.8,7,6.6,7C43.9,62,45.3,61.7,46.4,61.2L46.4,61.2z M61.7,61.8V47.3h-2.3v6h-6.9v-6h-2.3v14.5h2.3v-6.5h6.9v6.5H61.7
		L61.7,61.8z M74.3,57.4c0-4.6-6.4-3.5-6.4-6.4c0-1.2,0.8-2,2.7-2c0.9,0,1.7,0.2,2.5,0.4l0.2-2.1c-0.8-0.2-1.8-0.3-2.6-0.3
		c-3.4,0-5.2,1.7-5.2,4.2c0,4.7,6.4,3.4,6.4,6.4c0,1.6-1.3,2.2-2.8,2.2c-1.1,0-2.1-0.2-3.1-0.6l-0.3,2.2c0.9,0.3,2,0.4,3.3,0.4
		C72.2,62,74.3,60.1,74.3,57.4L74.3,57.4z M87.7,61.2l-0.4-2.1c-0.8,0.4-2,0.7-3,0.7c-3.2,0-4.6-1.9-4.6-5.3c0-3,1.4-5.3,4.4-5.3
		c1.1,0,2.1,0.2,3.1,0.5l0.3-2.1c-1-0.3-2.1-0.5-3.2-0.5c-4.9,0-7.1,3.3-7.1,7.8c0,3.9,1.8,7,6.6,7C85.2,62,86.6,61.7,87.7,61.2
		L87.7,61.2z M103.1,61.8V47.3h-2.3v6h-6.9v-6h-2.3v14.5h2.3v-6.5h6.9v6.5H103.1L103.1,61.8z M119.3,56.2v-8.9H117v9.1
		c0,2.7-1.1,3.7-3.4,3.7c-2.7,0-3.3-1.5-3.3-3.4v-9.4h-2.3v9.6c0,2.7,1,5.1,5.5,5.1C117.2,62,119.3,60.1,119.3,56.2L119.3,56.2z
		 M131.3,61.8v-2h-5V47.3H124v14.5H131.3L131.3,61.8z M141.8,61.8v-2h-5.3v-4.5h5v-1.9h-5v-4.1h5.3v-2h-7.6v14.5H141.8L141.8,61.8z
		 M159.2,49.3v-2h-7.6v14.5h2.3v-6.4h4.9v-1.9H154v-4.3H159.2L159.2,49.3z M174,56.2v-8.9h-2.3v9.1c0,2.7-1.1,3.7-3.4,3.7
		c-2.7,0-3.3-1.5-3.3-3.4v-9.4h-2.3v9.6c0,2.7,1,5.1,5.5,5.1C171.9,62,174,60.1,174,56.2L174,56.2z M171.8,45c0-0.7-0.5-1.2-1.2-1.2
		c-0.7,0-1.2,0.5-1.2,1.2c0,0.6,0.5,1.2,1.2,1.2C171.3,46.1,171.8,45.6,171.8,45L171.8,45z M167.2,45c0-0.7-0.5-1.2-1.2-1.2
		c-0.6,0-1.2,0.5-1.2,1.2c0,0.6,0.5,1.2,1.2,1.2C166.7,46.1,167.2,45.6,167.2,45L167.2,45z M188.6,61.8l-3.7-5
		c-0.3-0.5-0.8-1-1.2-1.5c2.2-0.3,3.9-1.7,3.9-4.1c0-2.9-2.1-3.9-5.1-3.9c-1.6,0-2.8,0-3.9,0.1v14.5h2.3v-6.3h0.3l4.4,6.3H188.6
		L188.6,61.8z M185.2,51.4c0,1.4-1.1,2.4-3,2.4c-0.5,0-0.9,0-1.1,0v-4.6c0.3,0,0.8,0,1.2,0C184.3,49.1,185.2,49.8,185.2,51.4
		L185.2,51.4z M214,61.8l-2.2-14.5H209l-2.8,8.5c-0.3,1-0.6,1.8-0.8,2.9h0c-0.3-1.1-0.6-2.1-0.8-3l-2.8-8.4h-2.8l-2.2,14.5h2.4
		l0.9-7.5c0.2-1.4,0.3-2.5,0.4-3.8h0c0.2,1.1,0.5,2.2,0.9,3.4l2.6,7.8h2.4l2.7-8.4c0.4-1.1,0.6-2,0.8-2.8h0c0.1,0.9,0.2,2.1,0.5,3.5
		l1.1,7.7H214L214,61.8z M228.9,56.2v-8.9h-2.3v9.1c0,2.7-1.1,3.7-3.4,3.7c-2.7,0-3.3-1.5-3.3-3.4v-9.4h-2.3v9.6
		c0,2.7,1,5.1,5.5,5.1C226.8,62,228.9,60.1,228.9,56.2L228.9,56.2z M241.5,57.4c0-4.6-6.4-3.5-6.4-6.4c0-1.2,0.8-2,2.7-2
		c0.9,0,1.7,0.2,2.5,0.4l0.2-2.1c-0.8-0.2-1.8-0.3-2.6-0.3c-3.4,0-5.2,1.7-5.2,4.2c0,4.7,6.4,3.4,6.4,6.4c0,1.6-1.3,2.2-2.8,2.2
		c-1.1,0-2.1-0.2-3.1-0.6l-0.3,2.2c0.9,0.3,2,0.4,3.3,0.4C239.3,62,241.5,60.1,241.5,57.4L241.5,57.4z M247.5,61.8V47.3h-2.3v14.5
		H247.5L247.5,61.8z M263,61.8l-6-7.5l5.8-7h-2.9l-5.3,6.7v-6.7h-2.3v14.5h2.3v-7.1l5.3,7.1H263L263,61.8z"/>
</g>
</svg>
