<?xml version="1.0" encoding="utf-8"?>
<!-- Generator: Adobe Illustrator 27.5.0, SVG Export Plug-In . SVG Version: 6.00 Build 0)  -->
<svg version="1.1" id="Ebene_1" xmlns="http://www.w3.org/2000/svg" xmlns:xlink="http://www.w3.org/1999/xlink" x="0px" y="0px"
	 viewBox="0 0 300 100" style="enable-background:new 0 0 300 100;" xml:space="preserve">
<style type="text/css">
	.st0{fill:#00205B;}
	.st1{fill-rule:evenodd;clip-rule:evenodd;fill:#00205B;}
	.st2{fill:#ED174F;}
	.st3{fill:#3A4C57;}
	.st4{fill:#26353E;}
	.st5{fill:#A3003A;}
	.st6{fill:#E43D41;}
	.st7{fill:#FFFFFF;}
</style>
<g id="Layer_1-2">
	<g>
		<path class="st2" d="M145.8,90.2c0-0.1-0.1-0.2-0.2-0.2h-0.8c-0.1,0-0.2,0-0.2,0.2l-1.7,6.1c0,0.1,0,0.1,0,0.2v0.6
			c0,0.1,0.1,0.2,0.2,0.2h0.5c0.1,0,0.2-0.1,0.2-0.2v-0.6l0.3-1.3h2.1l0.3,1.3v0.6c0,0.1,0.1,0.2,0.2,0.2h0.5c0.1,0,0.2-0.1,0.2-0.2
			v-0.6c0-0.1,0-0.1,0-0.2L145.8,90.2L145.8,90.2L145.8,90.2z M146,94.4h-1.6l0.8-3.2L146,94.4L146,94.4L146,94.4z M152.7,90.1
			c-0.1,0-0.2,0.1-0.2,0.2v5.1l-2.7-5.2c0-0.1-0.1-0.1-0.2-0.1h-0.4c-0.1,0-0.2,0.1-0.2,0.2v6.9c0,0.1,0.1,0.2,0.2,0.2h0.5
			c0.1,0,0.2-0.1,0.2-0.2V92l2.7,5.2c0,0.1,0.1,0.1,0.2,0.1h0.4c0.1,0,0.2-0.1,0.2-0.2v-6.9c0-0.1-0.1-0.2-0.2-0.2L152.7,90.1
			L152.7,90.1z M155.3,90.1c-0.1,0-0.2,0.1-0.2,0.2v6.9c0,0.1,0.1,0.2,0.2,0.2h2c1.5,0,2.2-0.8,2.2-2.1v-3.1c0-1.3-0.7-2.1-2.2-2.1
			L155.3,90.1L155.3,90.1z M156,90.9h1.3c0.8,0,1.3,0.4,1.3,1.2v3.2c0,0.8-0.4,1.2-1.3,1.2H156V90.9L156,90.9L156,90.9z M167.8,90.2
			c0-0.1-0.1-0.2-0.2-0.2h-0.8c-0.1,0-0.2,0-0.2,0.2l-1.7,6.1c0,0.1,0,0.1,0,0.2v0.6c0,0.1,0.1,0.2,0.2,0.2h0.5
			c0.1,0,0.2-0.1,0.2-0.2v-0.6l0.3-1.3h2.1l0.3,1.3v0.6c0,0.1,0.1,0.2,0.2,0.2h0.5c0.1,0,0.2-0.1,0.2-0.2v-0.6c0-0.1,0-0.1,0-0.2
			L167.8,90.2L167.8,90.2L167.8,90.2z M168,94.3h-1.6l0.8-3.2L168,94.3L168,94.3L168,94.3z M175.4,92.1c0-1.3-0.7-2-2.2-2h-2
			c-0.1,0-0.2,0.1-0.2,0.2v6.9c0,0.1,0.1,0.2,0.2,0.2h0.5c0.1,0,0.2-0.1,0.2-0.2v-3h1.3l1.3,3.1c0,0.1,0.1,0.1,0.2,0.1h0.5
			c0.1,0,0.2-0.1,0.2-0.2V97c0-0.1,0-0.1,0-0.2l-1.2-2.8C175,93.7,175.4,93,175.4,92.1L175.4,92.1L175.4,92.1z M171.9,93.3v-2.4h1.3
			c0.8,0,1.3,0.4,1.3,1.1v0.1c0,0.8-0.4,1.1-1.3,1.1L171.9,93.3L171.9,93.3z M181.4,90.2c0-0.1-0.1-0.2-0.2-0.2H177
			c-0.1,0-0.2,0.1-0.2,0.2v0.5c0,0.1,0.1,0.2,0.2,0.2h1.7v6.2c0,0.1,0.1,0.2,0.2,0.2h0.5c0.1,0,0.2-0.1,0.2-0.2v-6.2h1.7
			c0.1,0,0.2-0.1,0.2-0.2L181.4,90.2L181.4,90.2L181.4,90.2z M185,89.9c-1.4,0-2.2,0.8-2.2,2c0,2.4,3.5,1.9,3.5,3.6
			c0,0.6-0.4,1.1-1.3,1.1c-0.8,0-1.2-0.4-1.3-1.1c0-0.1-0.1-0.2-0.2-0.2H183c-0.1,0-0.2,0.1-0.2,0.2c0.1,1.2,0.8,1.9,2.2,1.9
			c1.5,0,2.2-0.8,2.2-2c0-2.4-3.5-1.9-3.5-3.6c0-0.7,0.4-1.1,1.3-1.1c0.8,0,1.2,0.3,1.3,1.1c0,0.1,0.1,0.2,0.2,0.2h0.5
			c0.1,0,0.2-0.1,0.2-0.2C187.1,90.7,186.4,89.9,185,89.9L185,89.9z"/>
		<path class="st2" d="M145.8,76.9c0-0.1-0.1-0.2-0.2-0.2h-0.8c-0.1,0-0.2,0-0.2,0.2l-1.7,6.1c0,0.1,0,0.1,0,0.2v0.6
			c0,0.1,0.1,0.2,0.2,0.2h0.5c0.1,0,0.2-0.1,0.2-0.2v-0.6l0.3-1.3h2.1l0.3,1.3v0.6c0,0.1,0.1,0.2,0.2,0.2h0.5c0.1,0,0.2-0.1,0.2-0.2
			v-0.6c0-0.1,0-0.1,0-0.2L145.8,76.9L145.8,76.9L145.8,76.9z M146,81.1h-1.6l0.8-3.2L146,81.1L146,81.1L146,81.1z M149.2,76.8
			c-0.1,0-0.2,0.1-0.2,0.2v6.9c0,0.1,0.1,0.2,0.2,0.2h0.5c0.1,0,0.2-0.1,0.2-0.2v-3h1.3c1.5,0,2.2-0.8,2.2-2c0-1.3-0.7-2-2.2-2
			H149.2L149.2,76.8z M150,77.6h1.3c0.8,0,1.3,0.4,1.3,1.1v0.1c0,0.8-0.4,1.1-1.3,1.1H150V77.6L150,77.6z M155.3,76.8
			c-0.1,0-0.2,0.1-0.2,0.2v6.9c0,0.1,0.1,0.2,0.2,0.2h0.5c0.1,0,0.2-0.1,0.2-0.2v-3h1.3c1.5,0,2.2-0.8,2.2-2c0-1.3-0.7-2-2.2-2
			H155.3L155.3,76.8z M156,77.6h1.3c0.8,0,1.3,0.4,1.3,1.1v0.1c0,0.8-0.4,1.1-1.3,1.1H156V77.6L156,77.6z M162.2,83.2V77
			c0-0.1-0.1-0.2-0.2-0.2h-0.5c-0.1,0-0.2,0.1-0.2,0.2v6.9c0,0.1,0.1,0.2,0.2,0.2h3.6c0.1,0,0.2-0.1,0.2-0.2v-0.5
			c0-0.1-0.1-0.2-0.2-0.2H162.2L162.2,83.2z M169.5,77.6h1.2c0.1,0,0.2-0.1,0.2-0.2V77c0-0.1-0.1-0.2-0.2-0.2h-3.4
			c-0.1,0-0.2,0.1-0.2,0.2v0.5c0,0.1,0.1,0.2,0.2,0.2h1.2v5.6h-1.2c-0.1,0-0.2,0.1-0.2,0.2v0.5c0,0.1,0.1,0.2,0.2,0.2h3.4
			c0.1,0,0.2-0.1,0.2-0.2v-0.5c0-0.1-0.1-0.2-0.2-0.2h-1.2V77.6L169.5,77.6z M174,77.6h2.9c0.1,0,0.2-0.1,0.2-0.2V77
			c0-0.1-0.1-0.2-0.2-0.2h-3.6c-0.1,0-0.2,0.1-0.2,0.2v6.9c0,0.1,0.1,0.2,0.2,0.2h3.6c0.1,0,0.2-0.1,0.2-0.2v-0.5
			c0-0.1-0.1-0.2-0.2-0.2H174v-2.4h2.3c0.1,0,0.2-0.1,0.2-0.2v-0.5c0-0.1-0.1-0.2-0.2-0.2H174V77.6L174,77.6L174,77.6z M179.1,76.8
			c-0.1,0-0.2,0.1-0.2,0.2v6.9c0,0.1,0.1,0.2,0.2,0.2h2c1.5,0,2.2-0.8,2.2-2.1v-3.1c0-1.3-0.7-2.1-2.2-2.1H179.1L179.1,76.8z
			 M179.8,77.6h1.3c0.8,0,1.3,0.4,1.3,1.2V82c0,0.8-0.4,1.2-1.3,1.2h-1.3V77.6L179.8,77.6L179.8,77.6z M191,76.7
			c-1.4,0-2.2,0.8-2.2,2c0,2.4,3.5,1.9,3.5,3.6c0,0.6-0.4,1.1-1.3,1.1c-0.8,0-1.2-0.4-1.3-1.1c0-0.1-0.1-0.2-0.2-0.2H189
			c-0.1,0-0.2,0.1-0.2,0.2c0.1,1.2,0.8,1.9,2.2,1.9c1.5,0,2.2-0.8,2.2-2c0-2.4-3.5-1.9-3.5-3.6c0-0.7,0.4-1.1,1.3-1.1
			c0.8,0,1.2,0.3,1.3,1.1c0,0.1,0.1,0.2,0.2,0.2h0.5c0.1,0,0.2-0.1,0.2-0.2C193.2,77.4,192.4,76.7,191,76.7L191,76.7L191,76.7z
			 M197.1,76.7c-1.5,0-2.2,0.8-2.2,2.1v3.4c0,1.3,0.7,2.1,2.2,2.1s2.2-0.8,2.2-2.1V82c0-0.1-0.1-0.2-0.2-0.2h-0.5
			c-0.1,0-0.2,0.1-0.2,0.2v0.2c0,0.8-0.4,1.2-1.3,1.2s-1.3-0.4-1.3-1.2v-3.5c0-0.8,0.4-1.2,1.3-1.2s1.3,0.4,1.3,1.2v0.2
			c0,0.1,0.1,0.2,0.2,0.2h0.5c0.1,0,0.2-0.1,0.2-0.2v-0.1C199.3,77.4,198.6,76.7,197.1,76.7L197.1,76.7L197.1,76.7z M203.5,77.6h1.2
			c0.1,0,0.2-0.1,0.2-0.2V77c0-0.1-0.1-0.2-0.2-0.2h-3.4c-0.1,0-0.2,0.1-0.2,0.2v0.5c0,0.1,0.1,0.2,0.2,0.2h1.2v5.6h-1.2
			c-0.1,0-0.2,0.1-0.2,0.2v0.5c0,0.1,0.1,0.2,0.2,0.2h3.4c0.1,0,0.2-0.1,0.2-0.2v-0.5c0-0.1-0.1-0.2-0.2-0.2h-1.2V77.6L203.5,77.6z
			 M208,77.6h2.9c0.1,0,0.2-0.1,0.2-0.2V77c0-0.1-0.1-0.2-0.2-0.2h-3.6c-0.1,0-0.2,0.1-0.2,0.2v6.9c0,0.1,0.1,0.2,0.2,0.2h3.6
			c0.1,0,0.2-0.1,0.2-0.2v-0.5c0-0.1-0.1-0.2-0.2-0.2H208v-2.4h2.3c0.1,0,0.2-0.1,0.2-0.2v-0.5c0-0.1-0.1-0.2-0.2-0.2H208V77.6
			L208,77.6L208,77.6z M216.6,76.8c-0.1,0-0.2,0.1-0.2,0.2v5.1l-2.7-5.2c0-0.1-0.1-0.1-0.2-0.1h-0.4c-0.1,0-0.2,0.1-0.2,0.2v6.9
			c0,0.1,0.1,0.2,0.2,0.2h0.5c0.1,0,0.2-0.1,0.2-0.2v-5.1l2.7,5.2c0,0.1,0.1,0.1,0.2,0.1h0.4c0.1,0,0.2-0.1,0.2-0.2V77
			c0-0.1-0.1-0.2-0.2-0.2L216.6,76.8L216.6,76.8z M221.2,76.7c-1.5,0-2.2,0.8-2.2,2.1v3.4c0,1.3,0.7,2.1,2.2,2.1
			c1.5,0,2.2-0.8,2.2-2.1V82c0-0.1-0.1-0.2-0.2-0.2h-0.5c-0.1,0-0.2,0.1-0.2,0.2v0.2c0,0.8-0.4,1.2-1.3,1.2s-1.3-0.4-1.3-1.2v-3.5
			c0-0.8,0.4-1.2,1.3-1.2s1.3,0.4,1.3,1.2v0.2c0,0.1,0.1,0.2,0.2,0.2h0.5c0.1,0,0.2-0.1,0.2-0.2v-0.1
			C223.3,77.4,222.6,76.7,221.2,76.7L221.2,76.7L221.2,76.7z M226.1,77.6h2.9c0.1,0,0.2-0.1,0.2-0.2V77c0-0.1-0.1-0.2-0.2-0.2h-3.6
			c-0.1,0-0.2,0.1-0.2,0.2v6.9c0,0.1,0.1,0.2,0.2,0.2h3.6c0.1,0,0.2-0.1,0.2-0.2v-0.5c0-0.1-0.1-0.2-0.2-0.2h-2.9v-2.4h2.3
			c0.1,0,0.2-0.1,0.2-0.2v-0.5c0-0.1-0.1-0.2-0.2-0.2h-2.3V77.6L226.1,77.6L226.1,77.6z M233.2,76.7c-1.4,0-2.2,0.8-2.2,2
			c0,2.4,3.5,1.9,3.5,3.6c0,0.6-0.4,1.1-1.3,1.1c-0.8,0-1.2-0.4-1.3-1.1c0-0.1-0.1-0.2-0.2-0.2h-0.5c-0.1,0-0.2,0.1-0.2,0.2
			c0.1,1.2,0.8,1.9,2.2,1.9c1.5,0,2.2-0.8,2.2-2c0-2.4-3.5-1.9-3.5-3.6c0-0.7,0.4-1.1,1.3-1.1c0.8,0,1.2,0.3,1.3,1.1
			c0,0.1,0.1,0.2,0.2,0.2h0.5c0.1,0,0.2-0.1,0.2-0.2C235.3,77.4,234.6,76.7,233.2,76.7L233.2,76.7L233.2,76.7z"/>
		<path class="st2" d="M147.4,63.7c0-0.1-0.1-0.2-0.2-0.2h-0.5c-0.1,0-0.2,0.1-0.2,0.2v5.2c0,0.8-0.4,1.2-1.3,1.2s-1.3-0.4-1.3-1.2
			v-5.2c0-0.1-0.1-0.2-0.2-0.2h-0.5c-0.1,0-0.2,0.1-0.2,0.2v5.1c0,1.3,0.7,2.1,2.2,2.1s2.2-0.8,2.2-2.1V63.7L147.4,63.7z
			 M152.7,63.5c-0.1,0-0.2,0.1-0.2,0.2v5.1l-2.7-5.2c0-0.1-0.1-0.1-0.2-0.1h-0.4c-0.1,0-0.2,0.1-0.2,0.2v6.9c0,0.1,0.1,0.2,0.2,0.2
			h0.5c0.1,0,0.2-0.1,0.2-0.2v-5.1l2.7,5.2c0,0.1,0.1,0.1,0.2,0.1h0.4c0.1,0,0.2-0.1,0.2-0.2v-6.9c0-0.1-0.1-0.2-0.2-0.2L152.7,63.5
			L152.7,63.5z M157.7,64.4h1.2c0.1,0,0.2-0.1,0.2-0.2v-0.5c0-0.1-0.1-0.2-0.2-0.2h-3.4c-0.1,0-0.2,0.1-0.2,0.2v0.5
			c0,0.1,0.1,0.2,0.2,0.2h1.2v5.6h-1.2c-0.1,0-0.2,0.1-0.2,0.2v0.5c0,0.1,0.1,0.2,0.2,0.2h3.4c0.1,0,0.2-0.1,0.2-0.2v-0.5
			c0-0.1-0.1-0.2-0.2-0.2h-1.2V64.4L157.7,64.4z M164.8,63.5c-0.1,0-0.2,0.1-0.2,0.2v0.6l-1.4,5.3l-1.4-5.3v-0.6
			c0-0.1-0.1-0.2-0.2-0.2h-0.5c-0.1,0-0.2,0.1-0.2,0.2v0.6c0,0.1,0,0.1,0,0.2l1.7,6.1c0,0.1,0.1,0.2,0.2,0.2h0.8
			c0.1,0,0.2,0,0.2-0.2l1.6-6.1c0-0.1,0-0.1,0-0.2v-0.6c0-0.1-0.1-0.2-0.2-0.2H164.8L164.8,63.5z M168.2,64.4h2.9
			c0.1,0,0.2-0.1,0.2-0.2v-0.5c0-0.1-0.1-0.2-0.2-0.2h-3.6c-0.1,0-0.2,0.1-0.2,0.2v6.9c0,0.1,0.1,0.2,0.2,0.2h3.6
			c0.1,0,0.2-0.1,0.2-0.2v-0.5c0-0.1-0.1-0.2-0.2-0.2h-2.9v-2.4h2.3c0.1,0,0.2-0.1,0.2-0.2v-0.5c0-0.1-0.1-0.2-0.2-0.2h-2.3V64.4
			L168.2,64.4L168.2,64.4z M177.5,65.5c0-1.3-0.7-2-2.2-2h-2c-0.1,0-0.2,0.1-0.2,0.2v6.9c0,0.1,0.1,0.2,0.2,0.2h0.5
			c0.1,0,0.2-0.1,0.2-0.2v-3h1.3l1.3,3.1c0,0.1,0.1,0.1,0.2,0.1h0.5c0.1,0,0.2-0.1,0.2-0.2v-0.2c0-0.1,0-0.1,0-0.2l-1.2-2.8
			C177.1,67.2,177.5,66.5,177.5,65.5L177.5,65.5L177.5,65.5z M174,66.8v-2.4h1.3c0.8,0,1.3,0.4,1.3,1.1v0.1c0,0.8-0.4,1.1-1.3,1.1
			L174,66.8L174,66.8z M181.3,63.4c-1.4,0-2.2,0.8-2.2,2c0,2.4,3.5,1.9,3.5,3.6c0,0.6-0.4,1.1-1.3,1.1c-0.8,0-1.2-0.4-1.3-1.1
			c0-0.1-0.1-0.2-0.2-0.2h-0.5c-0.1,0-0.2,0.1-0.2,0.2c0.1,1.2,0.8,1.9,2.2,1.9c1.5,0,2.2-0.8,2.2-2c0-2.4-3.5-1.9-3.5-3.6
			c0-0.7,0.4-1.1,1.3-1.1c0.8,0,1.2,0.3,1.3,1.1c0,0.1,0.1,0.2,0.2,0.2h0.5c0.1,0,0.2-0.1,0.2-0.2C183.5,64.1,182.7,63.4,181.3,63.4
			L181.3,63.4L181.3,63.4z M187.8,64.4h1.2c0.1,0,0.2-0.1,0.2-0.2v-0.5c0-0.1-0.1-0.2-0.2-0.2h-3.4c-0.1,0-0.2,0.1-0.2,0.2v0.5
			c0,0.1,0.1,0.2,0.2,0.2h1.2v5.6h-1.2c-0.1,0-0.2,0.1-0.2,0.2v0.5c0,0.1,0.1,0.2,0.2,0.2h3.4c0.1,0,0.2-0.1,0.2-0.2v-0.5
			c0-0.1-0.1-0.2-0.2-0.2h-1.2V64.4L187.8,64.4z M195.6,63.7c0-0.1-0.1-0.2-0.2-0.2h-4.3c-0.1,0-0.2,0.1-0.2,0.2v0.5
			c0,0.1,0.1,0.2,0.2,0.2h1.7v6.2c0,0.1,0.1,0.2,0.2,0.2h0.5c0.1,0,0.2-0.1,0.2-0.2v-6.2h1.7c0.1,0,0.2-0.1,0.2-0.2L195.6,63.7
			L195.6,63.7L195.6,63.7z M201.4,63.7c0-0.1-0.1-0.2-0.2-0.2h-0.5c-0.1,0-0.2,0.1-0.2,0.2v0.8l-1.3,2.5l-1.3-2.5v-0.8
			c0-0.1-0.1-0.2-0.2-0.2h-0.5c-0.1,0-0.2,0.1-0.2,0.2v0.9c0,0.1,0,0.2,0.1,0.2l1.7,3.1v2.7c0,0.1,0.1,0.2,0.2,0.2h0.5
			c0.1,0,0.2-0.1,0.2-0.2v-2.7l1.7-3.1c0-0.1,0.1-0.1,0.1-0.2L201.4,63.7L201.4,63.7L201.4,63.7z M209.1,63.4
			c-1.5,0-2.2,0.8-2.2,2.1v3.4c0,1.3,0.7,2.1,2.2,2.1s2.2-0.8,2.2-2.1v-3.4C211.3,64.2,210.6,63.4,209.1,63.4L209.1,63.4z
			 M209.1,64.2c0.8,0,1.3,0.4,1.3,1.2v3.5c0,0.8-0.4,1.2-1.3,1.2s-1.3-0.4-1.3-1.2v-3.5C207.8,64.6,208.3,64.2,209.1,64.2
			L209.1,64.2z M214,64.4h2.9c0.1,0,0.2-0.1,0.2-0.2v-0.5c0-0.1-0.1-0.2-0.2-0.2h-3.6c-0.1,0-0.2,0.1-0.2,0.2v6.9
			c0,0.1,0.1,0.2,0.2,0.2h0.5c0.1,0,0.2-0.1,0.2-0.2v-3h2.3c0.1,0,0.2-0.1,0.2-0.2v-0.5c0-0.1-0.1-0.2-0.2-0.2H214L214,64.4
			L214,64.4L214,64.4z"/>
		<path class="st2" d="M145.3,49.7c-1.6,0-2.4,0.8-2.4,2.3v3.3c0,1.4,0.8,2.3,2.4,2.3s2.4-0.8,2.4-2.3v-3.3
			C147.7,50.5,146.9,49.7,145.3,49.7L145.3,49.7z M145.3,51c0.6,0,0.9,0.2,0.9,0.8v3.6c0,0.6-0.4,0.8-0.9,0.8s-0.9-0.2-0.9-0.8v-3.6
			C144.4,51.2,144.8,51,145.3,51L145.3,51z M151.6,49.7c-1.5,0-2.4,0.8-2.4,2.2c0,2.4,3.3,2.1,3.3,3.6c0,0.5-0.3,0.8-0.9,0.8
			c-0.5,0-0.9-0.2-0.9-0.7c0-0.2-0.1-0.3-0.3-0.3h-0.9c-0.2,0-0.3,0.1-0.2,0.3c0.1,1.3,0.9,2,2.4,2c1.5,0,2.4-0.8,2.4-2.2
			c0-2.4-3.3-2.1-3.3-3.6c0-0.5,0.3-0.8,0.9-0.8c0.5,0,0.9,0.2,0.9,0.7c0,0.2,0.1,0.3,0.3,0.3h0.9c0.2,0,0.3-0.1,0.2-0.3
			C153.9,50.4,153.1,49.7,151.6,49.7L151.6,49.7z M160.1,50.1c0-0.2-0.1-0.3-0.3-0.3h-4.2c-0.2,0-0.3,0.1-0.3,0.3v0.8
			c0,0.2,0.1,0.3,0.3,0.3h1.4v6c0,0.2,0.1,0.3,0.3,0.3h0.9c0.2,0,0.3-0.1,0.3-0.3v-6h1.4c0.2,0,0.3-0.1,0.3-0.3L160.1,50.1
			L160.1,50.1L160.1,50.1z M165.4,49.8c-0.2,0-0.3,0.1-0.3,0.2l-0.3,4.3l-0.5-1.3c-0.1-0.1-0.2-0.2-0.3-0.2h-0.1
			c-0.1,0-0.2,0.1-0.3,0.2l-0.5,1.2l-0.3-4.3c0-0.2-0.1-0.2-0.3-0.2h-0.8c-0.2,0-0.3,0.1-0.3,0.3l0.5,7.1c0,0.2,0.1,0.2,0.3,0.2h0.6
			c0.2,0,0.2-0.1,0.3-0.2l0.9-2.4l0.9,2.4c0.1,0.1,0.2,0.2,0.3,0.2h0.6c0.2,0,0.2-0.1,0.3-0.2l0.5-7.1c0-0.2-0.1-0.3-0.3-0.3H165.4z
			 M169.5,51.1h2.6c0.2,0,0.3-0.1,0.3-0.3v-0.8c0-0.2-0.1-0.3-0.3-0.3h-3.7c-0.2,0-0.3,0.1-0.3,0.3v7.1c0,0.2,0.1,0.3,0.3,0.3h3.7
			c0.2,0,0.3-0.1,0.3-0.3v-0.8c0-0.2-0.1-0.3-0.3-0.3h-2.6v-1.8h2c0.2,0,0.3-0.1,0.3-0.3v-0.8c0-0.2-0.1-0.3-0.3-0.3h-2V51.1
			L169.5,51.1L169.5,51.1z M176.5,49.7c-1.5,0-2.4,0.8-2.4,2.2c0,2.4,3.3,2.1,3.3,3.6c0,0.5-0.3,0.8-0.9,0.8c-0.5,0-0.9-0.2-0.9-0.7
			c0-0.2-0.1-0.3-0.3-0.3h-0.9c-0.2,0-0.3,0.1-0.2,0.3c0.1,1.3,0.9,2,2.4,2c1.5,0,2.4-0.8,2.4-2.2c0-2.4-3.3-2.1-3.3-3.6
			c0-0.5,0.3-0.8,0.9-0.8c0.5,0,0.9,0.2,0.9,0.7c0,0.2,0.1,0.3,0.3,0.3h0.9c0.2,0,0.3-0.1,0.2-0.3C178.8,50.4,177.9,49.7,176.5,49.7
			L176.5,49.7z M185,50.1c0-0.2-0.1-0.3-0.3-0.3h-4.2c-0.2,0-0.3,0.1-0.3,0.3v0.8c0,0.2,0.1,0.3,0.3,0.3h1.4v6
			c0,0.2,0.1,0.3,0.3,0.3h0.9c0.2,0,0.3-0.1,0.3-0.3v-6h1.4c0.2,0,0.3-0.1,0.3-0.3L185,50.1L185,50.1L185,50.1z M188.1,51.1h2.6
			c0.2,0,0.3-0.1,0.3-0.3v-0.8c0-0.2-0.1-0.3-0.3-0.3H187c-0.2,0-0.3,0.1-0.3,0.3v7.1c0,0.2,0.1,0.3,0.3,0.3h0.9
			c0.2,0,0.3-0.1,0.3-0.3v-2.9h2c0.2,0,0.3-0.1,0.3-0.3v-0.8c0-0.2-0.1-0.3-0.3-0.3h-2V51.1L188.1,51.1L188.1,51.1z M195.3,50
			c0-0.2-0.1-0.2-0.3-0.2h-1.4c-0.2,0-0.2,0.1-0.3,0.2l-1.4,6.1c0,0.1,0,0.2,0,0.3v0.7c0,0.2,0.1,0.3,0.3,0.3h0.9
			c0.2,0,0.3-0.1,0.3-0.3v-0.9l0.2-0.9h1.6l0.2,0.9v0.9c0,0.2,0.1,0.3,0.3,0.3h0.9c0.2,0,0.3-0.1,0.3-0.3v-0.7c0-0.1,0-0.2,0-0.3
			L195.3,50L195.3,50L195.3,50z M194.8,54.1h-1.1l0.6-2.7L194.8,54.1L194.8,54.1z M199.9,56.1v-6c0-0.2-0.1-0.3-0.3-0.3h-0.9
			c-0.2,0-0.3,0.1-0.3,0.3v7.1c0,0.2,0.1,0.3,0.3,0.3h3.7c0.2,0,0.3-0.1,0.3-0.3v-0.8c0-0.2-0.1-0.3-0.3-0.3H199.9z M205.9,51.1h2.6
			c0.2,0,0.3-0.1,0.3-0.3v-0.8c0-0.2-0.1-0.3-0.3-0.3h-3.7c-0.2,0-0.3,0.1-0.3,0.3v7.1c0,0.2,0.1,0.3,0.3,0.3h3.7
			c0.2,0,0.3-0.1,0.3-0.3v-0.8c0-0.2-0.1-0.3-0.3-0.3h-2.6v-1.8h2c0.2,0,0.3-0.1,0.3-0.3v-0.8c0-0.2-0.1-0.3-0.3-0.3h-2V51.1
			L205.9,51.1L205.9,51.1z M214.1,49.8c-0.2,0-0.3,0.1-0.3,0.3v4.3l-2.2-4.3c-0.1-0.1-0.2-0.2-0.3-0.2h-0.6c-0.2,0-0.3,0.1-0.3,0.3
			v7.1c0,0.2,0.1,0.3,0.3,0.3h0.9c0.2,0,0.3-0.1,0.3-0.3v-4.3l2.2,4.3c0.1,0.1,0.2,0.2,0.3,0.2h0.6c0.2,0,0.3-0.1,0.3-0.3v-7.1
			c0-0.2-0.1-0.3-0.3-0.3H214.1z M219.7,53.8c0-0.2-0.1-0.3-0.3-0.3h-2.3c-0.2,0-0.3,0.1-0.3,0.3v0.6c0,0.2,0.1,0.3,0.3,0.3h2.3
			c0.2,0,0.3-0.1,0.3-0.3V53.8L219.7,53.8z M223,56.1v-6c0-0.2-0.1-0.3-0.3-0.3h-0.9c-0.2,0-0.3,0.1-0.3,0.3v7.1
			c0,0.2,0.1,0.3,0.3,0.3h3.7c0.2,0,0.3-0.1,0.3-0.3v-0.8c0-0.2-0.1-0.3-0.3-0.3H223L223,56.1z M230.4,51.1h1c0.2,0,0.3-0.1,0.3-0.3
			v-0.8c0-0.2-0.1-0.3-0.3-0.3H228c-0.2,0-0.3,0.1-0.3,0.3v0.8c0,0.2,0.1,0.3,0.3,0.3h1v5h-1c-0.2,0-0.3,0.1-0.3,0.3v0.8
			c0,0.2,0.1,0.3,0.3,0.3h3.5c0.2,0,0.3-0.1,0.3-0.3v-0.8c0-0.2-0.1-0.3-0.3-0.3h-1V51.1L230.4,51.1z M233.9,49.8
			c-0.2,0-0.3,0.1-0.3,0.3v7.1c0,0.2,0.1,0.3,0.3,0.3h0.9c0.2,0,0.3-0.1,0.3-0.3v-2.8h0.9c1.6,0,2.4-0.8,2.4-2.3
			c0-1.4-0.8-2.3-2.4-2.3L233.9,49.8L233.9,49.8z M235.1,51.1h0.9c0.6,0,0.9,0.2,0.9,0.8v0.2c0,0.6-0.4,0.8-0.9,0.8h-0.9V51.1
			L235.1,51.1L235.1,51.1z M240.2,49.8c-0.2,0-0.3,0.1-0.3,0.3v7.1c0,0.2,0.1,0.3,0.3,0.3h0.9c0.2,0,0.3-0.1,0.3-0.3v-2.8h0.9
			c1.6,0,2.4-0.8,2.4-2.3c0-1.4-0.8-2.3-2.4-2.3L240.2,49.8L240.2,49.8z M241.3,51.1h0.9c0.6,0,0.9,0.2,0.9,0.8v0.2
			c0,0.6-0.4,0.8-0.9,0.8h-0.9V51.1L241.3,51.1L241.3,51.1z M247.9,51.1h2.6c0.2,0,0.3-0.1,0.3-0.3v-0.8c0-0.2-0.1-0.3-0.3-0.3h-3.7
			c-0.2,0-0.3,0.1-0.3,0.3v7.1c0,0.2,0.1,0.3,0.3,0.3h3.7c0.2,0,0.3-0.1,0.3-0.3v-0.8c0-0.2-0.1-0.3-0.3-0.3h-2.6v-1.8h2
			c0.2,0,0.3-0.1,0.3-0.3v-0.8c0-0.2-0.1-0.3-0.3-0.3h-2V51.1L247.9,51.1L247.9,51.1z"/>
		<path class="st2" d="M147.6,36.8c0-0.2-0.1-0.3-0.3-0.3h-4.2c-0.2,0-0.3,0.1-0.3,0.3v0.8c0,0.2,0.1,0.3,0.3,0.3h1.4v6
			c0,0.2,0.1,0.3,0.3,0.3h0.9c0.2,0,0.3-0.1,0.3-0.3v-6h1.4c0.2,0,0.3-0.1,0.3-0.3L147.6,36.8L147.6,36.8L147.6,36.8z M150.7,37.8
			h2.6c0.2,0,0.3-0.1,0.3-0.3v-0.8c0-0.2-0.1-0.3-0.3-0.3h-3.7c-0.2,0-0.3,0.1-0.3,0.3v7.1c0,0.2,0.1,0.3,0.3,0.3h3.7
			c0.2,0,0.3-0.1,0.3-0.3v-0.8c0-0.2-0.1-0.3-0.3-0.3h-2.6V41h2c0.2,0,0.3-0.1,0.3-0.3v-0.8c0-0.2-0.1-0.3-0.3-0.3h-2V37.8
			L150.7,37.8L150.7,37.8z M157.7,36.4c-1.6,0-2.4,0.8-2.4,2.3V42c0,1.4,0.8,2.3,2.4,2.3s2.4-0.8,2.4-2.3v-0.1
			c0-0.2-0.1-0.3-0.3-0.3h-0.9c-0.2,0-0.3,0.1-0.3,0.3v0.2c0,0.6-0.4,0.8-0.9,0.8s-0.9-0.2-0.9-0.8v-3.6c0-0.6,0.4-0.8,0.9-0.8
			s0.9,0.2,0.9,0.8v0.2c0,0.2,0.1,0.3,0.3,0.3h0.9c0.2,0,0.3-0.1,0.3-0.3v-0.1C160,37.3,159.3,36.4,157.7,36.4
			C157.7,36.4,157.7,36.4,157.7,36.4z M165.2,36.5c-0.2,0-0.3,0.1-0.3,0.3v2.8H163v-2.8c0-0.2-0.1-0.3-0.3-0.3h-0.9
			c-0.2,0-0.3,0.1-0.3,0.3v7.1c0,0.2,0.1,0.3,0.3,0.3h0.9c0.2,0,0.3-0.1,0.3-0.3v-2.9h1.9v2.9c0,0.2,0.1,0.3,0.3,0.3h0.9
			c0.2,0,0.3-0.1,0.3-0.3v-7.1c0-0.2-0.1-0.3-0.3-0.3H165.2z M171.4,36.5c-0.2,0-0.3,0.1-0.3,0.3v4.3l-2.2-4.3
			c-0.1-0.1-0.2-0.2-0.3-0.2h-0.6c-0.2,0-0.3,0.1-0.3,0.3v7.1c0,0.2,0.1,0.3,0.3,0.3h0.9c0.2,0,0.3-0.1,0.3-0.3v-4.3l2.2,4.3
			c0.1,0.1,0.2,0.2,0.3,0.2h0.6c0.2,0,0.3-0.1,0.3-0.3v-7.1c0-0.2-0.1-0.3-0.3-0.3C172.3,36.5,171.4,36.5,171.4,36.5z M177.2,37.8h1
			c0.2,0,0.3-0.1,0.3-0.3v-0.8c0-0.2-0.1-0.3-0.3-0.3h-3.5c-0.2,0-0.3,0.1-0.3,0.3v0.8c0,0.2,0.1,0.3,0.3,0.3h1v5h-1
			c-0.2,0-0.3,0.1-0.3,0.3v0.8c0,0.2,0.1,0.3,0.3,0.3h3.5c0.2,0,0.3-0.1,0.3-0.3v-0.8c0-0.2-0.1-0.3-0.3-0.3h-1V37.8L177.2,37.8z
			 M182.8,36.4c-1.5,0-2.4,0.8-2.4,2.2c0,2.4,3.3,2.1,3.3,3.6c0,0.5-0.3,0.8-0.9,0.8c-0.5,0-0.9-0.2-0.9-0.7c0-0.2-0.1-0.3-0.3-0.3
			h-0.9c-0.2,0-0.3,0.1-0.2,0.3c0.1,1.3,0.9,2,2.4,2c1.5,0,2.4-0.8,2.4-2.2c0-2.4-3.3-2.1-3.3-3.6c0-0.5,0.3-0.8,0.9-0.8
			c0.5,0,0.9,0.2,0.9,0.7c0,0.2,0.1,0.3,0.3,0.3h0.9c0.2,0,0.3-0.1,0.2-0.3C185.1,37.2,184.2,36.4,182.8,36.4L182.8,36.4z
			 M189.1,36.4c-1.6,0-2.4,0.8-2.4,2.3V42c0,1.4,0.8,2.3,2.4,2.3s2.4-0.8,2.4-2.3v-0.1c0-0.2-0.1-0.3-0.3-0.3h-0.9
			c-0.2,0-0.3,0.1-0.3,0.3v0.2c0,0.6-0.4,0.8-0.9,0.8s-0.9-0.2-0.9-0.8v-3.6c0-0.6,0.4-0.8,0.9-0.8s0.9,0.2,0.9,0.8v0.2
			c0,0.2,0.1,0.3,0.3,0.3h0.9c0.2,0,0.3-0.1,0.3-0.3v-0.1C191.4,37.3,190.7,36.4,189.1,36.4C189.1,36.4,189.1,36.4,189.1,36.4z
			 M196.6,36.5c-0.2,0-0.3,0.1-0.3,0.3v2.8h-1.9v-2.8c0-0.2-0.1-0.3-0.3-0.3h-0.9c-0.2,0-0.3,0.1-0.3,0.3v7.1c0,0.2,0.1,0.3,0.3,0.3
			h0.9c0.2,0,0.3-0.1,0.3-0.3v-2.9h1.9v2.9c0,0.2,0.1,0.3,0.3,0.3h0.9c0.2,0,0.3-0.1,0.3-0.3v-7.1c0-0.2-0.1-0.3-0.3-0.3H196.6z
			 M200.9,37.8h2.6c0.2,0,0.3-0.1,0.3-0.3v-0.8c0-0.2-0.1-0.3-0.3-0.3h-3.7c-0.2,0-0.3,0.1-0.3,0.3v7.1c0,0.2,0.1,0.3,0.3,0.3h3.7
			c0.2,0,0.3-0.1,0.3-0.3v-0.8c0-0.2-0.1-0.3-0.3-0.3h-2.6V41h2c0.2,0,0.3-0.1,0.3-0.3v-0.8c0-0.2-0.1-0.3-0.3-0.3h-2V37.8
			L200.9,37.8L200.9,37.8z M213.2,36.5c-0.2,0-0.3,0.1-0.3,0.3v2.8H211v-2.8c0-0.2-0.1-0.3-0.3-0.3h-0.9c-0.2,0-0.3,0.1-0.3,0.3v7.1
			c0,0.2,0.1,0.3,0.3,0.3h0.9c0.2,0,0.3-0.1,0.3-0.3v-2.9h1.9v2.9c0,0.2,0.1,0.3,0.3,0.3h0.9c0.2,0,0.3-0.1,0.3-0.3v-7.1
			c0-0.2-0.1-0.3-0.3-0.3H213.2z M218.2,36.4c-1.6,0-2.4,0.8-2.4,2.3V42c0,1.4,0.8,2.3,2.4,2.3c1.6,0,2.4-0.8,2.4-2.3v-3.3
			C220.6,37.3,219.8,36.4,218.2,36.4L218.2,36.4z M218.2,37.7c0.6,0,0.9,0.2,0.9,0.8v3.6c0,0.6-0.4,0.8-0.9,0.8
			c-0.6,0-0.9-0.2-0.9-0.8v-3.6C217.3,37.9,217.6,37.7,218.2,37.7L218.2,37.7z M224.5,36.4c-1.6,0-2.4,0.8-2.4,2.3V42
			c0,1.4,0.8,2.3,2.4,2.3s2.4-0.8,2.4-2.3v-0.1c0-0.2-0.1-0.3-0.3-0.3h-0.9c-0.2,0-0.3,0.1-0.3,0.3v0.2c0,0.6-0.4,0.8-0.9,0.8
			c-0.6,0-0.9-0.2-0.9-0.8v-3.6c0-0.6,0.4-0.8,0.9-0.8c0.6,0,0.9,0.2,0.9,0.8v0.2c0,0.2,0.1,0.3,0.3,0.3h0.9c0.2,0,0.3-0.1,0.3-0.3
			v-0.1C226.9,37.3,226.1,36.4,224.5,36.4C224.5,36.4,224.5,36.4,224.5,36.4z M232,36.5c-0.2,0-0.3,0.1-0.3,0.3v2.8h-1.9v-2.8
			c0-0.2-0.1-0.3-0.3-0.3h-0.9c-0.2,0-0.3,0.1-0.3,0.3v7.1c0,0.2,0.1,0.3,0.3,0.3h0.9c0.2,0,0.3-0.1,0.3-0.3v-2.9h1.9v2.9
			c0,0.2,0.1,0.3,0.3,0.3h0.9c0.2,0,0.3-0.1,0.3-0.3v-7.1c0-0.2-0.1-0.3-0.3-0.3H232z M237.1,36.4c-1.5,0-2.4,0.8-2.4,2.2
			c0,2.4,3.3,2.1,3.3,3.6c0,0.5-0.3,0.8-0.9,0.8c-0.5,0-0.9-0.2-0.9-0.7c0-0.2-0.1-0.3-0.3-0.3H235c-0.2,0-0.3,0.1-0.2,0.3
			c0.1,1.3,0.9,2,2.4,2c1.5,0,2.4-0.8,2.4-2.2c0-2.4-3.3-2.1-3.3-3.6c0-0.5,0.3-0.8,0.9-0.8c0.5,0,0.9,0.2,0.9,0.7
			c0,0.2,0.1,0.3,0.3,0.3h0.9c0.2,0,0.3-0.1,0.2-0.3C239.3,37.2,238.5,36.4,237.1,36.4L237.1,36.4z M243.4,36.4
			c-1.6,0-2.4,0.8-2.4,2.3V42c0,1.4,0.8,2.3,2.4,2.3s2.4-0.8,2.4-2.3v-0.1c0-0.2-0.1-0.3-0.3-0.3h-0.9c-0.2,0-0.3,0.1-0.3,0.3v0.2
			c0,0.6-0.4,0.8-0.9,0.8c-0.6,0-0.9-0.2-0.9-0.8v-3.6c0-0.6,0.4-0.8,0.9-0.8c0.6,0,0.9,0.2,0.9,0.8v0.2c0,0.2,0.1,0.3,0.3,0.3h0.9
			c0.2,0,0.3-0.1,0.3-0.3v-0.1C245.7,37.3,245,36.4,243.4,36.4C243.4,36.4,243.4,36.4,243.4,36.4z M250.8,36.5
			c-0.2,0-0.3,0.1-0.3,0.3v2.8h-1.9v-2.8c0-0.2-0.1-0.3-0.3-0.3h-0.9c-0.2,0-0.3,0.1-0.3,0.3v7.1c0,0.2,0.1,0.3,0.3,0.3h0.9
			c0.2,0,0.3-0.1,0.3-0.3v-2.9h1.9v2.9c0,0.2,0.1,0.3,0.3,0.3h0.9c0.2,0,0.3-0.1,0.3-0.3v-7.1c0-0.2-0.1-0.3-0.3-0.3H250.8z
			 M258.3,36.8c0-0.2-0.1-0.3-0.3-0.3h-0.9c-0.2,0-0.3,0.1-0.3,0.3v5.3c0,0.6-0.4,0.8-0.9,0.8c-0.6,0-0.9-0.2-0.9-0.8v-5.3
			c0-0.2-0.1-0.3-0.3-0.3h-0.9c-0.2,0-0.3,0.1-0.3,0.3V42c0,1.4,0.8,2.3,2.4,2.3c1.6,0,2.4-0.8,2.4-2.3V36.8L258.3,36.8z
			 M261.5,42.8v-6c0-0.2-0.1-0.3-0.3-0.3h-0.9c-0.2,0-0.3,0.1-0.3,0.3v7.1c0,0.2,0.1,0.3,0.3,0.3h3.7c0.2,0,0.3-0.1,0.3-0.3v-0.8
			c0-0.2-0.1-0.3-0.3-0.3C264.1,42.8,261.5,42.8,261.5,42.8z M267.5,37.8h2.6c0.2,0,0.3-0.1,0.3-0.3v-0.8c0-0.2-0.1-0.3-0.3-0.3
			h-3.7c-0.2,0-0.3,0.1-0.3,0.3v7.1c0,0.2,0.1,0.3,0.3,0.3h3.7c0.2,0,0.3-0.1,0.3-0.3v-0.8c0-0.2-0.1-0.3-0.3-0.3h-2.6V41h2
			c0.2,0,0.3-0.1,0.3-0.3v-0.8c0-0.2-0.1-0.3-0.3-0.3h-2V37.8L267.5,37.8L267.5,37.8z"/>
		<path class="st2" d="M50.8,24.7c0-0.7-0.4-1.2-1.2-1.2H30.8c-0.7,0-1.2,0.4-1.2,1.2v3.5c0,0.7,0.4,1.2,1.2,1.2H37v26.9
			c0,0.7,0.4,1.2,1.2,1.2h4c0.7,0,1.2-0.4,1.2-1.2V29.3h6.2c0.7,0,1.2-0.4,1.2-1.2V24.7L50.8,24.7z M71,23.5c-0.7,0-1.2,0.4-1.2,1.2
			v12.6h-8.5V24.7c0-0.7-0.4-1.2-1.2-1.2h-4c-0.7,0-1.2,0.4-1.2,1.2v31.6c0,0.7,0.4,1.2,1.2,1.2h4c0.7,0,1.2-0.4,1.2-1.2V43.1h8.5
			v13.1c0,0.7,0.4,1.2,1.2,1.2h4c0.7,0,1.2-0.4,1.2-1.2V24.7c0-0.7-0.4-1.2-1.2-1.2H71z"/>
		<path class="st2" d="M65.6,62.9C58.4,62.9,55,66.7,55,73v14.8c0,6.3,3.4,10.1,10.6,10.1s10.6-3.8,10.6-10.1V73
			C76.2,66.7,72.8,62.9,65.6,62.9L65.6,62.9z M65.6,68.7c2.6,0,4.2,1,4.2,3.7v15.9c0,2.7-1.6,3.7-4.2,3.7c-2.6,0-4.2-1-4.2-3.7V72.4
			C61.4,69.8,63,68.7,65.6,68.7L65.6,68.7z M100.1,63.4c-0.7,0-1.2,0.4-1.2,1.1l-1.4,19.1l-2.3-5.6c-0.3-0.6-0.7-0.9-1.3-0.9h-0.3
			c-0.6,0-1.1,0.3-1.3,0.9l-2.3,5.5l-1.4-19c-0.1-0.7-0.5-1.1-1.2-1.1h-3.7c-0.8,0-1.2,0.4-1.2,1.2l2,31.6c0.1,0.7,0.4,1.1,1.2,1.1
			h2.8c0.7,0,1.1-0.3,1.4-1l4-10.7l4,10.7c0.3,0.6,0.7,1,1.4,1h2.8c0.7,0,1.1-0.4,1.2-1.1l2-31.6c0-0.8-0.4-1.2-1.2-1.2H100.1
			L100.1,63.4z M118.6,91.5V64.6c0-0.7-0.4-1.2-1.2-1.2h-4c-0.7,0-1.2,0.4-1.2,1.2v31.6c0,0.7,0.4,1.2,1.2,1.2h16.7
			c0.7,0,1.2-0.4,1.2-1.2v-3.5c0-0.7-0.4-1.2-1.2-1.2H118.6L118.6,91.5z"/>
		<path class="st2" d="M89.3,25.5c-3,0-5.7-2-6.5-5c-1-3.6,1.2-7.3,4.7-8.2l37-9.9c3.6-1,7.3,1.2,8.2,4.7s-1.2,7.3-4.7,8.2l-37,9.9
			C90.5,25.4,89.9,25.5,89.3,25.5"/>
		<path class="st2" d="M116.4,52.5c-1.7,0-3.4-0.7-4.7-2L84.6,23.5c-2.6-2.6-2.6-6.9,0-9.5c2.6-2.6,6.9-2.6,9.5,0l27.1,27.1
			c2.6,2.6,2.6,6.9,0,9.5C119.8,51.9,118.1,52.5,116.4,52.5"/>
		<path class="st3" d="M116.4,52.5c-0.6,0-1.2-0.1-1.7-0.2c-3.6-1-5.7-4.6-4.7-8.2l9.9-37c1-3.6,4.6-5.7,8.2-4.7
			c3.6,1,5.7,4.6,4.7,8.2l-9.9,37C122.1,50.6,119.4,52.5,116.4,52.5"/>
		<path class="st4" d="M131.1,4.1c-1.6-1.6-4.1-2.4-6.5-1.7c0,0,0,0,0.1,0c-2.3,0.6-4.2,2.3-4.8,4.8l-3,11.2l11.2-3
			c2.4-0.7,4.2-2.5,4.8-4.8c0,0,0,0,0,0.1C133.4,8.2,132.7,5.7,131.1,4.1L131.1,4.1L131.1,4.1z"/>
		<path class="st5" d="M82.9,17c-0.6,2.2,0,4.7,1.7,6.5c0,0,0,0,0-0.1c1.6,1.7,4.1,2.4,6.5,1.8l11.2-3L94.1,14
			c-1.8-1.8-4.3-2.3-6.6-1.7c0,0,0,0,0.1,0C85.2,12.9,83.5,14.8,82.9,17"/>
		<path class="st4" d="M118.1,52.3c2.2-0.6,4.1-2.4,4.7-4.7c0,0,0,0,0,0.1c0.6-2.3,0.1-4.8-1.7-6.6l-8.2-8.2l-3,11.2
			c-0.6,2.4,0.1,4.9,1.8,6.5c0,0,0,0-0.1,0C113.4,52.3,115.9,52.9,118.1,52.3"/>
	</g>
</g>
</svg>
